<svg xmlns="http://www.w3.org/2000/svg" viewBox="0 0 1000 601.0978"><title>2005 [преобразованный]</title><g style="isolation:isolate"><g id="MAP"><g style="mix-blend-mode:multiply"><path d="M145.861,163.91088,346.7653,120.69083a20.2487,20.2487,0,0,1,9.08249.13108l160.02806,39.34043a20.26593,20.26593,0,0,0,9.38108.06554L696.142,120.73408a20.25753,20.25753,0,0,1,9.43729.08L895.024,167.978a18.21935,18.21935,0,0,1,13.67029,13.5686l104.98433,487.26011c2.85678,13.25486-10.69534,24.45615-24.47573,20.22491l-244.20246-5.83944a20.23069,20.23069,0,0,0-12.3165,0H526.79369a20.2374,20.2374,0,0,1-12.50244,0H308.22645a20.23936,20.23936,0,0,0-11.89172,0l-243.026,7.16668c-13.70142,4.10016-27.106-6.98832-24.363-20.154L131.54047,177.73494A18.26488,18.26488,0,0,1,145.861,163.91088Z" transform="translate(-21.24983 -90.12662)" fill="#fdfdfd"/><path d="M147.3682,164.88157,347.466,121.835a20.16741,20.16741,0,0,1,9.046.13056l159.38565,39.18251a20.18458,20.18458,0,0,0,9.34342.06526l170.1991-39.33526a20.17649,20.17649,0,0,1,9.39942.07971l188.68414,46.97457a18.14616,18.14616,0,0,1,13.61543,13.51413l104.56289,485.30411c2.84529,13.20166-10.65241,24.358-24.37748,20.14373l-243.22216-6.20963a20.14943,20.14943,0,0,0-12.267.0014l-205.06371.39134a20.15616,20.15616,0,0,1-12.45225.00087l-205.23761-.32356a20.15794,20.15794,0,0,0-11.844-.00091l-242.05038,7.4624c-13.64644,4.08368-26.99718-6.96026-24.26524-20.0731l102.1829-490.493A18.19157,18.19157,0,0,1,147.3682,164.88157Z" transform="translate(-21.24983 -90.12662)" fill="#fcfcfc"/><path d="M148.87544,165.85226l199.29134-42.87305a20.08612,20.08612,0,0,1,9.00959.13l158.74325,39.02459a20.10323,20.10323,0,0,0,9.30576.065l169.51311-39.17672a20.09545,20.09545,0,0,1,9.36155.07938l187.92363,46.78526a18.073,18.073,0,0,1,13.56057,13.45965l104.14146,483.34811c2.83381,13.14847-10.60948,24.25979-24.27923,20.06255L743.2046,680.17724a20.06817,20.06817,0,0,0-12.21758.0028l-204.23724.78269a20.07493,20.07493,0,0,1-12.40206.00175l-204.41042-.64712a20.07653,20.07653,0,0,0-11.79625-.00182L57.06628,688.07366c-13.59146,4.06721-26.88838-6.93221-24.16744-19.9922l101.771-488.51611A18.11825,18.11825,0,0,1,148.87544,165.85226Z" transform="translate(-21.24983 -90.12662)" fill="#fbfbfb"/><path d="M150.38267,166.823,348.86751,124.1234a20.00483,20.00483,0,0,1,8.97313.12952l158.10084,38.86667a20.02188,20.02188,0,0,0,9.2681.0647l168.82712-39.01817a20.01441,20.01441,0,0,1,9.32368.079l187.16313,46.596a17.9998,17.9998,0,0,1,13.5057,13.40518l103.72,481.3921c2.82232,13.09527-10.56656,24.16162-24.181,19.98137l-241.26155-6.95a19.98691,19.98691,0,0,0-12.16812.0042l-203.41076,1.174a19.99369,19.99369,0,0,1-12.35187.00262L310.79274,678.88a19.99512,19.99512,0,0,0-11.74851-.00273L58.945,686.93106c-13.53649,4.05073-26.77958-6.90416-24.06964-19.9113l101.3592-486.53921A18.04493,18.04493,0,0,1,150.38267,166.823Z" transform="translate(-21.24983 -90.12662)" fill="#fafafa"/><path d="M151.8899,167.79364l197.67834-42.526a19.92353,19.92353,0,0,1,8.93668.129l157.45843,38.70875a19.94053,19.94053,0,0,0,9.23044.06442l168.14114-38.85962a19.93337,19.93337,0,0,1,9.28582.07872L889.02338,171.7955a17.92661,17.92661,0,0,1,13.45084,13.3507L1005.7728,664.5823c2.81083,13.04207-10.52363,24.06344-24.08274,19.90019l-240.28124-7.32018a19.90566,19.90566,0,0,0-12.11866.0056l-202.58428,1.56538a19.91246,19.91246,0,0,1-12.30168.0035l-202.756-1.29424a19.91371,19.91371,0,0,0-11.70077-.00364L60.8238,685.78847C47.34229,689.82272,34.153,678.91235,36.852,665.95806L137.7993,181.39575A17.97161,17.97161,0,0,1,151.8899,167.79364Z" transform="translate(-21.24983 -90.12662)" fill="#f9f9f9"/><path d="M153.39714,168.76433,350.269,126.41178a19.84224,19.84224,0,0,1,8.90023.12847l156.816,38.55083a19.85918,19.85918,0,0,0,9.19278.06415l167.45515-38.70107a19.85233,19.85233,0,0,1,9.24795.07838l185.64212,46.21734a17.85343,17.85343,0,0,1,13.396,13.29623l102.87714,477.4801c2.79935,12.98888-10.4807,23.96526-23.98449,19.819l-239.30094-7.69037a19.8244,19.8244,0,0,0-12.0692.007l-201.75781,1.95672a19.83123,19.83123,0,0,1-12.25149.00437l-201.92883-1.6178a19.8323,19.8323,0,0,0-11.653-.00455l-238.148,8.64528c-13.42654,4.01778-26.562-6.84806-23.87405-19.74951L139.364,182.311A17.8983,17.8983,0,0,1,153.39714,168.76433Z" transform="translate(-21.24983 -90.12662)" fill="#f8f8f8"/><path d="M154.90437,169.735l196.06535-42.179a19.76094,19.76094,0,0,1,8.86377.12795l156.17362,38.3929a19.77782,19.77782,0,0,0,9.15512.06387L691.9314,127.59816a19.77129,19.77129,0,0,1,9.21008.078l184.88162,46.028A17.78025,17.78025,0,0,1,899.36422,186.946l102.4557,475.5241c2.78786,12.93568-10.43777,23.86708-23.88625,19.73783L739.613,674.14738a19.74314,19.74314,0,0,0-12.01974.0084L526.662,676.50385a19.75,19.75,0,0,1-12.2013.00524L313.359,674.56773a19.75089,19.75089,0,0,0-11.6053-.00546l-237.17241,8.941c-13.37156,4.0013-26.4532-6.82-23.77625-19.66861l100.12365-480.6085A17.825,17.825,0,0,1,154.90437,169.735Z" transform="translate(-21.24983 -90.12662)" fill="#f7f7f7"/><path d="M156.41161,170.70571l195.25885-42.00555a19.67965,19.67965,0,0,1,8.82732.12742l155.53121,38.235a19.69647,19.69647,0,0,0,9.11746.06359l166.08317-38.384a19.69025,19.69025,0,0,1,9.17221.07772L884.523,174.65862a17.70706,17.70706,0,0,1,13.28626,13.18728L999.84348,661.414c2.77638,12.88248-10.39484,23.76891-23.788,19.65665l-237.34033-8.43074a19.66189,19.66189,0,0,0-11.97028.0098L526.64,675.38913a19.66876,19.66876,0,0,1-12.1511.00612l-200.27445-2.26492a19.66948,19.66948,0,0,0-11.55756-.00637L66.46008,682.36068c-13.31658,3.98483-26.3444-6.792-23.67846-19.58772l99.7118-478.63159A17.75166,17.75166,0,0,1,156.41161,170.70571Z" transform="translate(-21.24983 -90.12662)" fill="#f6f6f6"/><path d="M157.91884,171.67639l194.45236-41.832a19.59836,19.59836,0,0,1,8.79087.1269l154.88881,38.07706a19.61512,19.61512,0,0,0,9.0798.06331l165.39718-38.22543a19.60921,19.60921,0,0,1,9.13435.07738L883.02281,175.613a17.63388,17.63388,0,0,1,13.2314,13.1328L997.867,660.3579c2.76489,12.82929-10.35191,23.67073-23.68976,19.57547l-236.36-8.80093a19.58063,19.58063,0,0,0-11.92082.0112l-199.27838,3.13076a19.58753,19.58753,0,0,1-12.10091.007L315.0699,671.69291a19.58807,19.58807,0,0,0-11.50983-.00728L68.33884,681.21808c-13.26161,3.96835-26.23561-6.76391-23.58066-19.50682l99.29994-476.65469A17.67835,17.67835,0,0,1,157.91884,171.67639Z" transform="translate(-21.24983 -90.12662)" fill="#f5f5f5"/><path d="M159.42607,172.64708l193.64586-41.65855a19.51707,19.51707,0,0,1,8.75441.12638l154.2464,37.91914a19.53377,19.53377,0,0,0,9.04214.063l164.71119-38.06688a19.52817,19.52817,0,0,1,9.09648.077l182.6001,45.46012A17.5607,17.5607,0,0,1,894.6992,189.6457l101.19139,469.6561c2.7534,12.77609-10.309,23.57255-23.59151,19.49429L736.91937,669.625a19.49938,19.49938,0,0,0-11.87136.0126l-198.4519,3.5221a19.5063,19.5063,0,0,1-12.05072.00786l-198.62006-2.912a19.50666,19.50666,0,0,0-11.46209-.00819L70.21761,680.07549c-13.20663,3.95188-26.12681-6.73586-23.48286-19.42593l98.88809-474.67779A17.605,17.605,0,0,1,159.42607,172.64708Z" transform="translate(-21.24983 -90.12662)" fill="#f4f4f4"/><path d="M160.93331,173.61777l192.83936-41.485a19.43577,19.43577,0,0,1,8.718.12586l153.604,37.76122a19.45242,19.45242,0,0,0,9.00448.06275l164.02521-37.90833a19.44713,19.44713,0,0,1,9.05861.07672l181.8396,45.27081A17.48751,17.48751,0,0,1,893.1442,190.5456l100.76995,467.7001c2.74192,12.72289-10.26606,23.47437-23.49326,19.41311l-234.39941-9.5413a19.41813,19.41813,0,0,0-11.8219.014L526.57415,672.045a19.42507,19.42507,0,0,1-12.00053.00874L316.78076,668.8181a19.42525,19.42525,0,0,0-11.41435-.0091l-233.27,10.12389c-13.15166,3.9354-26.018-6.70781-23.38507-19.345L147.18754,186.887A17.53171,17.53171,0,0,1,160.93331,173.61777Z" transform="translate(-21.24983 -90.12662)" fill="#f3f3f3"/><path d="M162.44054,174.58846l192.03287-41.31154a19.35448,19.35448,0,0,1,8.68151.12533l152.96159,37.6033a19.37107,19.37107,0,0,0,8.96682.06247l163.33922-37.74978a19.36608,19.36608,0,0,1,9.02074.07638l181.07909,45.08151A17.41433,17.41433,0,0,1,891.5892,191.4455l100.34851,465.7441c2.73043,12.66969-10.22313,23.3762-23.395,19.33194L735.12358,666.61a19.33688,19.33688,0,0,0-11.77244.0154l-196.799,4.30479a19.34384,19.34384,0,0,1-11.95034.00961l-196.96567-3.55917a19.34384,19.34384,0,0,0-11.36662-.01L73.97513,677.79029c-13.09668,3.91893-25.90922-6.67976-23.28727-19.26413l98.06439-470.724A17.4584,17.4584,0,0,1,162.44054,174.58846Z" transform="translate(-21.24983 -90.12662)" fill="#f2f2f2"/><path d="M163.94777,175.55915l191.22637-41.138a19.27319,19.27319,0,0,1,8.64505.12481l152.31918,37.44538a19.28972,19.28972,0,0,0,8.92916.06219l162.65323-37.59124a19.285,19.285,0,0,1,8.98288.07605l180.31859,44.8922a17.34115,17.34115,0,0,1,13.012,12.9149l99.92707,463.78809c2.71894,12.6165-10.1802,23.278-23.29677,19.25076l-232.4388-10.28167a19.25562,19.25562,0,0,0-11.723.0168l-195.97248,4.69614a19.26261,19.26261,0,0,1-11.90015.01049l-196.13848-3.88273a19.26243,19.26243,0,0,0-11.31888-.01092L75.85389,676.6477c-13.0417,3.90245-25.80043-6.65171-23.18947-19.18324L150.317,188.71738A17.38508,17.38508,0,0,1,163.94777,175.55915Z" transform="translate(-21.24983 -90.12662)" fill="#f1f1f1"/><path d="M165.455,176.52984,355.87488,135.5653a19.19189,19.19189,0,0,1,8.6086.12429L516.16026,172.977a19.20837,19.20837,0,0,0,8.8915.06191L687.019,135.60626a19.204,19.204,0,0,1,8.945.07572L875.5221,180.38487a17.268,17.268,0,0,1,12.95709,12.86042l99.50563,461.83209c2.70746,12.5633-10.13727,23.17984-23.19852,19.16958L733.3278,663.59511a19.17437,19.17437,0,0,0-11.67351.0182l-195.146,5.08748a19.18138,19.18138,0,0,1-11.85.01136l-195.31128-4.20629a19.181,19.181,0,0,0-11.27115-.01183L77.73265,675.5051c-12.98673,3.886-25.69163-6.62366-23.09168-19.10234l97.24069-466.77018A17.31176,17.31176,0,0,1,165.455,176.52984Z" transform="translate(-21.24983 -90.12662)" fill="#f0f0f0"/><path d="M166.96224,177.50053l189.61338-40.791a19.1106,19.1106,0,0,1,8.57215.12376l151.03437,37.12954a19.127,19.127,0,0,0,8.85384.06163l161.28125-37.27414a19.123,19.123,0,0,1,8.90714.07538L874.022,181.33925a17.19478,17.19478,0,0,1,12.90223,12.80595l99.0842,459.87609c2.696,12.5101-10.09434,23.08166-23.10028,19.0884l-230.47819-11.022a19.09312,19.09312,0,0,0-11.62405.01961l-194.31952,5.47883a19.10015,19.10015,0,0,1-11.79976.01223l-194.48409-4.52985a19.09962,19.09962,0,0,0-11.22341-.01274L79.61141,674.36251c-12.93175,3.8695-25.58284-6.59561-22.99388-19.02144l96.82884-464.79327A17.23845,17.23845,0,0,1,166.96224,177.50053Z" transform="translate(-21.24983 -90.12662)" fill="#efefef"/><path d="M168.46947,178.47122l188.80688-40.61754a19.02931,19.02931,0,0,1,8.53569.12324l150.392,36.97161a19.04567,19.04567,0,0,0,8.81618.06135l160.59526-37.11559a19.04192,19.04192,0,0,1,8.86927.07505l178.03708,44.32428a17.1216,17.1216,0,0,1,12.84737,12.75147l98.66276,457.92009c2.68448,12.45691-10.05141,22.98349-23.002,19.00722L731.532,660.58018a19.01188,19.01188,0,0,0-11.57459.021l-193.493,5.87017a19.01892,19.01892,0,0,1-11.74957.01311l-193.65689-4.85341a19.01821,19.01821,0,0,0-11.17567-.01365L81.49017,673.21991c-12.87678,3.853-25.474-6.56755-22.89608-18.94055l96.417-462.81637A17.16513,17.16513,0,0,1,168.46947,178.47122Z" transform="translate(-21.24983 -90.12662)" fill="#eee"/><path d="M169.97671,179.44191l188.00039-40.444a18.948,18.948,0,0,1,8.49924.12272l149.74956,36.81369a18.96431,18.96431,0,0,0,8.77852.06107l159.90928-36.957a18.96089,18.96089,0,0,1,8.83141.07472l177.27657,44.135a17.04841,17.04841,0,0,1,12.79251,12.697l98.24132,455.96409c2.673,12.40371-10.00848,22.88531-22.90378,18.926L730.63413,659.07272a18.93063,18.93063,0,0,0-11.52513.02241l-192.66657,6.26152a18.93769,18.93769,0,0,1-11.69938.014l-192.8297-5.177a18.93681,18.93681,0,0,0-11.12794-.01456L83.36893,672.07731c-12.8218,3.83655-25.36525-6.5395-22.79829-18.85965L156.57579,192.3782A17.09181,17.09181,0,0,1,169.97671,179.44191Z" transform="translate(-21.24983 -90.12662)" fill="#ededed"/><path d="M171.48394,180.41259l187.19389-40.27054a18.86672,18.86672,0,0,1,8.46279.1222L516.24777,176.92a18.883,18.883,0,0,0,8.74086.06079l159.22329-36.7985a18.87984,18.87984,0,0,1,8.79354.07439l176.51607,43.94567a16.97523,16.97523,0,0,1,12.73765,12.64252L980.07905,650.853c2.66151,12.35051-9.96556,22.78713-22.80554,18.84486L729.73624,657.56525a18.84938,18.84938,0,0,0-11.47567.02381l-191.8401,6.65286a18.85646,18.85646,0,0,1-11.64919.01486l-192.00251-5.50053a18.8554,18.8554,0,0,0-11.0802-.01547L85.24769,670.93472C72.48087,674.7548,59.99124,664.42326,62.5472,652.156L158.14049,193.2934A17.01849,17.01849,0,0,1,171.48394,180.41259Z" transform="translate(-21.24983 -90.12662)" fill="#ececec"/><path d="M172.99117,181.38328l186.38739-40.097a18.78543,18.78543,0,0,1,8.42633.12167l148.46474,36.49785a18.80161,18.80161,0,0,0,8.7032.06051l158.5373-36.63995a18.79881,18.79881,0,0,1,8.75567.07405l175.75556,43.75636a16.902,16.902,0,0,1,12.68279,12.588l97.39844,452.05209c2.65,12.29732-9.92263,22.689-22.70729,18.76368l-226.557-12.50278a18.76814,18.76814,0,0,0-11.42621.02521L526.39852,663.1272a18.77524,18.77524,0,0,1-11.599.01573l-191.17531-5.82409a18.774,18.774,0,0,0-11.03246-.01637L87.12645,669.79212c-12.71185,3.8036-25.14766-6.4834-22.60269-18.69786L159.7052,194.2086A16.94518,16.94518,0,0,1,172.99117,181.38328Z" transform="translate(-21.24983 -90.12662)" fill="#ebebeb"/><path d="M174.49841,182.354l185.5809-39.92354a18.70414,18.70414,0,0,1,8.38988.12115l147.82234,36.33993a18.72026,18.72026,0,0,0,8.66554.06023l157.85131-36.4814a18.71776,18.71776,0,0,1,8.7178.07372l174.99506,43.56706a16.82886,16.82886,0,0,1,12.62793,12.53357l96.977,450.09609c2.63854,12.24412-9.8797,22.59078-22.609,18.6825l-225.57667-12.873a18.68689,18.68689,0,0,0-11.37675.02661l-190.18714,7.43555a18.694,18.694,0,0,1-11.54881.0166l-190.34812-6.14765a18.69259,18.69259,0,0,0-10.98473-.01728L89.00521,668.64953c-12.65687,3.78713-25.03886-6.45535-22.5049-18.617l94.76959-454.90876A16.87186,16.87186,0,0,1,174.49841,182.354Z" transform="translate(-21.24983 -90.12662)" fill="#eaeaea"/><path d="M176.00564,183.32466l184.7744-39.75a18.62284,18.62284,0,0,1,8.35343.12063l147.17993,36.182a18.63891,18.63891,0,0,0,8.62788.06l157.16532-36.32285a18.63672,18.63672,0,0,1,8.67994.07339L865.0211,187.0655a16.75568,16.75568,0,0,1,12.57306,12.4791l96.55557,448.14008c2.62705,12.19092-9.83677,22.4926-22.5108,18.60132L727.04257,653.04285a18.60565,18.60565,0,0,0-11.32729.028l-189.36067,7.8269a18.61278,18.61278,0,0,1-11.49861.01748L325.33507,654.444a18.61118,18.61118,0,0,0-10.937-.01819L90.884,667.50693c-12.6019,3.77065-24.93007-6.4273-22.4071-18.53607L162.83462,196.039A16.79854,16.79854,0,0,1,176.00564,183.32466Z" transform="translate(-21.24983 -90.12662)" fill="#e9e9e9"/><path d="M177.51287,184.29535l183.9679-39.57653a18.54155,18.54155,0,0,1,8.317.1201L516.33528,180.863a18.55756,18.55756,0,0,0,8.59022.05968l156.47934-36.1643a18.55568,18.55568,0,0,1,8.64207.07305l173.474,43.18844a16.6825,16.6825,0,0,1,12.5182,12.42462l96.13413,446.18408c2.61557,12.13773-9.79384,22.39442-22.41255,18.52014L726.14467,651.53539a18.5244,18.5244,0,0,0-11.27783.02941L526.33266,659.783a18.53155,18.53155,0,0,1-11.44842.01835L326.1905,653.00662a18.52978,18.52978,0,0,0-10.88925-.0191L92.76274,666.36433c-12.54692,3.75418-24.82127-6.39925-22.3093-18.45517l93.94589-450.955A16.72523,16.72523,0,0,1,177.51287,184.29535Z" transform="translate(-21.24983 -90.12662)" fill="#e8e8e8"/><path d="M179.02011,185.266l183.16141-39.403a18.46026,18.46026,0,0,1,8.28052.11958l145.89512,35.86617a18.47621,18.47621,0,0,0,8.55256.0594l155.79335-36.00576a18.47464,18.47464,0,0,1,8.6042.07272l172.71354,42.99914a16.60931,16.60931,0,0,1,12.46334,12.37015l95.71269,444.22808c2.60408,12.08453-9.75091,22.29625-22.31431,18.439L725.24678,650.02792a18.44316,18.44316,0,0,0-11.22837.03081L526.3107,658.66832a18.45033,18.45033,0,0,1-11.39823.01923l-187.86654-7.11833a18.44838,18.44838,0,0,0-10.84152-.02L94.6415,665.22174c-12.49195,3.7377-24.71248-6.3712-22.2115-18.37427l93.534-448.978A16.65191,16.65191,0,0,1,179.02011,185.266Z" transform="translate(-21.24983 -90.12662)" fill="#e7e7e7"/><path d="M180.52734,186.23673l182.35491-39.22953a18.379,18.379,0,0,1,8.24407.11906L516.379,182.8345a18.39486,18.39486,0,0,0,8.5149.05912l155.10736-35.84721a18.3936,18.3936,0,0,1,8.56633.07239l171.953,42.80983a16.53613,16.53613,0,0,1,12.40848,12.31567L968.2204,644.51637c2.59259,12.03133-9.708,22.19807-22.21606,18.35778l-221.65545-14.3537a18.36192,18.36192,0,0,0-11.1789.03221L526.28875,657.5536a18.3691,18.3691,0,0,1-11.348.0201L327.90137,650.1318a18.367,18.367,0,0,0-10.79378-.02092L96.52026,664.07914c-12.437,3.72123-24.60368-6.34315-22.11371-18.29338l93.12219-447.00115A16.57859,16.57859,0,0,1,180.52734,186.23673Z" transform="translate(-21.24983 -90.12662)" fill="#e6e6e6"/><path d="M182.03457,187.20742l181.54841-39.056a18.29767,18.29767,0,0,1,8.20761.11853l144.6103,35.55032a18.31351,18.31351,0,0,0,8.47724.05884l154.42137-35.68866a18.31256,18.31256,0,0,1,8.52847.07205L859.02052,190.883a16.463,16.463,0,0,1,12.35362,12.26119L966.244,643.46027c2.58111,11.97814-9.66506,22.09989-22.11781,18.2766L723.451,647.013a18.28068,18.28068,0,0,0-11.12944.03361l-186.05476,9.39228a18.28787,18.28787,0,0,1-11.29785.021L328.7568,648.69439a18.28557,18.28557,0,0,0-10.746-.02183L98.399,662.93655c-12.382,3.70475-24.49489-6.3151-22.01591-18.21248l92.71034-445.02424A16.50528,16.50528,0,0,1,182.03457,187.20742Z" transform="translate(-21.24983 -90.12662)" fill="#e5e5e5"/><path d="M183.54181,188.1781l180.74192-38.88253a18.21638,18.21638,0,0,1,8.17116.118l143.9679,35.3924a18.23216,18.23216,0,0,0,8.43958.05856l153.73538-35.53011a18.23152,18.23152,0,0,1,8.4906.07172l170.432,42.43122a16.38976,16.38976,0,0,1,12.29876,12.20672l94.44837,438.36008c2.56962,11.92494-9.62213,22.00171-22.01957,18.19542L722.55311,645.50552a18.19944,18.19944,0,0,0-11.08.035l-185.22829,9.78362a18.20665,18.20665,0,0,1-11.24766.02185l-185.385-8.089a18.20417,18.20417,0,0,0-10.69831-.02274L100.27778,661.794c-12.327,3.68828-24.38609-6.287-21.91811-18.13158L170.65815,200.615A16.432,16.432,0,0,1,183.54181,188.1781Z" transform="translate(-21.24983 -90.12662)" fill="#e4e4e4"/><path d="M185.049,189.14879l179.93542-38.709a18.13508,18.13508,0,0,1,8.13471.11749l143.32549,35.23448a18.15081,18.15081,0,0,0,8.40192.05828L677.896,150.47845a18.15048,18.15048,0,0,1,8.45273.07139l169.67153,42.24191a16.31658,16.31658,0,0,1,12.2439,12.15224l94.02694,436.40408c2.55814,11.87174-9.5792,21.90354-21.92132,18.11424L721.65522,643.99805a18.1182,18.1182,0,0,0-11.03052.03641l-184.40181,10.175a18.12542,18.12542,0,0,1-11.19746.02272l-184.55776-8.41257a18.12276,18.12276,0,0,0-10.65057-.02365L102.15654,660.65135c-12.272,3.6718-24.2773-6.259-21.82032-18.05069l91.88664-441.07044A16.35864,16.35864,0,0,1,185.049,189.14879Z" transform="translate(-21.24983 -90.12662)" fill="#e3e3e3"/><path d="M186.55628,190.11948,365.6852,151.584a18.05379,18.05379,0,0,1,8.09825.117l142.68309,35.07656a18.06945,18.06945,0,0,0,8.36426.058l152.36341-35.213a18.06945,18.06945,0,0,1,8.41486.07105l168.911,42.05261a16.24339,16.24339,0,0,1,12.189,12.09777L960.31463,640.292c2.54665,11.81855-9.53627,21.80536-21.82307,18.03307L720.75733,642.49059a18.037,18.037,0,0,0-10.98106.03781L526.20093,653.09471a18.0442,18.0442,0,0,1-11.14727.0236l-183.73057-8.73614a18.04136,18.04136,0,0,0-10.60284-.02456l-216.685,15.15115c-12.21707,3.65533-24.1685-6.23095-21.72252-17.96979l91.47479-439.09353A16.28533,16.28533,0,0,1,186.55628,190.11948Z" transform="translate(-21.24983 -90.12662)" fill="#e2e2e2"/><path d="M188.06351,191.09017l178.32243-38.362a17.9725,17.9725,0,0,1,8.0618.11644l142.04068,34.91864a17.9881,17.9881,0,0,0,8.3266.05772l151.67742-35.05447a17.9884,17.9884,0,0,1,8.377.07072L853.02,194.7005a16.17021,16.17021,0,0,1,12.13417,12.04329l93.18406,432.49208c2.53516,11.76535-9.49334,21.70718-21.72483,17.95189L719.85944,640.98312a17.95573,17.95573,0,0,0-10.9316.03921L526.179,651.98a17.963,17.963,0,0,1-11.09708.02447l-182.90337-9.0597a17.96,17.96,0,0,0-10.5551-.02547L105.91406,658.36616c-12.16209,3.63885-24.05971-6.2029-21.62472-17.88889l91.06294-437.11663A16.212,16.212,0,0,1,188.06351,191.09017Z" transform="translate(-21.24983 -90.12662)" fill="#e1e1e1"/><path d="M189.57074,192.06086l177.51593-38.18853a17.8912,17.8912,0,0,1,8.02535.11592L516.5103,188.749a17.90675,17.90675,0,0,0,8.28894.05744l150.99143-34.89592a17.90736,17.90736,0,0,1,8.33913.07039l167.39,41.674a16.097,16.097,0,0,1,12.07931,11.98882l92.76262,430.53607c2.52368,11.71215-9.45041,21.609-21.62658,17.87071L718.96155,639.47566a17.87449,17.87449,0,0,0-10.88214.04061L526.157,650.86527a17.88175,17.88175,0,0,1-11.04689.02534L333.034,641.50736a17.87856,17.87856,0,0,0-10.50736-.02638L107.79282,657.22357c-12.10711,3.62238-23.95091-6.17485-21.52693-17.808L176.917,204.27584A16.13869,16.13869,0,0,1,189.57074,192.06086Z" transform="translate(-21.24983 -90.12662)" fill="#e0e0e0"/><path d="M191.078,193.03155l176.70944-38.015a17.80991,17.80991,0,0,1,7.98889.1154l140.75587,34.6028a17.8254,17.8254,0,0,0,8.25128.05716L675.0889,155.0545a17.82632,17.82632,0,0,1,8.30126.07006l166.62951,41.48469a16.02384,16.02384,0,0,1,12.02445,11.93434L954.3853,637.12366c2.51219,11.659-9.40748,21.51083-21.52833,17.78953l-214.79331-16.945a17.79326,17.79326,0,0,0-10.83268.042L526.13507,649.75055a17.80053,17.80053,0,0,1-10.9967.02622l-181.249-9.70682a17.79716,17.79716,0,0,0-10.45963-.02729L109.67158,656.081c-12.05214,3.6059-23.84212-6.14679-21.42913-17.7271L178.48169,205.191A16.06538,16.06538,0,0,1,191.078,193.03155Z" transform="translate(-21.24983 -90.12662)" fill="#dfdfdf"/><path d="M192.58521,194.00224l175.90294-37.84153a17.72862,17.72862,0,0,1,7.95244.11487l140.11346,34.44488a17.74405,17.74405,0,0,0,8.21362.05688l149.61945-34.57883a17.74529,17.74529,0,0,1,8.26339.06972l165.869,41.29538a15.95066,15.95066,0,0,1,11.96959,11.87987l91.91974,426.62407c2.5007,11.60576-9.36456,21.41265-21.43009,17.70835l-213.813-17.31518a17.712,17.712,0,0,0-10.78322.04341L526.11311,648.63583a17.7193,17.7193,0,0,1-10.94651.02709L334.74482,638.63254a17.71576,17.71576,0,0,0-10.41189-.0282l-212.78258,16.334C99.55318,658.5278,87.817,648.81963,90.219,637.29217L180.0464,206.10625A15.99206,15.99206,0,0,1,192.58521,194.00224Z" transform="translate(-21.24983 -90.12662)" fill="#dedede"/><path d="M194.09244,194.97293l175.09644-37.668a17.64733,17.64733,0,0,1,7.916.11435l139.47105,34.287a17.6627,17.6627,0,0,0,8.176.0566l148.93346-34.42028a17.66424,17.66424,0,0,1,8.22553.06939L847.01938,198.518a15.87748,15.87748,0,0,1,11.91473,11.82539l91.49831,424.66807c2.48922,11.55256-9.32163,21.31447-21.33184,17.62717l-212.8327-17.68537a17.63079,17.63079,0,0,0-10.73376.04481l-179.443,12.523a17.63808,17.63808,0,0,1-10.89631.028l-179.5946-10.35394a17.63436,17.63436,0,0,0-10.36415-.02911l-211.807,16.62975c-11.94219,3.573-23.62453-6.09069-21.23354-17.56531l89.41553-429.209A15.91874,15.91874,0,0,1,194.09244,194.97293Z" transform="translate(-21.24983 -90.12662)" fill="#ddd"/><path d="M195.59968,195.94362l174.28995-37.49452a17.566,17.566,0,0,1,7.87953.11383l138.82865,34.129a17.58135,17.58135,0,0,0,8.1383.05632l148.24748-34.26173a17.5832,17.5832,0,0,1,8.18766.06906l164.348,40.91677a15.80429,15.80429,0,0,1,11.85987,11.77092L948.456,633.95536c2.47773,11.49937-9.2787,21.21629-21.23359,17.546L715.37,633.44579a17.54956,17.54956,0,0,0-10.6843.04621L526.0692,646.40639a17.55686,17.55686,0,0,1-10.84612.02884l-178.7674-10.6775a17.553,17.553,0,0,0-10.31642-.03l-210.8314,16.92548c-11.88721,3.55648-23.51573-6.06264-21.13574-17.48441l89.00368-427.23211A15.84543,15.84543,0,0,1,195.59968,195.94362Z" transform="translate(-21.24983 -90.12662)" fill="#dcdcdc"/><path d="M197.10691,196.9143l173.48345-37.321a17.48474,17.48474,0,0,1,7.84308.11331L516.61968,193.6777a17.5,17.5,0,0,0,8.10064.056l147.56149-34.10318a17.50216,17.50216,0,0,1,8.14979.06872L844.0191,200.42675a15.73111,15.73111,0,0,1,11.805,11.71644l90.65543,420.75607c2.46625,11.44617-9.23577,21.11812-21.13535,17.46481L714.47209,631.93833a17.46833,17.46833,0,0,0-10.63484.04761l-177.79,13.30573a17.47564,17.47564,0,0,1-10.79593.02971L337.31111,634.32032a17.47157,17.47157,0,0,0-10.26868-.03093l-209.8558,17.2212c-11.83223,3.54-23.40694-6.03459-21.03794-17.40352l88.59183-425.25521A15.77211,15.77211,0,0,1,197.10691,196.9143Z" transform="translate(-21.24983 -90.12662)" fill="#dbdbdb"/><path d="M198.61414,197.885l172.677-37.14752a17.40345,17.40345,0,0,1,7.80663.11278l137.54383,33.81319a17.41865,17.41865,0,0,0,8.063.05576L671.58,160.77458a17.42113,17.42113,0,0,1,8.11192.06839l162.827,40.53815a15.65793,15.65793,0,0,1,11.75015,11.662l90.234,418.80007c2.45476,11.393-9.19284,21.01994-21.0371,17.38363L713.5742,630.43086a17.3871,17.3871,0,0,0-10.58537.049L526.0253,644.17695a17.39442,17.39442,0,0,1-10.74574.03059l-177.113-11.32462a17.39017,17.39017,0,0,0-10.22094-.03184L119.06539,650.368c-11.77726,3.52353-23.29814-6.00654-20.94015-17.32262l88.18-423.27831A15.69879,15.69879,0,0,1,198.61414,197.885Z" transform="translate(-21.24983 -90.12662)" fill="#dadada"/><path d="M200.12138,198.85568l171.87046-36.974a17.32215,17.32215,0,0,1,7.77017.11226l136.90143,33.65527a17.3373,17.3373,0,0,0,8.02532.05549l146.18951-33.78609a17.34008,17.34008,0,0,1,8.07406.06806L841.01881,202.3355A15.58474,15.58474,0,0,1,852.7141,213.943l89.81255,416.84407c2.44327,11.33978-9.14991,20.92176-20.93885,17.30245L712.67631,628.92339a17.30587,17.30587,0,0,0-10.53591.05041L526.00334,643.06223a17.3132,17.3132,0,0,1-10.69555.03146L339.022,631.44551a17.30877,17.30877,0,0,0-10.17321-.03275L120.94415,649.22539c-11.72228,3.50705-23.18935-5.97849-20.84235-17.24172l87.76813-421.30141A15.62547,15.62547,0,0,1,200.12138,198.85568Z" transform="translate(-21.24983 -90.12662)" fill="#d9d9d9"/><path d="M201.62861,199.82637l171.064-36.80052a17.24086,17.24086,0,0,1,7.73372.11174l136.259,33.49735a17.25594,17.25594,0,0,0,7.98766.05521L670.1765,163.0626a17.259,17.259,0,0,1,8.03619.06772l161.306,40.15954a15.51156,15.51156,0,0,1,11.64042,11.553L940.5502,629.731c2.43179,11.28658-9.107,20.82359-20.84061,17.22127L711.77842,627.41593a17.22464,17.22464,0,0,0-10.48645.05181L525.98139,641.9475a17.232,17.232,0,0,1-10.64536.03233L339.87741,630.0081a17.22737,17.22737,0,0,0-10.12547-.03366l-206.929,18.10836c-11.66731,3.49058-23.08055-5.95044-20.74455-17.16083l87.35628-419.3245A15.55216,15.55216,0,0,1,201.62861,199.82637Z" transform="translate(-21.24983 -90.12662)" fill="#d8d8d8"/><path d="M203.13584,200.79706,373.39331,164.17a17.15957,17.15957,0,0,1,7.69727.11121l135.61661,33.33943a17.17459,17.17459,0,0,0,7.95.05493l144.81753-33.469a17.178,17.178,0,0,1,7.99832.06739l160.54547,39.97024a15.43838,15.43838,0,0,1,11.58556,11.49854l88.96968,412.93206c2.4203,11.23338-9.06406,20.72541-20.74236,17.14009L710.88053,625.90846a17.14342,17.14342,0,0,0-10.437.05321l-174.4841,14.87111a17.15076,17.15076,0,0,1-10.59517.03321l-174.63143-12.2953a17.146,17.146,0,0,0-10.07774-.03457L124.70167,646.9402c-11.61233,3.4741-22.97176-5.92239-20.64676-17.07993l86.94443-417.3476A15.47884,15.47884,0,0,1,203.13584,200.79706Z" transform="translate(-21.24983 -90.12662)" fill="#d8d8d8"/><path d="M204.64308,201.76775l169.451-36.45352a17.07828,17.07828,0,0,1,7.66081.11069l134.97421,33.18151a17.09324,17.09324,0,0,0,7.91234.05465L668.773,165.35063a17.097,17.097,0,0,1,7.96045.06706l159.785,39.78093a15.36519,15.36519,0,0,1,11.5307,11.44406l88.54824,410.97606c2.40881,11.18019-9.02113,20.62723-20.64412,17.05891L709.98264,624.401a17.0622,17.0622,0,0,0-10.38753.05462L525.93748,639.71806a17.06954,17.06954,0,0,1-10.545.03408L341.58827,627.13328a17.06458,17.06458,0,0,0-10.03-.03548l-204.97784,18.6998c-11.55736,3.45763-22.863-5.89434-20.549-16.999l86.53258-415.3707A15.40552,15.40552,0,0,1,204.64308,201.76775Z" transform="translate(-21.24983 -90.12662)" fill="#d7d7d7"/><path d="M206.15031,202.73844l168.64447-36.28a16.997,16.997,0,0,1,7.62436.11017l134.3318,33.02359a17.01189,17.01189,0,0,0,7.87468.05437l143.44556-33.15189a17.01593,17.01593,0,0,1,7.92259.06672L835.01824,206.153a15.292,15.292,0,0,1,11.47584,11.38959l88.1268,409.02006c2.39733,11.127-8.9782,20.52905-20.54587,16.97773L709.08474,622.89353a16.981,16.981,0,0,0-10.33807.056l-172.83115,15.6538a16.98832,16.98832,0,0,1-10.49478.035l-172.977-12.94242a16.98319,16.98319,0,0,0-9.98226-.03639L128.45919,644.655c-11.50238,3.44115-22.75417-5.86629-20.45116-16.91814l86.12073-413.39379A15.33221,15.33221,0,0,1,206.15031,202.73844Z" transform="translate(-21.24983 -90.12662)" fill="#d6d6d6"/><path d="M207.65754,203.70913l167.838-36.10652a16.91569,16.91569,0,0,1,7.58791.10965l133.6894,32.86566a16.93054,16.93054,0,0,0,7.837.05409l142.75957-32.99335a16.93489,16.93489,0,0,1,7.88472.06639l158.264,39.40232a15.21883,15.21883,0,0,1,11.421,11.33511l87.70536,407.06406c2.38584,11.07379-8.93527,20.43088-20.44762,16.89655l-204.01-21.017a16.89975,16.89975,0,0,0-10.28861.05742L525.89357,637.48862a16.9071,16.9071,0,0,1-10.44459.03583l-172.14985-13.266a16.90179,16.90179,0,0,0-9.93453-.0373L130.338,643.51241c-11.4474,3.42468-22.64537-5.83824-20.35336-16.83724l85.70888-411.41689A15.25889,15.25889,0,0,1,207.65754,203.70913Z" transform="translate(-21.24983 -90.12662)" fill="#d5d5d5"/><path d="M209.16478,204.67982l167.03148-35.933a16.83439,16.83439,0,0,1,7.55145.10912l133.047,32.70774a16.84919,16.84919,0,0,0,7.79936.05381l142.07358-32.8348a16.85385,16.85385,0,0,1,7.84685.06606l157.50345,39.213a15.14564,15.14564,0,0,1,11.36612,11.28064L930.668,624.45044c2.37435,11.0206-8.89234,20.3327-20.34938,16.81538L707.289,619.8786a16.81853,16.81853,0,0,0-10.23915.05882L525.87162,636.3739a16.82588,16.82588,0,0,1-10.3944.0367L344.15456,622.82106a16.8204,16.8204,0,0,0-9.88679-.03821l-202.05106,19.587c-11.39243,3.4082-22.53658-5.81019-20.25557-16.75634l85.297-409.44A15.18557,15.18557,0,0,1,209.16478,204.67982Z" transform="translate(-21.24983 -90.12662)" fill="#d4d4d4"/><path d="M210.672,205.6505,376.897,169.891a16.7531,16.7531,0,0,1,7.515.1086l132.40458,32.54982a16.76784,16.76784,0,0,0,7.7617.05353l141.38759-32.67625a16.77281,16.77281,0,0,1,7.809.06573l156.74295,39.0237a15.07246,15.07246,0,0,1,11.31126,11.22616l86.86248,403.15206c2.36287,10.9674-8.84941,20.23452-20.25113,16.7342L706.39107,618.37113a16.73731,16.73731,0,0,0-10.18969.06022L525.84966,635.25918a16.74467,16.74467,0,0,1-10.34421.03758L345.01,621.38365a16.739,16.739,0,0,0-9.83905-.03912L134.09547,641.22722c-11.33745,3.39173-22.42778-5.78214-20.15777-16.67545l84.88518-407.46308A15.11226,15.11226,0,0,1,210.672,205.6505Z" transform="translate(-21.24983 -90.12662)" fill="#d3d3d3"/><path d="M212.17925,206.62119l165.41849-35.586a16.67181,16.67181,0,0,1,7.47855.10808l131.76218,32.3919a16.68649,16.68649,0,0,0,7.724.05325l140.70161-32.5177a16.69177,16.69177,0,0,1,7.77112.06539l155.98244,38.8344a14.99928,14.99928,0,0,1,11.2564,11.17169l86.441,401.19606c2.35138,10.9142-8.80649,20.13634-20.15288,16.653l-201.069-22.12759a16.65609,16.65609,0,0,0-10.14023.06162L525.82771,634.14446a16.66345,16.66345,0,0,1-10.294.03845L345.86542,619.94625a16.65761,16.65761,0,0,0-9.79132-.04L135.97424,640.08463c-11.28248,3.37525-22.319-5.75409-20.06-16.59455l84.47333-405.48618A15.03894,15.03894,0,0,1,212.17925,206.62119Z" transform="translate(-21.24983 -90.12662)" fill="#d2d2d2"/><path d="M213.68648,207.59188l164.612-35.41251a16.59052,16.59052,0,0,1,7.44209.10755l131.11977,32.234a16.60514,16.60514,0,0,0,7.68638.053l140.01562-32.35915a16.61073,16.61073,0,0,1,7.73325.06506l155.22194,38.64509a14.92609,14.92609,0,0,1,11.20153,11.11721l86.01961,399.24006c2.3399,10.861-8.76356,20.03817-20.05464,16.57184L704.59529,615.3562a16.57487,16.57487,0,0,0-10.09077.063L525.80575,633.02974a16.58224,16.58224,0,0,1-10.24382.03933L346.72086,618.50884a16.57622,16.57622,0,0,0-9.74358-.04094L137.853,638.942c-11.2275,3.35878-22.21019-5.726-19.96218-16.51365L201.9523,218.9191A14.96562,14.96562,0,0,1,213.68648,207.59188Z" transform="translate(-21.24983 -90.12662)" fill="#d1d1d1"/><path d="M215.19371,208.56257l163.80549-35.239a16.50922,16.50922,0,0,1,7.40564.107l130.47736,32.07606a16.52379,16.52379,0,0,0,7.64872.05269l139.32963-32.20061a16.52969,16.52969,0,0,1,7.69538.06473l154.46144,38.45579A14.85291,14.85291,0,0,1,837.16405,222.942L922.76222,620.226c2.32841,10.80781-8.72063,19.94-19.95639,16.49066l-199.10843-22.868a16.49366,16.49366,0,0,0-10.04131.06442L525.7838,631.915a16.501,16.501,0,0,1-10.19363.0402L347.57629,617.07143a16.49483,16.49483,0,0,0-9.69584-.04185L139.73176,637.79944c-11.17252,3.3423-22.1014-5.698-19.86438-16.43276L203.517,219.8343A14.89231,14.89231,0,0,1,215.19371,208.56257Z" transform="translate(-21.24983 -90.12662)" fill="#d0d0d0"/><path d="M216.70095,209.53326l162.999-35.06551a16.42793,16.42793,0,0,1,7.36919.10651l129.835,31.91814a16.44243,16.44243,0,0,0,7.61106.05241l138.64364-32.04206a16.44865,16.44865,0,0,1,7.65751.06439l153.70093,38.26648a14.77973,14.77973,0,0,1,11.09181,11.00826l85.17673,395.32805c2.31692,10.75461-8.6777,19.84181-19.85814,16.40948L702.79951,612.34127a16.41244,16.41244,0,0,0-9.99184.06582L525.76184,630.8003a16.41981,16.41981,0,0,1-10.14344.04107L348.43172,615.634a16.41344,16.41344,0,0,0-9.64811-.04276L141.61052,636.65684c-11.11755,3.32582-21.9926-5.66993-19.76658-16.35186l83.23778-399.55547A14.819,14.819,0,0,1,216.70095,209.53326Z" transform="translate(-21.24983 -90.12662)" fill="#cfcfcf"/><path d="M218.20818,210.50395l162.1925-34.892a16.34664,16.34664,0,0,1,7.33273.106L516.926,207.47814a16.36108,16.36108,0,0,0,7.5734.05213L662.457,175.64676a16.36761,16.36761,0,0,1,7.61965.06406L823.0171,213.788a14.70654,14.70654,0,0,1,11.037,10.95379l84.75529,393.37205c2.30544,10.70142-8.63477,19.74363-19.7599,16.3283L701.90162,610.8338a16.33123,16.33123,0,0,0-9.94238.06722L525.73989,629.68558a16.33859,16.33859,0,0,1-10.09325.04195L349.28715,614.19662a16.33205,16.33205,0,0,0-9.60037-.04367l-196.1975,21.36129c-11.06257,3.30935-21.88381-5.64188-19.66879-16.271l82.82593-397.57857A14.74567,14.74567,0,0,1,218.20818,210.50395Z" transform="translate(-21.24983 -90.12662)" fill="#cecece"/><path d="M219.71541,211.47464l161.386-34.71851a16.26534,16.26534,0,0,1,7.29628.10546l128.55014,31.60229a16.27973,16.27973,0,0,0,7.53574.05185l137.27166-31.725a16.28657,16.28657,0,0,1,7.58178.06373L821.517,214.74237A14.63336,14.63336,0,0,1,832.499,225.64168L916.8329,617.05773c2.294,10.64822-8.59184,19.64546-19.66165,16.24712L701.00373,609.32633a16.25,16.25,0,0,0-9.89292.06862l-165.39287,19.1759a16.25738,16.25738,0,0,1-10.04306.04282l-165.5323-15.85447a16.25066,16.25066,0,0,0-9.55264-.04458L145.368,634.37165c-11.0076,3.29287-21.775-5.61383-19.571-16.19007l82.41408-395.60167A14.67235,14.67235,0,0,1,219.71541,211.47464Z" transform="translate(-21.24983 -90.12662)" fill="#cdcdcd"/><path d="M221.22265,212.44533l160.57951-34.545a16.18405,16.18405,0,0,1,7.25983.10494l127.90774,31.44437a16.19838,16.19838,0,0,0,7.49808.05157l136.58568-31.56641a16.20553,16.20553,0,0,1,7.54391.06339l151.41942,37.69856A14.56018,14.56018,0,0,1,830.944,226.54158l83.91241,389.46c2.28246,10.595-8.54891,19.54728-19.5634,16.16594l-195.18721-24.3487a16.16881,16.16881,0,0,0-9.84346.07L525.696,627.45613a16.17617,16.17617,0,0,1-9.99287.04369L350.998,611.3218a16.16927,16.16927,0,0,0-9.5049-.04549L147.2468,633.22905c-10.95262,3.2764-21.66622-5.58578-19.47319-16.10917l82.00223-393.62476A14.599,14.599,0,0,1,221.22265,212.44533Z" transform="translate(-21.24983 -90.12662)" fill="#ccc"/><path d="M222.72988,213.416l159.773-34.37151a16.10276,16.10276,0,0,1,7.22337.10442L516.9916,210.43538a16.117,16.117,0,0,0,7.46042.05129L660.35171,179.0788a16.12449,16.12449,0,0,1,7.506.06306l150.65891,37.50925A14.487,14.487,0,0,1,829.389,227.44148l83.491,387.504c2.271,10.54183-8.506,19.4491-19.46516,16.08476L699.20794,606.3114a16.0876,16.0876,0,0,0-9.794.07142L525.674,626.34141a16.095,16.095,0,0,1-9.94268.04457L351.85344,609.88439a16.08788,16.08788,0,0,0-9.45716-.0464L149.12556,632.08646c-10.89764,3.25992-21.55742-5.55773-19.3754-16.02828l81.59038-391.64786A14.52572,14.52572,0,0,1,222.72988,213.416Z" transform="translate(-21.24983 -90.12662)" fill="#cbcbcb"/><path d="M224.23711,214.3867l158.96652-34.198a16.02147,16.02147,0,0,1,7.18692.10389l126.62293,31.12853a16.03568,16.03568,0,0,0,7.42276.051l135.2137-31.24932a16.04345,16.04345,0,0,1,7.46818.06273l149.89841,37.31995A14.41381,14.41381,0,0,1,827.834,228.34138l83.06954,385.548c2.25949,10.48863-8.46306,19.35092-19.36691,16.00358l-193.2266-25.08907a16.00639,16.00639,0,0,0-9.74454.07282L525.65207,625.22669a16.01374,16.01374,0,0,1-9.89248.04544L352.70887,608.447a16.0065,16.0065,0,0,0-9.40943-.04731L151.00432,630.94386c-10.84267,3.24345-21.44862-5.52968-19.2776-15.94738l81.17853-389.671A14.4524,14.4524,0,0,1,224.23711,214.3867Z" transform="translate(-21.24983 -90.12662)" fill="#cacaca"/><path d="M225.74435,215.35739l158.16-34.02451a15.94017,15.94017,0,0,1,7.15047.10337l125.98052,30.97061a15.95433,15.95433,0,0,0,7.3851.05074l134.52771-31.09077a15.96241,15.96241,0,0,1,7.43031.06239l149.1379,37.13064A14.34062,14.34062,0,0,1,826.279,229.24128l82.6481,383.592c2.248,10.43543-8.42013,19.25275-19.26866,15.9224l-192.2463-25.45926a15.92518,15.92518,0,0,0-9.69508.07422L525.63012,624.112a15.93253,15.93253,0,0,1-9.84229.04632L353.56431,607.00958a15.92511,15.92511,0,0,0-9.36169-.04821l-191.31953,22.8399c-10.78769,3.227-21.33983-5.50163-19.1798-15.86648L214.47,226.24073A14.37909,14.37909,0,0,1,225.74435,215.35739Z" transform="translate(-21.24983 -90.12662)" fill="#c9c9c9"/><path d="M227.25158,216.32808l157.35352-33.851a15.85888,15.85888,0,0,1,7.114.10285l125.33811,30.81269a15.873,15.873,0,0,0,7.34744.05046L658.2464,182.51085a15.88137,15.88137,0,0,1,7.39244.06206l148.3774,36.94134A14.26744,14.26744,0,0,1,824.724,230.14118l82.22666,381.636c2.23652,10.38224-8.3772,19.15457-19.17042,15.84122L696.51427,601.789a15.844,15.844,0,0,0-9.64562.07562L525.60817,622.99725a15.85132,15.85132,0,0,1-9.7921.04719L354.41974,605.57217a15.84372,15.84372,0,0,0-9.314-.04912L154.76184,628.65867c-10.73272,3.2105-21.231-5.47358-19.082-15.78559l80.35483-385.71715A14.30577,14.30577,0,0,1,227.25158,216.32808Z" transform="translate(-21.24983 -90.12662)" fill="#c8c8c8"/><path d="M228.75881,217.29877l156.547-33.6775a15.77758,15.77758,0,0,1,7.07756.10232l124.69571,30.65477a15.79163,15.79163,0,0,0,7.30978.05018l133.15573-30.77368a15.80033,15.80033,0,0,1,7.35457.06173l147.61689,36.752A14.19426,14.19426,0,0,1,823.169,231.04108l81.80522,379.68c2.225,10.329-8.33427,19.05639-19.07217,15.76L695.61638,600.28154a15.76278,15.76278,0,0,0-9.59616.077l-160.434,21.524a15.77011,15.77011,0,0,1-9.74191.04806L355.27517,604.13476a15.76234,15.76234,0,0,0-9.26622-.05L156.6406,627.51607c-10.67774,3.194-21.12224-5.44553-18.98421-15.70469l79.943-383.74025A14.23245,14.23245,0,0,1,228.75881,217.29877Z" transform="translate(-21.24983 -90.12662)" fill="#c7c7c7"/><path d="M230.266,218.26946l155.74053-33.504a15.69629,15.69629,0,0,1,7.04111.1018L517.101,215.3641a15.71028,15.71028,0,0,0,7.27212.0499l132.46975-30.61513a15.71929,15.71929,0,0,1,7.31671.06139L811.016,221.423A14.12108,14.12108,0,0,1,821.614,231.941L902.9978,609.665c2.21355,10.27584-8.29134,18.95821-18.97393,15.67886L694.71849,598.77407a15.68157,15.68157,0,0,0-9.5467.07842L525.56426,620.76781a15.6889,15.6889,0,0,1-9.69172.04894L356.1306,602.69736a15.681,15.681,0,0,0-9.21848-.05094L158.51937,626.37348C147.8966,629.551,137.50592,620.956,139.633,610.74968l79.53112-381.76334A14.15914,14.15914,0,0,1,230.266,218.26946Z" transform="translate(-21.24983 -90.12662)" fill="#c6c6c6"/><path d="M231.77328,219.24015l154.934-33.3305a15.615,15.615,0,0,1,7.00465.10128l123.41089,30.33893a15.62892,15.62892,0,0,0,7.23446.04962l131.78376-30.45658a15.63825,15.63825,0,0,1,7.27884.06106l146.09589,36.37342a14.04789,14.04789,0,0,1,10.5432,10.46351l80.96235,375.768c2.20206,10.22265-8.24841,18.86-18.87568,15.59768l-188.32508-26.94a15.60037,15.60037,0,0,0-9.49724.07982L525.5423,619.65309a15.60769,15.60769,0,0,1-9.64153.04981L356.986,601.25995a15.59957,15.59957,0,0,0-9.17074-.05185L160.39813,625.23088c-10.56779,3.16107-20.90465-5.38943-18.78862-15.5429l79.11927-379.78644A14.08582,14.08582,0,0,1,231.77328,219.24015Z" transform="translate(-21.24983 -90.12662)" fill="#c5c5c5"/><path d="M233.28051,220.21084l154.12754-33.157a15.53371,15.53371,0,0,1,6.9682.10076l122.76849,30.181a15.54757,15.54757,0,0,0,7.1968.04934l131.09777-30.298a15.55721,15.55721,0,0,1,7.241.06073l145.33538,36.18411a13.97471,13.97471,0,0,1,10.48834,10.409l80.54091,373.812c2.19057,10.16945-8.20549,18.76186-18.77743,15.51651L692.92271,595.75914a15.51918,15.51918,0,0,0-9.44778.08122l-157.95458,22.698a15.52648,15.52648,0,0,1-9.59133.05069L357.84146,599.82254a15.51819,15.51819,0,0,0-9.123-.05276L162.27689,624.08828c-10.51281,3.1446-20.79585-5.36138-18.69082-15.462l78.70742-377.80954A14.0125,14.0125,0,0,1,233.28051,220.21084Z" transform="translate(-21.24983 -90.12662)" fill="#c4c4c4"/><path d="M234.78775,221.18153l153.321-32.9835a15.45241,15.45241,0,0,1,6.93175.10023l122.12608,30.02308a15.46622,15.46622,0,0,0,7.15914.04906l130.41178-30.13948a15.47617,15.47617,0,0,1,7.2031.0604l144.57488,35.9948A13.90152,13.90152,0,0,1,816.949,234.64068l80.11947,371.856c2.17909,10.11625-8.16256,18.66368-18.67919,15.43533L692.02482,594.25167a15.438,15.438,0,0,0-9.39831.08262L525.49839,617.42365a15.44528,15.44528,0,0,1-9.54114.05156L358.69689,598.38513a15.4368,15.4368,0,0,0-9.07527-.05367l-185.466,24.61423c-10.45784,3.12812-20.68706-5.33333-18.593-15.38111L223.8582,231.73195A13.93919,13.93919,0,0,1,234.78775,221.18153Z" transform="translate(-21.24983 -90.12662)" fill="#c3c3c3"/><path d="M236.295,222.15221l152.51455-32.81a15.37112,15.37112,0,0,1,6.89529.09971l121.48367,29.86516a15.38487,15.38487,0,0,0,7.12149.04878l129.72579-29.98094a15.39513,15.39513,0,0,1,7.16524.06006l143.81437,35.8055A13.82834,13.82834,0,0,1,815.394,235.54058l79.698,369.9c2.1676,10.06306-8.11963,18.56551-18.58094,15.35415L691.12692,592.74421a15.35678,15.35678,0,0,0-9.34885.084l-156.30163,23.4807a15.36407,15.36407,0,0,1-9.491.05243L359.55233,596.94773a15.35542,15.35542,0,0,0-9.02753-.05458L166.03441,621.80309c-10.40286,3.11165-20.57826-5.30527-18.49522-15.30021l77.88372-373.85573A13.86587,13.86587,0,0,1,236.295,222.15221Z" transform="translate(-21.24983 -90.12662)" fill="#c2c2c2"/><path d="M237.80221,223.1229l151.708-32.6365a15.28983,15.28983,0,0,1,6.85884.09919l120.84127,29.70724a15.30352,15.30352,0,0,0,7.08383.0485L653.334,190.51895a15.31409,15.31409,0,0,1,7.12737.05973l143.05387,35.61619A13.75516,13.75516,0,0,1,813.839,236.44048l79.27659,367.944c2.15612,10.00986-8.0767,18.46733-18.48269,15.273L690.229,591.23674a15.27559,15.27559,0,0,0-9.29939.08542l-155.47515,23.872a15.28286,15.28286,0,0,1-9.44076.05331l-155.606-19.73719a15.274,15.274,0,0,0-8.9798-.05549L167.91317,620.6605c-10.34789,3.09517-20.46947-5.27722-18.39743-15.21931l77.47187-371.87883A13.79255,13.79255,0,0,1,237.80221,223.1229Z" transform="translate(-21.24983 -90.12662)" fill="#c1c1c1"/><path d="M239.30945,224.09359l150.90155-32.463a15.20853,15.20853,0,0,1,6.82239.09866l120.19886,29.54932a15.22217,15.22217,0,0,0,7.04616.04822L652.63223,191.663a15.23305,15.23305,0,0,1,7.0895.0594l142.29336,35.42689A13.682,13.682,0,0,1,812.284,237.34037l78.85515,365.988c2.14463,9.95666-8.03377,18.36915-18.38445,15.19179L689.33114,589.72928a15.1944,15.1944,0,0,0-9.24993.08682L525.43253,614.07948a15.20166,15.20166,0,0,1-9.39057.05418L361.26319,594.07291a15.19266,15.19266,0,0,0-8.93206-.0564L169.79193,619.5179c-10.29291,3.0787-20.36067-5.24917-18.29963-15.13842l77.06-369.90193A13.71924,13.71924,0,0,1,239.30945,224.09359Z" transform="translate(-21.24983 -90.12662)" fill="silver"/><path d="M240.81668,225.06428l150.09506-32.2895a15.12724,15.12724,0,0,1,6.78593.09814l119.55645,29.3914a15.14082,15.14082,0,0,0,7.00851.04794L651.93046,192.807a15.152,15.152,0,0,1,7.05163.05906L800.515,228.10362a13.60879,13.60879,0,0,1,10.214,10.13666l78.43372,364.032c2.13314,9.90347-7.99084,18.271-18.2862,15.11061L688.43325,588.22181a15.1132,15.1132,0,0,0-9.20047.08822l-153.8222,24.65473a15.12045,15.12045,0,0,1-9.34038.05506L362.11862,592.6355a15.11128,15.11128,0,0,0-8.88433-.05731L171.67069,618.3753c-10.23793,3.06222-20.25188-5.22112-18.20183-15.05752l76.64817-367.925A13.64592,13.64592,0,0,1,240.81668,225.06428Z" transform="translate(-21.24983 -90.12662)" fill="#bfbfbf"/><path d="M242.32392,226.035l149.28856-32.116a15.046,15.046,0,0,1,6.74948.09762l118.914,29.23348a15.05947,15.05947,0,0,0,6.97085.04766L651.22869,193.951a15.071,15.071,0,0,1,7.01377.05873L799.01481,229.058A13.53561,13.53561,0,0,1,809.174,239.14017l78.01228,362.076c2.12166,9.85027-7.94791,18.1728-18.188,15.02943L687.53536,586.71434a15.032,15.032,0,0,0-9.151.08962L525.38862,611.85a15.03925,15.03925,0,0,1-9.29019.05593L362.97405,591.1981a15.0299,15.0299,0,0,0-8.83659-.05822l-180.588,26.09283c-10.183,3.04575-20.14308-5.19307-18.104-14.97662L231.68174,236.308A13.5726,13.5726,0,0,1,242.32392,226.035Z" transform="translate(-21.24983 -90.12662)" fill="#bebebe"/><path d="M243.83115,227.00566l148.48206-31.9425a14.96465,14.96465,0,0,1,6.713.0971l118.27164,29.07556a14.97812,14.97812,0,0,0,6.93318.04738L650.52692,195.095a14.98993,14.98993,0,0,1,6.9759.0584l140.01185,34.859A13.46242,13.46242,0,0,1,807.619,240.04007l77.59084,360.12c2.11017,9.79707-7.905,18.07462-18.08971,14.94825L686.63747,585.20688a14.95083,14.95083,0,0,0-9.10155.091L525.36667,610.73532a14.958,14.958,0,0,1-9.24.0568L363.82948,589.76069a14.94853,14.94853,0,0,0-8.78885-.05913L175.42821,616.09011c-10.128,3.02927-20.03429-5.165-18.00624-14.89573l75.82447-363.97122A13.49928,13.49928,0,0,1,243.83115,227.00566Z" transform="translate(-21.24983 -90.12662)" fill="#bdbdbd"/><path d="M245.33838,227.97635l147.67557-31.769a14.88336,14.88336,0,0,1,6.67657.09657l117.62924,28.91764a14.89677,14.89677,0,0,0,6.89553.0471L649.82515,196.239a14.90889,14.90889,0,0,1,6.938.05806l139.25135,34.66966A13.38924,13.38924,0,0,1,806.064,240.94l77.1694,358.164c2.09868,9.74388-7.86206,17.97644-17.99146,14.86707L685.73958,583.69941a14.86964,14.86964,0,0,0-9.05209.09243L525.34471,609.6206a14.87684,14.87684,0,0,1-9.1898.05768l-151.47-21.355a14.86715,14.86715,0,0,0-8.74112-.06L177.307,614.94752c-10.073,3.0128-19.92549-5.137-17.90844-14.81483l75.41262-361.99431A13.426,13.426,0,0,1,245.33838,227.97635Z" transform="translate(-21.24983 -90.12662)" fill="#bcbcbc"/><path d="M246.84562,228.947l146.86907-31.59549a14.80207,14.80207,0,0,1,6.64012.096l116.98683,28.75971a14.81542,14.81542,0,0,0,6.85787.04683L649.12338,197.383a14.82785,14.82785,0,0,1,6.90016.05773l138.49084,34.48035a13.31606,13.31606,0,0,1,9.99459,9.91876l76.748,356.208c2.0872,9.69068-7.81913,17.87826-17.89321,14.78589l-178.522-30.64185a14.78846,14.78846,0,0,0-9.00263.09383l-150.5163,26.22011a14.79564,14.79564,0,0,1-9.13961.05855L365.54034,586.88587a14.78577,14.78577,0,0,0-8.69338-.061l-177.66123,26.98c-10.018,2.99632-19.8167-5.10892-17.81065-14.73393l75.00077-360.01741A13.35265,13.35265,0,0,1,246.84562,228.947Z" transform="translate(-21.24983 -90.12662)" fill="#bbb"/><path d="M248.35285,229.91773l146.06257-31.422a14.72078,14.72078,0,0,1,6.60367.09553l116.34442,28.60179a14.73407,14.73407,0,0,0,6.8202.04655L648.42161,198.527a14.74681,14.74681,0,0,1,6.8623.0574l137.73034,34.291a13.24287,13.24287,0,0,1,9.93973,9.86428l76.32652,354.252c2.07571,9.63748-7.7762,17.78009-17.795,14.70471l-177.54173-31.012a14.70728,14.70728,0,0,0-8.95317.09523L525.30081,607.39116a14.71444,14.71444,0,0,1-9.08942.05943L366.39578,585.44847a14.7044,14.7044,0,0,0-8.64564-.06186L181.0645,612.66232c-9.96305,2.97985-19.7079-5.08087-17.71285-14.653l74.58892-358.04051A13.27933,13.27933,0,0,1,248.35285,229.91773Z" transform="translate(-21.24983 -90.12662)" fill="#bababa"/><path d="M249.86008,230.88841l145.25608-31.24849a14.63948,14.63948,0,0,1,6.56721.095l115.702,28.44387a14.65272,14.65272,0,0,0,6.78255.04627l123.5519-28.554a14.66578,14.66578,0,0,1,6.82443.05706l136.96983,34.10174a13.16969,13.16969,0,0,1,9.88487,9.8098L877.304,595.9357c2.06422,9.58429-7.73327,17.68191-17.69672,14.62353L683.0459,579.177a14.6261,14.6261,0,0,0-8.90371.09663l-148.86335,27.0028a14.63324,14.63324,0,0,1-9.03923.0603L367.25121,584.01106a14.623,14.623,0,0,0-8.59791-.06277l-175.71,27.57144c-9.90808,2.96337-19.59911-5.05282-17.61505-14.57214L239.50527,240.884A13.206,13.206,0,0,1,249.86008,230.88841Z" transform="translate(-21.24983 -90.12662)" fill="#b9b9b9"/><path d="M251.36732,231.8591l144.44958-31.075a14.55819,14.55819,0,0,1,6.53076.09448l115.05961,28.286a14.57137,14.57137,0,0,0,6.74489.046l122.86591-28.39546a14.58474,14.58474,0,0,1,6.78656.05673L790.014,234.78424a13.09651,13.09651,0,0,1,9.83,9.75533l75.48365,350.34c2.05274,9.53109-7.69034,17.58373-17.59848,14.54235L682.148,577.66955a14.54492,14.54492,0,0,0-8.85425.098L525.2569,605.16172a14.552,14.552,0,0,1-8.989.06117L368.10664,582.57365a14.54165,14.54165,0,0,0-8.55017-.06368L184.822,610.37713c-9.8531,2.9469-19.49031-5.02477-17.51726-14.49124L241.07,241.79919A13.1327,13.1327,0,0,1,251.36732,231.8591Z" transform="translate(-21.24983 -90.12662)" fill="#b8b8b8"/><path d="M252.87455,232.82979,396.51763,201.9283a14.4769,14.4769,0,0,1,6.49431.094l114.4172,28.128a14.49,14.49,0,0,0,6.70723.04571l122.17992-28.23691a14.5037,14.5037,0,0,1,6.74869.0564l135.44882,33.72313a13.02332,13.02332,0,0,1,9.77514,9.70085l75.06221,348.384c2.04125,9.47789-7.64741,17.48555-17.50023,14.46117L681.25012,576.16208a14.46374,14.46374,0,0,0-8.80478.09943L525.23494,604.047a14.47084,14.47084,0,0,1-8.93884.062l-147.334-22.9728a14.46028,14.46028,0,0,0-8.50243-.06459L186.70078,609.23454c-9.79813,2.93042-19.38152-4.99672-17.41946-14.41035l73.35337-352.1098A13.05938,13.05938,0,0,1,252.87455,232.82979Z" transform="translate(-21.24983 -90.12662)" fill="#b7b7b7"/><path d="M254.38178,233.80048l142.83659-30.728a14.3956,14.3956,0,0,1,6.45785.09344L517.451,231.136a14.40866,14.40866,0,0,0,6.66957.04543L645.61452,203.1031a14.42266,14.42266,0,0,1,6.71083.05607L787.01367,236.693a12.95014,12.95014,0,0,1,9.72028,9.64638l74.64077,346.428c2.02977,9.42469-7.60449,17.38738-17.402,14.38L680.35223,574.65461a14.38257,14.38257,0,0,0-8.75532.10083L525.213,602.93228a14.38965,14.38965,0,0,1-8.88865.06292L369.8175,579.69884a14.37891,14.37891,0,0,0-8.4547-.0655l-172.78326,28.4586c-9.74315,2.91395-19.27272-4.96867-17.32166-14.32945l72.94152-350.13289A12.98607,12.98607,0,0,1,254.38178,233.80048Z" transform="translate(-21.24983 -90.12662)" fill="#b6b6b6"/><path d="M255.889,234.77117l142.03009-30.55449a14.31431,14.31431,0,0,1,6.4214.09291L517.4729,232.12178a14.32731,14.32731,0,0,0,6.63191.04515l120.80795-27.91981a14.34162,14.34162,0,0,1,6.673.05573l133.92781,33.34452a12.877,12.877,0,0,1,9.66542,9.5919l74.21933,344.472c2.01828,9.3715-7.56156,17.2892-17.30374,14.29882l-172.6402-32.863a14.3014,14.3014,0,0,0-8.70586.10223L525.191,601.81756a14.30845,14.30845,0,0,1-8.83846.06379L370.67293,578.26143a14.29753,14.29753,0,0,0-8.407-.06641L190.4583,606.94934c-9.68817,2.89747-19.16393-4.94062-17.22387-14.24856l72.52967-348.156A12.91275,12.91275,0,0,1,255.889,234.77117Z" transform="translate(-21.24983 -90.12662)" fill="#b5b5b5"/><path d="M257.39625,235.74186l141.2236-30.381a14.233,14.233,0,0,1,6.38495.09239l112.49,27.65427a14.246,14.246,0,0,0,6.59425.04487l120.122-27.76126a14.26058,14.26058,0,0,1,6.63509.0554l133.16731,33.15521a12.80377,12.80377,0,0,1,9.61056,9.53743l73.79789,342.516c2.00679,9.3183-7.51863,17.191-17.20549,14.21764l-171.6599-33.23315a14.22023,14.22023,0,0,0-8.6564.10363l-144.731,28.95952a14.22725,14.22725,0,0,1-8.78827.06467L371.52836,576.824a14.21616,14.21616,0,0,0-8.35923-.06732l-170.83208,29.05c-9.6332,2.881-19.05513-4.91256-17.12607-14.16766L247.32881,245.46A12.83943,12.83943,0,0,1,257.39625,235.74186Z" transform="translate(-21.24983 -90.12662)" fill="#b4b4b4"/><path d="M258.90348,236.71255l140.4171-30.20749a14.15172,14.15172,0,0,1,6.34849.09187l111.84758,27.49634a14.16461,14.16461,0,0,0,6.55659.04459l119.436-27.60272a14.17954,14.17954,0,0,1,6.59722.05507l132.4068,32.9659a12.73059,12.73059,0,0,1,9.5557,9.483l73.37646,340.56c1.99531,9.2651-7.4757,17.09284-17.10724,14.13646L677.65856,570.13222a14.13906,14.13906,0,0,0-8.60694.105L525.14713,599.58811a14.14606,14.14606,0,0,1-8.73808.06554l-144.02525-24.267a14.1348,14.1348,0,0,0-8.31149-.06823L194.21582,604.66415c-9.57822,2.86452-18.94634-4.88451-17.02827-14.08676l71.706-344.20219A12.76612,12.76612,0,0,1,258.90348,236.71255Z" transform="translate(-21.24983 -90.12662)" fill="#b3b3b3"/></g><g id="body_map"><path id="out_border" d="M1021.2118,668.08,907.61206,141.65273a1.04921,1.04921,0,0,0-.16026-.36184,1.47918,1.47918,0,0,0-.30134-.31741,2.11086,2.11086,0,0,0-.41674-.25707,2.7091,2.7091,0,0,0-.50909-.17428L691.63716,90.19482c-.04785-.01049-.09851-.021-.14636-.029-.05066-.00918-.1015-.01558-.14935-.0223-.05031-.00508-.10115-.00918-.149-.01148-.04767-.00279-.0957-.0041-.14354-.0041l-.00563-.00131c-.04785,0-.09869.00131-.14653.00541-.04785.0023-.0957.00639-.14354.01148-.04785.00672-.09552.01312-.14055.0223-.04785.008-.09288.01853-.13809.029l-169.21468,41.604-.00141.00131L352.02427,90.19482c-.0438-.01049-.09024-.021-.13651-.029-.04644-.00918-.09288-.01558-.14073-.0223-.04785-.00508-.0957-.00918-.14354-.01148-.04926-.0041-.0971-.00541-.14636-.00541l-.00581.00131q-.07177,0-.14354.0041c-.04926.0023-.09816.00639-.149.01148-.04926.00672-.09851.01312-.14777.0223-.04926.008-.09869.01853-.14794.029L136.27576,140.54213a2.65414,2.65414,0,0,0-.50786.17428,2.08712,2.08712,0,0,0-.41814.25707,1.48062,1.48062,0,0,0-.30081.31741,1.015,1.015,0,0,0-.16061.36184L21.28983,668.08a1.71359,1.71359,0,0,0-.03659.47464,1.59762,1.59762,0,0,0,.0957.44086,1.531,1.531,0,0,0,.21672.39348,1.7362,1.7362,0,0,0,.32948.32265,1.78542,1.78542,0,0,0,.27143.15739,2.06211,2.06211,0,0,0,.30116.11558,2.24279,2.24279,0,0,0,.32509.06788,2.41341,2.41341,0,0,0,.34074.02361c.06491,0,.12947-.0023.19421-.00771a1.68239,1.68239,0,0,0,.19544-.021c.06632-.01049.13229-.021.1986-.0341.066-.0159.13229-.03148.19825-.05246l279.07823-83.63035L520.49008,655.5488a1.65563,1.65563,0,0,0,.18594.05263,1.51208,1.51208,0,0,0,.19.03656c.06333.01049.12789.01853.19139.02361.06474.00541.1307.00787.19561.00787h.00686c.0635,0,.12543-.00246.18893-.00787.066-.00508.13088-.01312.19526-.02361a1.6875,1.6875,0,0,0,.19438-.03656,1.66091,1.66091,0,0,0,.19139-.05263l217.47226-69.21831,279.07805,83.63035c.06456.01836.13229.0341.19685.04705.06773.01312.13229.0264.2.0341.06755.01049.13492.0159.20265.021.06456.00541.13229.00541.19984.00541a2.8172,2.8172,0,0,0,.33195-.021,2.20228,2.20228,0,0,0,.321-.071,1.93411,1.93411,0,0,0,.30116-.1128,1.53252,1.53252,0,0,0,.27-.152,1.71326,1.71326,0,0,0,.33247-.32265,1.52179,1.52179,0,0,0,.21391-.39348,1.45814,1.45814,0,0,0,.09552-.44086A1.70959,1.70959,0,0,0,1021.2118,668.08Zm-281.3241-85.443c-.06773-.021-.12947-.03672-.19421-.05263-.06192-.01558-.12648-.02607-.18858-.03656-.06192-.008-.12384-.01574-.18576-.021-.0621-.00262-.124-.00525-.18858-.00525-.06491,0-.12683.00262-.19139.00525-.06192.00525-.12384.013-.18594.021-.06192.01049-.121.021-.18295.03656-.05911.0159-.11522.03164-.17433.05263l-217.1361,68.97173L304.10443,582.637c-.0577-.01853-.1154-.0341-.1745-.04722-.05893-.0159-.11944-.0264-.18013-.03689-.06192-.00771-.12243-.01558-.18436-.02082-.0635-.00525-.12543-.00525-.18858-.00525h-.007c-.0621,0-.12261,0-.18312.00525-.06456.00525-.12789.01312-.19139.02082-.06456.01049-.12789.021-.19139.03689-.06456.01312-.12789.02869-.18981.04722L26.414,665.25744,138.20253,142.48707,351.22492,92.43635l169.43844,41.72336c.04644.0118.09429.0223.14214.03148.04926.00918.0971.01689.14636.0223.04926.00639.10009.01049.149.01312.05066.00377.1015.00508.15076.00508h.00827c.04785,0,.0957-.00246.14354-.00508.05084-.00262.1015-.00672.15216-.01312.04943-.00541.09974-.01312.149-.0223.05084-.00918.10009-.01967.14935-.03148L691.27407,92.43635l213.02239,50.05072,111.78979,522.77037Z" transform="translate(-21.24983 -90.12662)" fill="#f2ea64" opacity="0.5"/><path d="M965.08884,612.63582,875.94508,158.43894a1.04678,1.04678,0,0,0-.1548-.36758,1.44246,1.44246,0,0,0-.29835-.32528,2.13223,2.13223,0,0,0-.41638-.26084,2.57615,2.57615,0,0,0-.51261-.17838L694.00687,114.37157c-.05031-.0118-.10115-.0223-.149-.03033-.05066-.00918-.1015-.01689-.15216-.0223-.05049-.00508-.10115-.01049-.15181-.013-.05084-.00262-.09869-.00393-.14935-.00393-.05049,0-.09816.00131-.149.00393-.04785.00246-.09851.00787-.14636.013-.04785.00541-.0957.01312-.14354.0223-.045.008-.09288.01853-.13774.03033l-171.568,42.783h-.00141l-171.58562-42.783c-.04539-.0118-.09165-.0223-.1395-.03033-.04644-.00918-.09429-.01689-.14214-.0223-.04785-.00508-.0971-.01049-.14636-.013-.04943-.00262-.09869-.00393-.149-.00393h-.00581q-.07177,0-.14354.00393c-.05084.00246-.1015.00787-.152.013-.05066.00541-.09992.01312-.15076.0223-.04926.008-.09957.01853-.149.03033L167.93588,157.30686a2.52336,2.52336,0,0,0-.51067.17838,2.12614,2.12614,0,0,0-.41691.26084,1.51026,1.51026,0,0,0-.29817.32528,1.04029,1.04029,0,0,0-.1548.36758L77.413,612.63582a1.60872,1.60872,0,0,0-.02533.46168,1.45711,1.45711,0,0,0,.104.425,1.52824,1.52824,0,0,0,.22693.37528,1.63845,1.63845,0,0,0,.34039.30675,1.74612,1.74612,0,0,0,.26158.14428,2.01871,2.01871,0,0,0,.2899.10509,2.87381,2.87381,0,0,0,.3126.06279,2.71713,2.71713,0,0,0,.32931.021c.0635,0,.12648-.00246.19139-.00787a1.631,1.631,0,0,0,.1928-.02082,1.68953,1.68953,0,0,0,.19438-.0341c.063-.01328.1293-.02886.1928-.04738l226.75338-66.79185,213.72727,66.79185c.06051.01853.121.03689.18154.05.06192.01558.12384.0264.18594.03672.063.01049.12648.01558.18981.021.06315.00508.12648.00787.19139.00787h.00686c.0621,0,.124-.00279.18453-.00787.06456-.00541.12947-.01049.1928-.021.0635-.01033.12806-.02115.19-.03672.06333-.01312.12648-.03148.1884-.05l213.70915-66.79185,226.752,66.79185c.06192.0159.12683.03181.19174.04738.06456.01312.1293.02623.19385.03672a1.73746,1.73746,0,0,0,.1972.02607c.06474.00541.13229.008.197.008a2.2331,2.2331,0,0,0,.32368-.021,2.49232,2.49232,0,0,0,.31506-.06542,2.12093,2.12093,0,0,0,.2899-.10772,1.59427,1.59427,0,0,0,.2563-.14706,1.61412,1.61412,0,0,0,.34074-.30675,1.50508,1.50508,0,0,0,.22781-.37528,1.5464,1.5464,0,0,0,.10414-.425A1.615,1.615,0,0,0,965.08884,612.63582Z" transform="translate(-21.24983 -90.12662)" fill="#fdfdfd"/><path id="wide_border_middle" d="M904.29647,142.48707,691.27407,92.43635,521.85393,134.15971c-.04926.0118-.09851.0223-.14935.03148-.04926.00918-.09957.01689-.149.0223-.05066.00639-.10133.01049-.15216.01312-.04785.00262-.0957.00508-.14354.00508h-.00827c-.04926,0-.10009-.00131-.15076-.00508-.0489-.00262-.09974-.00672-.149-.01312-.04926-.00541-.0971-.01312-.14636-.0223-.04785-.00918-.0957-.01967-.14214-.03148L351.22492,92.43635,138.20253,142.48707,26.414,665.25744,302.6141,582.637c.06192-.01853.12525-.0341.18981-.04722.0635-.0159.12683-.0264.19139-.03689.0635-.00771.12683-.01558.19139-.02082.06051-.00525.121-.00525.18312-.00525h.00422c.066,0,.12789,0,.19139.00525.06192.00525.12243.01312.18436.02082.06069.01049.1212.021.18013.03689.05911.01312.11681.02869.1745.04722l217.15545,68.97173L738.396,582.637c.05911-.021.11522-.03672.17433-.05263.06192-.01558.121-.02607.18295-.03656.0621-.008.124-.01574.18594-.021.06456-.00262.12648-.00525.19139-.00525.06456,0,.12648.00262.18858.00525.06192.00525.12384.013.18576.021.0621.01049.12666.021.18858.03656.06474.0159.12648.03164.19421.05263l276.19855,82.62042Zm60.48576,471.41067a1.61412,1.61412,0,0,1-.34074.30675,1.59427,1.59427,0,0,1-.2563.14706,2.12093,2.12093,0,0,1-.2899.10772,2.49232,2.49232,0,0,1-.31506.06542,2.2331,2.2331,0,0,1-.32368.021c-.06474,0-.13229-.00262-.197-.008a1.73746,1.73746,0,0,1-.1972-.02607c-.06456-.01049-.1293-.02361-.19385-.03672-.06491-.01558-.12982-.03148-.19174-.04738l-226.752-66.79185L522.01559,614.42746c-.06192.01853-.12507.03689-.1884.05-.06192.01558-.12648.0264-.19.03672-.06333.01049-.12824.01558-.1928.021-.06051.00508-.12243.00787-.18453.00787H521.253c-.06491,0-.12824-.00279-.19139-.00787-.06333-.00541-.12683-.01049-.18981-.021-.0621-.01033-.124-.02115-.18594-.03672-.06051-.01312-.121-.03148-.18154-.05L306.77706,547.63562,80.02368,614.42746c-.0635.01853-.12982.0341-.1928.04738a1.68953,1.68953,0,0,1-.19438.0341,1.631,1.631,0,0,1-.1928.02082c-.06491.00541-.12789.00787-.19139.00787a2.71713,2.71713,0,0,1-.32931-.021,2.87381,2.87381,0,0,1-.3126-.06279,2.01871,2.01871,0,0,1-.2899-.10509,1.74612,1.74612,0,0,1-.26158-.14428,1.63845,1.63845,0,0,1-.34039-.30675,1.52824,1.52824,0,0,1-.22693-.37528,1.45711,1.45711,0,0,1-.104-.425,1.60872,1.60872,0,0,1,.02533-.46168l89.14235-454.19688a1.04029,1.04029,0,0,1,.1548-.36758,1.51026,1.51026,0,0,1,.29817-.32528,2.12614,2.12614,0,0,1,.41691-.26084,2.52336,2.52336,0,0,1,.51067-.17838l180.55889-42.93528c.04943-.0118.09974-.0223.149-.03033.05084-.00918.10009-.01689.15076-.0223.05049-.00508.10115-.01049.152-.013q.07177-.00393.14354-.00393h.00422c.05189,0,.10115.00131.15058.00393.04926.00246.09851.00787.14636.013.04785.00541.0957.01312.14214.0223.04785.008.09411.01853.1395.03033l171.58562,42.783h.00141l171.568-42.783c.04486-.0118.09271-.0223.13774-.03033.04785-.00918.0957-.01689.14354-.0223.04785-.00508.09851-.01049.14636-.013.05084-.00262.09851-.00393.149-.00393h.00581q.07177,0,.14354.00393c.05066.00246.10133.00787.15181.013.05066.00541.1015.01312.15216.0223.04785.008.09869.01853.149.03033l180.55608,42.93528a2.57615,2.57615,0,0,1,.51261.17838,2.13223,2.13223,0,0,1,.41638.26084,1.44246,1.44246,0,0,1,.29835.32528,1.04678,1.04678,0,0,1,.1548.36758l89.14376,454.19688a1.615,1.615,0,0,1,.02533.46168,1.5464,1.5464,0,0,1-.10414.425A1.50508,1.50508,0,0,1,964.78223,613.89774Z" transform="translate(-21.24983 -90.12662)" fill="#f4f4e9"/></g><g id="shadow_top" opacity="0.5"><path id="shadow" d="M521.6315,134.23177l-.00148-2.43286L352.39582,90.19485c-.04381-.01048-.09018-.021-.13661-.029-.0464-.00913-.0928-.01558-.14065-.0223-.04784-.0051-.09569-.00913-.14353-.01155-.04928-.004-.09857-.00537-.15218-.00537-.42195,4.31773-48.4531,496.20395-48.4531,496.20395L520.86164,655.5489a1.579,1.579,0,0,0,.1859.05265,1.55263,1.55263,0,0,0,.18849.03653c.06485.01048.12826.01853.19282.02364.06485.00537.13085.00779.20265.00779V134.23177Z" transform="translate(-21.24983 -90.12662)" opacity="0.2"/><path id="shadow-2" data-name="shadow" d="M1021.21189,668.0801,907.612,141.65282a1.04555,1.04555,0,0,0-.16025-.36183,1.482,1.482,0,0,0-.30118-.3175,2.11894,2.11894,0,0,0-.41676-.25707,2.7206,2.7206,0,0,0-.50923-.17433L691.63721,90.19485c-.04784-.01048-.09857-.021-.14641-.029-.05073-.00913-.10145-.01558-.14929-.0223-.05044-.0051-.10116-.00913-.149-.01155q-.0717-.004-.14353-.004l48.45313,496.2026L1018.58021,669.961c.06456.01827.13229.03411.19685.047.06773.01316.13229.02632.2.03411.06744.01048.13488.01585.20262.021.06456.00537.13229.00537.19973.00537a2.80708,2.80708,0,0,0,.332-.021,2.19989,2.19989,0,0,0,.32107-.07091,1.94328,1.94328,0,0,0,.30118-.11282,1.54571,1.54571,0,0,0,.27006-.152,1.70734,1.70734,0,0,0,.33231-.32261,1.51728,1.51728,0,0,0,.2139-.39352,1.45423,1.45423,0,0,0,.09564-.4408A1.71164,1.71164,0,0,0,1021.21189,668.0801Z" transform="translate(-21.24983 -90.12662)" opacity="0.2"/></g></g></g></svg>