<svg xmlns="http://www.w3.org/2000/svg" viewBox="0 0 20 20"><title>icon_pin</title><path d="M391.47653,596.63948l-4.92708,6.13681a0.45034,0.45034,0,0,0,0,.56084,0.42853,0.42853,0,0,0,.61142.06274l6.02455-5.02082c-0.30779-.27938-0.604-0.5633-0.88-0.84476-0.289-.29424-0.565-0.59417-0.82886-0.89482h0Zm0,0" transform="translate(-386.45148 -583.5)" fill="#bccee5"/><path d="M404.37351,585.61752c-1.68471-1.717-3.58794-2.55984-4.25261-1.88465-0.03422.03506-3.51231,4.86895-5.25561,7.29129a5.795,5.795,0,0,0-2.82676-1.31441,0.75945,0.75945,0,0,0-.56684.19986c-0.727.73943,0.63026,3.321,3.0301,5.76647,1.96131,1.99842,4.01264,3.28818,5.09255,3.28818a0.76276,0.76276,0,0,0,.56689-0.1999c0.49527-.50471.02068-1.86772-1.09269-3.45925,2.37782-1.77633,7.12036-5.32012,7.15383-5.35441,0.664-.676-0.16434-2.616-1.84885-4.33318h0Zm0,0" transform="translate(-386.45148 -583.5)" fill="#bccee5"/></svg>