<svg xmlns="http://www.w3.org/2000/svg" viewBox="0 0 40 34"><title>icon_tariff</title><path d="M274,409v2h16v-2H274Zm0,7h12v-2H274v2Zm0,5h6v-2h-6v2Zm6-28.3457c0-.59839-0.59235-1.6543-1.08734-1.6543a1.02679,1.02679,0,0,0-.91986.52777L260,419l-8.099-7.78253a0.78258,0.78258,0,0,0-.70752-0.38727A1.27312,1.27312,0,0,0,250,412.04767a1.222,1.222,0,0,0,.3183.77429l9.17719,11.65015a1.2712,1.2712,0,0,0,.88428.52789,1.0041,1.0041,0,0,0,.81372-0.52789l18.38177-30.62122A1.97513,1.97513,0,0,0,280,392.6543Z" transform="translate(-250.00002 -391)" fill="#bccee5"/></svg>