<svg xmlns="http://www.w3.org/2000/svg" viewBox="0 0 40 36.03973"><title>icon_balance</title><path d="M290,447h-3v-6a2.53615,2.53615,0,0,0-.79041-1.68219A1.2593,1.2593,0,0,0,285,439l-31.32562,7.8219A2.25563,2.25563,0,0,0,252,448.90839v23.379a2.89449,2.89449,0,0,0,3.01178,2.7063h34.35291A2.57113,2.57113,0,0,0,292,472.28741V449A2.20312,2.20312,0,0,0,290,447Zm-5.06091-6.02643L285,447H262ZM290,472.00079a1,1,0,0,1-1,1H255a1,1,0,0,1-1-1V450.00006a1,1,0,0,1,1-1h34a1,1,0,0,1,1,1v22.00073Zm-6.99988-13.43158A3.00009,3.00009,0,1,0,286,461.5694,3.00358,3.00358,0,0,0,283.00012,458.56921Z" transform="translate(-252 -438.95399)" fill="#bccee5"/></svg>