<svg xmlns="http://www.w3.org/2000/svg" viewBox="0 0 23 20"><title>icon_view</title><path d="M195.82645,556c-6.073,0-10.46861-5.82534-11.43061-9.4662a2.08869,2.08869,0,0,1,0-1.0676c0.962-3.64075,5.35761-9.4662,11.4306-9.4662s10.46865,5.82545,11.43067,9.4662a2.08869,2.08869,0,0,1,0,1.0676C206.29511,550.17466,201.89944,556,195.82645,556Zm0-17.85707c-3.13947,0-5.77816,1.92627-7.51015,4.07953a6.09535,6.09535,0,0,0,0,7.55543c1.732,2.15327,4.37068,4.07933,7.51016,4.07933s5.77818-1.926,7.51019-4.0793a6.09534,6.09534,0,0,0,0-7.55548C201.60461,540.06919,198.96594,538.14293,195.82645,538.14293Z" transform="translate(-184.32648 -536)" fill="#bccee5" fill-rule="evenodd"/><ellipse cx="11.62031" cy="10.25" rx="4.09058" ry="4.25" fill="#bccee5"/></svg>