<svg xmlns="http://www.w3.org/2000/svg" viewBox="0 0 20 20"><title>icon_star</title><path d="M595.40256,535.20746l1.65207,5.39122a0.99645,0.99645,0,0,0,.95108.70746h5.44837a1.00514,1.00514,0,0,1,.6043,1.80154l-4.49236,3.46075a1.00871,1.00871,0,0,0-.34678,1.09408l1.69543,5.53271a0.99733,0.99733,0,0,1-1.55538,1.09408l-4.30351-3.31527a0.98886,0.98886,0,0,0-1.20861,0l-4.30351,3.31527a0.99733,0.99733,0,0,1-1.55538-1.09408l1.69543-5.53271a1.00871,1.00871,0,0,0-.34678-1.09408l-4.49236-3.46075a1.00514,1.00514,0,0,1,.6043-1.80154h5.44837a0.99645,0.99645,0,0,0,.95108-0.70746l1.65207-5.39122A0.993,0.993,0,0,1,595.40256,535.20746Z" transform="translate(-584.45148 -534.5)" fill="#bccee5"/></svg>