<svg xmlns="http://www.w3.org/2000/svg" viewBox="0 0 20 20"><title>icon_firm</title><path d="M353.52788,545.5a3.405,3.405,0,0,1,1.9236-2.90793,10.51385,10.51385,0,0,0-.82357-1.99045,3.21977,3.21977,0,0,1-3.22731-1.0505,3.11229,3.11229,0,0,1-.81264-3.22743A10.49342,10.49342,0,0,0,348.5974,535.5a3.53439,3.53439,0,0,1-6.292,0,10.50728,10.50728,0,0,0-1.99021.82333,3.11332,3.11332,0,0,1-.81264,3.22779A3.221,3.221,0,0,1,336.275,540.602a10.50091,10.50091,0,0,0-.82357,1.9901A3.40483,3.40483,0,0,1,337.375,545.5a3.76884,3.76884,0,0,1-1.92348,3.14581,10.50958,10.50958,0,0,0,.82357,1.99069,3.24354,3.24354,0,0,1,4.04017,4.04,10.48418,10.48418,0,0,0,1.99057.82345,3.534,3.534,0,0,1,6.29162,0,10.49458,10.49458,0,0,0,1.99079-.82379,3.11226,3.11226,0,0,1,.8124-3.22707,3.22,3.22,0,0,1,3.22731-1.05074,10.50958,10.50958,0,0,0,.82357-1.99069A3.40449,3.40449,0,0,1,353.52788,545.5Zm-8.0764,4.349a4.349,4.349,0,1,1,4.34871-4.349A4.34892,4.34892,0,0,1,345.45148,549.849Z" transform="translate(-335.45148 -535.5)" fill="#bccee5"/></svg>