<svg xmlns="http://www.w3.org/2000/svg" viewBox="0 0 20 20"><title>icon_personal</title><path d="M101.11139,598.44218c-2.6226-.99838-3.46079-1.8404-3.46079-3.64333,0-1.08236.80079-.729,1.15236-2.711,0.14585-.82227.85313-0.01324,0.9886-1.89042a0.96675,0.96675,0,0,0-.386-0.934s0.19615-1.10709.273-1.95909c0.09517-1.06153-.58719-3.80427-4.22706-3.80427s-4.32264,2.74273-4.22706,3.80427c0.07687,0.852.273,1.95909,0.273,1.95909a0.96675,0.96675,0,0,0-.386.934c0.135,1.87718.84234,1.06816,0.98819,1.89042,0.352,1.98209,1.15234,1.62869,1.15234,2.711,0,1.80293-.83777,2.645-3.46036,3.64333-2.63089,1.00129-4.34009,2.02213-4.34009,2.71842V603.5h20v-2.3394C105.45148,600.46431,103.74229,599.44347,101.11139,598.44218Z" transform="translate(-85.45148 -583.5)" fill="#bccee5"/></svg>