<svg xmlns="http://www.w3.org/2000/svg" viewBox="0 0 10 20"><title>icon_info</title><path d="M547.65685,599.94316l-2.54981.85813,1.75871-7.0387c0.20275-.74083-0.81184-1.53465-1.89416-1.05842l-4.88392,1.78555a0.91135,0.91135,0,0,0-.47322,1.376,1.52254,1.52254,0,0,0,1.75829.37025l2.38151-.67414-1.691,6.72111A1.16436,1.16436,0,0,0,543.34833,603.5a1.564,1.564,0,0,0,.54137-0.10564l4.78174-1.599a0.92785,0.92785,0,0,0,.6764-1.323,1.41393,1.41393,0,0,0-1.691-.52921h0Zm0,0" transform="translate(-539.45148 -583.5)" fill="#bccee5"/><path d="M545.9085,589.46732a2.98529,2.98529,0,1,0-2.88674-2.98332,2.92341,2.92341,0,0,0,2.88674,2.98332h0Zm0,0" transform="translate(-539.45148 -583.5)" fill="#bccee5"/></svg>