<svg xmlns="http://www.w3.org/2000/svg" viewBox="0 0 14 20"><title>icon_rubler</title><path d="M268.36119,363.169h2.04943V353.11172a14.907,14.907,0,0,1,2.35248-.33793q1.25588-.08483,2.497-0.08483a13.41158,13.41158,0,0,1,2.61253.25448,6.10856,6.10856,0,0,1,2.28059.93241,4.94393,4.94393,0,0,1,1.60191,1.83586,7.4815,7.4815,0,0,1-.0141,5.93241,5.40464,5.40464,0,0,1-1.64561,1.92069,6.56178,6.56178,0,0,1-2.33838,1.04483,12.67447,12.67447,0,0,1-2.67032.33931l-2.27989.02828v2.00552h4.79164v1.75172H272.8068V372.689h-2.39617v-3.95448h-2.04943v-1.75172h2.04943V364.949h-2.04943v-1.78Zm6.95666-8.50207q-0.75057,0-1.42854.04207a7.90126,7.90126,0,0,0-1.08251.1269V363H275a9.04078,9.04078,0,0,0,1.73229-.169,4.07858,4.07858,0,0,0,1.55892-.64759,3.53888,3.53888,0,0,0,1.1255-1.309,4.50978,4.50978,0,0,0,.40453-2.18207,4.30492,4.30492,0,0,0-.33194-1.92828,3.20851,3.20851,0,0,0-.98173-1.23862,3.88515,3.88515,0,0,0-1.44334-.66138A7.457,7.457,0,0,0,275.31785,354.6669Z" transform="translate(-268.36119 -352.68896)" fill="#bccee5"/></svg>