<svg xmlns="http://www.w3.org/2000/svg" viewBox="0 0 21.81818 20"><title>icon_add_product</title><path d="M384.45938,539.58353a0.53647,0.53647,0,0,1,.619-0.4427l4.773,0.96883,0.166,0.54894h0.00037l2.64968,8.11434a3.20776,3.20776,0,0,0-.9447.33288l-2.61995-8.02338-4.20666-.87162A0.54222,0.54222,0,0,1,384.45938,539.58353Zm11.04823,8.54572-3.024-9.13055,4.3994-1.48951,0.9904,2.99682,1.73818-.60321-0.963-2.99142L402.81717,535.5l3.45249,10.496-9.16376,3.10979A3.25029,3.25029,0,0,0,395.50761,548.12925Zm10.50664,1.34889a0.54455,0.54455,0,0,1-.34008.68605l-8.21948,2.70784a0.53572,0.53572,0,0,1-.09973.02254,3.33555,3.33555,0,0,0-.1771-1.0731l8.15934-2.688A0.5342,0.5342,0,0,1,406.01425,549.47814Zm-10.28876,3.64093a2.37156,2.37156,0,1,1-2.37156-2.381A2.37623,2.37623,0,0,1,395.72548,553.11907Z" transform="translate(-384.45148 -535.5)" fill="#bccee5" fill-rule="evenodd"/></svg>