<svg xmlns="http://www.w3.org/2000/svg"><symbol id="c_icon0" viewBox="0 0 42.00749 42.00763"><path d="M18.703 42.008a2.9 2.9 0 0 1-2.048-.85L.848 25.354a2.895 2.895 0 0 1 .215-4.29L24.95 1.52a6.666 6.666 0 0 1 8.965.447l6.127 6.127a6.666 6.666 0 0 1 .447 8.963L20.942 40.945a2.903 2.903 0 0 1-2.098 1.06q-.072.003-.143.003zM29.187 2.003a4.676 4.676 0 0 0-2.97 1.065L2.327 22.613a.896.896 0 0 0-.067 1.326l15.81 15.804a.894.894 0 0 0 1.325-.065L38.94 15.79a4.672 4.672 0 0 0-.313-6.282L32.5 3.38a4.674 4.674 0 0 0-3.313-1.377z" fill="#244566"/><path d="M29.974 16.35a4.318 4.318 0 1 1 4.32-4.317 4.323 4.323 0 0 1-4.32 4.318zm0-6.634a2.318 2.318 0 1 0 2.32 2.317 2.32 2.32 0 0 0-2.32-2.317zM8.89 22.348l10.725 10.725-1.34 1.34L7.55 23.69z" fill="#244566"/></symbol><symbol id="c_icon171" viewBox="0 0 39.73681 33.70834"><path fill="#244566" d="M37.737 23.708h2v10h-2z"/><path fill="#244566" d="M31.737 29.708v-2h8v2z"/><rect x="26.737" y="25.708" width="4" height="4" rx="2" ry="2" fill="#244566"/><path fill="#244566" d="M26.737 24.708l-1.813.846-2.27-4.714 1.81-.845 2.273 4.713M0 14.853l1.813-.846 5.916 12.69-1.814.844z"/><path fill="#244566" d="M3.08 16.727l1.813-.845 3.38 7.25-1.812.845zM31.6 4.53l.844 1.814-19.94 9.298-.844-1.813zm-1.513 6.223l.845 1.813-1.813.845-.847-1.81zm-3.627 1.69l.846 1.814-1.812.845-.846-1.812zm-3.624 1.692l.846 1.812-1.813.846-.847-1.813z"/><path d="M28.518 2.658l5.072 10.876L10.932 24.1l-5.07-10.877L28.517 2.658M29.487 0L3.202 12.256l6.762 14.5L36.247 14.5 29.487 0z" fill="#244566"/></symbol><symbol id="c_icon215" viewBox="0 0 40 40"><path d="M35 14v16h-4V14h4zm-13 0v16h-4V14h4zM9 14v16H5V14h4zM3 34h34v2H3v-2zm-3 4h40v2H0v-2zM11 4h18v2H11V4zm6-4h6v2h-6V0zM3 8h34v2H3V8z" fill="#244566"/></symbol><symbol id="c_icon216" viewBox="0 0 39.99997 40"><path d="M28.536 1.8q.433 0 .865.038L25.627 5.6a4.533 4.533 0 0 0 0 6.425l2.22 2.212a4.558 4.558 0 0 0 6.43 0l3.87-3.857a9.78 9.78 0 0 1 .028 1.765 10.17 10.17 0 0 1-9.012 8.88q-.304.018-.604.018a9.664 9.664 0 0 1-3.95-.845l-1.22-.542-.872 1.008L7.87 37.57a1.833 1.833 0 0 1-1.324.63h-.06a1.84 1.84 0 0 1-1.3-.544L2.32 34.748a1.8 1.8 0 0 1 .11-2.635l16.91-14.476 1.043-.894-.586-1.242a9.503 9.503 0 0 1-.905-4.695 10.18 10.18 0 0 1 8.848-8.972c.265-.02.532-.032.796-.032m0-1.8q-.465 0-.94.038a12.035 12.035 0 0 0-10.5 10.655 11.355 11.355 0 0 0 1.073 5.577L1.26 30.745a3.6 3.6 0 0 0-.222 5.266l2.865 2.908A3.63 3.63 0 0 0 6.487 40c.04 0 .078 0 .117-.002a3.63 3.63 0 0 0 2.626-1.25l14.645-16.905a11.49 11.49 0 0 0 4.68 1q.357 0 .717-.022A12.022 12.022 0 0 0 39.97 12.278a11.456 11.456 0 0 0-.31-3.63 1.084 1.084 0 0 0-1.06-.82 1.068 1.068 0 0 0-.76.316l-4.837 4.82a2.758 2.758 0 0 1-3.89 0l-2.218-2.212a2.733 2.733 0 0 1 0-3.874l4.778-4.76A1.08 1.08 0 0 0 31.155.3a11.54 11.54 0 0 0-2.62-.3z" fill="#244566"/><circle cx="7.171" cy="32.563" r="2" fill="#244566"/></symbol><symbol id="c_icon237" viewBox="0 0 41.99828 38.98757"><path d="M36.962 38.988h-2.967L34 37.983c.052-10.748-.615-16.174-2.166-17.592a2.065 2.065 0 0 0-1.74-.406c-1.885.178-5.043 3.28-9.39 17.05l-.18.563a1.986 1.986 0 0 1-1.9 1.39l-13.257-.002a2.002 2.002 0 0 1-1.94-1.53A44.365 44.365 0 0 0 1.28 31.19C.273 28.72-.453 26.935.33 25.486c.516-.957 1.552-1.542 3.357-1.897a36.903 36.903 0 0 0 9.42-3.69c1.9-.98 2.54-1.31 3.19-1.095a8.022 8.022 0 0 1 1.562.89c.233.152.444.293.585.372 8-4.18 11.732-10.884 14.2-15.32C34.215 1.93 35.16.23 36.655.02a2.34 2.34 0 0 1 2.01.794c3.566 3.537 3.378 9.944 3.304 11.192a1.896 1.896 0 0 1-.263.854c-4.622 7.876-3.757 24.902-3.748 25.073l.056 1.055H36.96zM15.84 20.79c-.37.143-1.133.535-1.82.888a38.57 38.57 0 0 1-9.947 3.875c-1.392.273-1.847.63-1.983.884-.334.62.303 2.184 1.04 3.998a46.058 46.058 0 0 1 2.238 6.537l13.252.013.176-.555c2.635-8.345 6.28-17.983 11.11-18.438a4.065 4.065 0 0 1 3.278.923c1.463 1.34 2.462 4.1 2.74 12.556.18-5.91 1.01-14.426 4.06-19.62.054-1.058.23-6.683-2.727-9.613A.783.783 0 0 0 36.93 2c-.5.07-1.677 2.18-2.535 3.72-2.586 4.645-6.492 11.663-15.013 16.12a2.006 2.006 0 0 1-1.917-.03c-.168-.094-.42-.258-.7-.44-.25-.163-.666-.435-.925-.58z" fill="#244566"/><path fill="#244566" d="M18.98 37.988h-14l-1-2h16l-1 2m16.348-11h1.65v10h-1.65z"/></symbol><symbol id="c_icon26" viewBox="0 0 40 37"><path d="M38.462 0H0v28h17v7H8v2h26v-2H23v-7h17V0h-1.538zM21 35h-2v-7h2v7zm17-9H2V2h36v24z" fill="#244566" fill-rule="evenodd"/><path d="M28 32v5h12v-5H28zm5 3h-3v-1h3v1zm5 0h-3v-1h3v1z" fill="#244566" fill-rule="evenodd"/><path fill="#244566" d="M22.742 7l1.093 1.088-8.742 8.703L14 15.705 22.742 7m1.165 7.615L25 15.703l-4.37 4.35-1.094-1.087 4.37-4.35"/></symbol><symbol id="c_icon28" viewBox="0 0 38.72461 40"><path fill="#244566" d="M17.362 27v5h-2v-5z"/><path fill="#244566" d="M13.362 30h14v2h-14zm16-14l-18 4v-2l18-4v2m0 5l-18 4v-2l18-4v2m-9-8l-9 2v-2l9-2v2m-5 21h10v2h-10z"/><path fill="#244566" d="M25.362 25v7h-2v-7zm-8 13h6v2h-6zm1.15-38h1.5v5.335h-1.5zM7.935 2.27l1.284-.774 2.79 4.62-1.284.775zm25.234 7.072L38 6.676l.725 1.314-4.832 2.666zm-6.45-3.532l2.79-4.62 1.283.776L28 6.586zM0 7.68l.725-1.31 4.832 2.667-.725 1.313z"/></symbol><symbol id="c_icon29" viewBox="0 0 39.99884 42"><path d="M23.166 42h-6.333a1.74 1.74 0 0 1-1.68-1.288l-1.197-4.47a16.376 16.376 0 0 1-4.14-2.384l-4.46 1.195a1.74 1.74 0 0 1-1.958-.812L.232 28.76a1.74 1.74 0 0 1 .277-2.1l3.266-3.27a15.468 15.468 0 0 1 0-4.777L.51 15.34a1.74 1.74 0 0 1-.277-2.098L3.4 7.757a1.74 1.74 0 0 1 1.954-.81l4.462 1.195a16.373 16.373 0 0 1 4.14-2.384l1.198-4.47A1.74 1.74 0 0 1 16.834 0h6.332a1.74 1.74 0 0 1 1.68 1.29l1.197 4.468a16.385 16.385 0 0 1 4.14 2.384l4.462-1.195a1.742 1.742 0 0 1 1.955.81l3.167 5.486a1.742 1.742 0 0 1-.277 2.098l-3.268 3.27a15.468 15.468 0 0 1 0 4.78l3.27 3.27a1.743 1.743 0 0 1 .275 2.098L36.6 34.242a1.745 1.745 0 0 1-1.954.812l-4.463-1.196a16.41 16.41 0 0 1-4.14 2.384l-1.198 4.47A1.74 1.74 0 0 1 23.165 42zm-6.132-2h5.93l1.183-4.41a1.742 1.742 0 0 1 1.054-1.166 14.374 14.374 0 0 0 3.83-2.205 1.746 1.746 0 0 1 1.54-.33l4.4 1.18 2.965-5.14-3.224-3.225a1.742 1.742 0 0 1-.482-1.502 13.508 13.508 0 0 0 0-4.41 1.74 1.74 0 0 1 .484-1.5l3.224-3.225-2.966-5.14-4.4 1.18a1.74 1.74 0 0 1-1.538-.33 14.364 14.364 0 0 0-3.83-2.204A1.74 1.74 0 0 1 24.15 6.41L22.964 2h-5.93L15.85 6.41a1.744 1.744 0 0 1-1.05 1.166 14.372 14.372 0 0 0-3.832 2.205 1.74 1.74 0 0 1-1.536.33l-4.4-1.18-2.967 5.14 3.223 3.225a1.745 1.745 0 0 1 .484 1.5 13.508 13.508 0 0 0 0 4.41 1.74 1.74 0 0 1-.484 1.502l-3.223 3.226L5.03 33.07l4.402-1.18a1.74 1.74 0 0 1 1.537.328 14.34 14.34 0 0 0 3.827 2.206 1.74 1.74 0 0 1 1.053 1.165zm13.015-6.178zm-20.1 0zm20.337-.048h-.002zM20 30.66A9.66 9.66 0 1 1 29.66 21 9.67 9.67 0 0 1 20 30.66zm0-17.32A7.66 7.66 0 1 0 27.66 21 7.67 7.67 0 0 0 20 13.34z" fill="#244566"/><path d="M19.94 26.8a5.8 5.8 0 1 1 5.75-5.8 5.782 5.782 0 0 1-5.75 5.8zm0-9.6a3.8 3.8 0 1 0 3.75 3.8 3.78 3.78 0 0 0-3.75-3.8z" fill="#244566"/></symbol><symbol id="c_icon30" viewBox="0 0 40.09582 40"><path d="M40.057.946a1.25 1.25 0 0 0-1.513-.91L34.03 1a1.255 1.255 0 0 0-.934 1.02l-1 4.98-31 3c-.024.006-.042.02-.067.025-.03.005-.057 0-.088.005a1.625 1.625 0 0 0-.19.086 1.09 1.09 0 0 0-.2.098 1.317 1.317 0 0 0-.225.213c-.036.043-.086.06-.116.104-.005.015-.005.026-.01.038a1.296 1.296 0 0 0-.14.342.94.94 0 0 0-.044.12 1.318 1.318 0 0 0 .017.514l3.847 15.01L5.097 31a.428.428 0 0 0 .042.098 1.38 1.38 0 0 0 .072.17 1.18 1.18 0 0 0 .153.226 1.06 1.06 0 0 0 .123.128 1.2 1.2 0 0 0 .237.166 1.435 1.435 0 0 0 .135.073 1.38 1.38 0 0 0 .445.086l25.79.054a1 1 0 0 0 0-2h-25l-1-3h24a1.305 1.305 0 0 0 .44-.08 1.266 1.266 0 0 0 .146-.09 1.062 1.062 0 0 0 .227-.128c.05-.043.08-.105.128-.154a1.42 1.42 0 0 0 .153-.19 1.383 1.383 0 0 0 .074-.213c.024-.067.055-.128.074-.195l.006-.03v-.012L35.096 3l4.053-.534a1.253 1.253 0 0 0 .906-1.52zM6.097 25L2.892 12.322l3.878-.463L9.097 25h-3zm5 0L9.253 11.56l3.896-.465L14.095 25h-3zm8 0h-3l-.458-14.203 3.894-.47zm5 0h-3l.95-14.972 3.874-.464zm5 0h-3l2.386-15.747 2.658-.32zM11.34 34.996a2.502 2.502 0 1 0 2.5 2.503 2.504 2.504 0 0 0-2.5-2.505zm16.256 0a2.502 2.502 0 1 0 2.5 2.503 2.5 2.5 0 0 0-2.5-2.505zm0 0" fill="#244566"/></symbol><symbol id="c_icon31" viewBox="0 0 40 36"><path d="M8.755 36a4.21 4.21 0 1 1 4.152-4.21A4.186 4.186 0 0 1 8.755 36zm0-6.487a2.278 2.278 0 1 0 2.247 2.278 2.266 2.266 0 0 0-2.247-2.276zM25.213 36a4.21 4.21 0 1 1 4.152-4.21A4.186 4.186 0 0 1 25.213 36zm0-6.487a2.278 2.278 0 1 0 2.247 2.278 2.266 2.266 0 0 0-2.247-2.276zm6.6-13.873h-.017a.96.96 0 0 1-.935-.983 9.108 9.108 0 0 1 2.773-6.116 7.28 7.28 0 0 1 5.552-1.963.962.962 0 0 1 .806 1.093.943.943 0 0 1-1.077.817 5.4 5.4 0 0 0-4.02 1.502 7.144 7.144 0 0 0-2.126 4.702.96.96 0 0 1-.952.948z" fill="#244566"/><path d="M16.388 30.03c-.28 0-.557-.005-.832-.02a.96.96 0 0 1-.904-.867 4.867 4.867 0 0 0-4.835-4.43A4.808 4.808 0 0 0 6.53 26.02a.943.943 0 0 1-1.254.03A14.513 14.513 0 0 1 0 15.012C0 6.882 7.217.147 16.088 0a.93.93 0 0 1 .684.278.973.973 0 0 1 .284.688v13.028c15.064-.044 15.13.022 15.44.334a.974.974 0 0 1 .28.685 14.316 14.316 0 0 1-4.804 10.623.942.942 0 0 1-1.207.058 4.775 4.775 0 0 0-2.9-.98 4.877 4.877 0 0 0-4.826 4.37.96.96 0 0 1-.854.855 18.002 18.002 0 0 1-1.8.09zm-6.57-7.248A6.76 6.76 0 0 1 16.41 28.1c.287 0 .578-.01.87-.026a6.777 6.777 0 0 1 6.586-5.292 6.618 6.618 0 0 1 3.36.91 12.38 12.38 0 0 0 3.61-7.744c-2.19-.025-8.07-.022-14.64-.01-.03.002-.06.004-.09.004l-14.163.036a12.38 12.38 0 0 0 3.97 8.067 6.67 6.67 0 0 1 3.904-1.263zM15.15 1.977c-7.035.546-12.684 5.715-13.207 12.07 5.268-.02 9.616-.036 13.207-.048V1.975z" fill="#244566"/><path d="M5.87 12.342a.706.706 0 0 1-.305-.07.728.728 0 0 1-.34-.964 12.53 12.53 0 0 1 7.072-6.404.71.71 0 0 1 .913.438.726.726 0 0 1-.433.925 11.087 11.087 0 0 0-6.26 5.662.713.713 0 0 1-.647.41z" fill="#244566"/></symbol><symbol id="c_icon32" viewBox="0 0 40 34"><path fill="#244566" d="M6 20h5v4H6zM26 2V0H14v2H6v2h28V2h-8m3 18h5v4h-5zm-4 0h2v4h-2zm-4 0h2v4h-2zm-4 0h2v4h-2zm-4 0h2v4h-2z"/><path d="M3.314 28h34.21A1.76 1.76 0 0 0 38 26.438v-8C38 17.333 37.418 16 36.314 16h-32A2.704 2.704 0 0 0 2 18.438v8A2.093 2.093 0 0 0 3.314 28zM4 18h32v8H4v-8zm7 11v3H5v-3H3v3.438C3 33.542 4.21 34 5.314 34h6A1.42 1.42 0 0 0 13 32.438V29h-2zm24 0v3h-6v-3h-2v3.438C27 33.542 28.21 34 29.314 34h6A1.42 1.42 0 0 0 37 32.438V29h-2zm1-18V5h-2v1H6V5H4v6H0v3h4v1h2V8h13v4h2V8h13v7h2v-1h4v-3h-4" fill="#244566"/></symbol><symbol id="c_icon33" viewBox="0 0 40 36"><path fill="#244566" d="M0 5h40v2H0zm14 19h12v2H14z"/><path fill="#244566" d="M28 0v36h-2V0zm12 2v8h-2V2zm-2-2v12h-4V0zM0 10V2h2v8zm2 2V0h4v12zM14 0v36h-2V0z"/></symbol>

<symbol id="c_icon34" viewBox="0 0 42.00651 38.01148"><path d="M30.594 38.01h-19a2.002 2.002 0 0 1-2-2V17.427l-3.272 1.156a2.65 2.65 0 0 1-1.87-.31 1.953 1.953 0 0 1-1.206-1.115L.148 8.52a2.27 2.27 0 0 1 1.27-2.902L14.463.128c1.415-.564 2.257.98 2.66 1.725l.143.253c.256.43 1.634 2.568 3.648 2.568 2.12 0 3.57-2.155 3.84-2.586l.12-.215C25.29 1.118 26.15-.452 27.54.125l13.04 5.488a2.266 2.266 0 0 1 1.274 2.923l-3.15 8.443a2.393 2.393 0 0 1-3.01 1.385l-3.1-.987v18.63a2.002 2.002 0 0 1-2 2zm-21-22.584a2 2 0 0 1 2 2V36.01h19V14.645l5.73 1.823a.4.4 0 0 0 .514-.208l3.145-8.428a.278.278 0 0 0-.16-.37L27.076 2.1a7.16 7.16 0 0 0-.45.738l-.225.386c-.596.926-2.49 3.45-5.395 3.45-3.013 0-4.846-2.55-5.407-3.462l-.076-.124-.155-.28a6.833 6.833 0 0 0-.43-.712L2.204 7.456a.288.288 0 0 0-.178.372l3.052 8.51a2.838 2.838 0 0 0 .722.308l3.128-1.105a1.983 1.983 0 0 1 .666-.113zm-3.92 1.265l-.046.018zm-.55-.215l.015.037-.016-.036z" fill="#244566"/><path fill="#244566" d="M27.594 31.01v2h-13v-2z"/></symbol>

<symbol id="c_icon231" viewBox="0 0 42.00651 38.01148"><path d="M30.594 38.01h-19a2.002 2.002 0 0 1-2-2V17.427l-3.272 1.156a2.65 2.65 0 0 1-1.87-.31 1.953 1.953 0 0 1-1.206-1.115L.148 8.52a2.27 2.27 0 0 1 1.27-2.902L14.463.128c1.415-.564 2.257.98 2.66 1.725l.143.253c.256.43 1.634 2.568 3.648 2.568 2.12 0 3.57-2.155 3.84-2.586l.12-.215C25.29 1.118 26.15-.452 27.54.125l13.04 5.488a2.266 2.266 0 0 1 1.274 2.923l-3.15 8.443a2.393 2.393 0 0 1-3.01 1.385l-3.1-.987v18.63a2.002 2.002 0 0 1-2 2zm-21-22.584a2 2 0 0 1 2 2V36.01h19V14.645l5.73 1.823a.4.4 0 0 0 .514-.208l3.145-8.428a.278.278 0 0 0-.16-.37L27.076 2.1a7.16 7.16 0 0 0-.45.738l-.225.386c-.596.926-2.49 3.45-5.395 3.45-3.013 0-4.846-2.55-5.407-3.462l-.076-.124-.155-.28a6.833 6.833 0 0 0-.43-.712L2.204 7.456a.288.288 0 0 0-.178.372l3.052 8.51a2.838 2.838 0 0 0 .722.308l3.128-1.105a1.983 1.983 0 0 1 .666-.113zm-3.92 1.265l-.046.018zm-.55-.215l.015.037-.016-.036z" fill="#244566"/><path fill="#244566" d="M27.594 31.01v2h-13v-2z"/></symbol>

<symbol id="c_icon35" viewBox="0 0 39 40"><path fill="#244566" d="M1.083 20.67L0 19.58 19.5 0l1.084 1.088-19.5 19.58"/><path fill="#244566" d="M39 19.58l-1.083 1.09-19.5-19.582L19.497 0 39 19.58M34.597 38V23h-2v15h-8V28h-10v10h-8V23h-2v15h-4v2h38v-2h-4zm-18-8h6v8h-6v-8z"/></symbol><symbol id="c_icon36" viewBox="0 0 40.74813 39.00635"><path d="M19.687 10.066l9.014 9.047-16.485 16.55a5.057 5.057 0 0 1-7.65-.01L3.49 34.577c-2.42-2.43-2.536-5.707-.28-7.97l16.477-16.54m0-2.267L2.075 25.476c-2.93 2.942-2.685 7.25.28 10.228l1.075 1.078a6.648 6.648 0 0 0 9.917.008L30.96 19.114 19.686 7.8z" fill="#244566"/><path fill="#244566" d="M31.664 21.234L17.574 7.092l1.41-1.414 14.09 14.142-1.41 1.414M21.8 19.82l-7.044-7.07.704-.708 7.045 7.07-.704.708m-5.635 1.414l-4.93-4.95.703-.706 4.93 4.95-.703.706m-6.34 7.78l-4.932-4.95.705-.708 4.93 4.95-.703.707m4.93-2.123L7.71 19.82l.706-.707 7.044 7.07-.704.708m13.25-20.843a3.043 3.043 0 0 1-2.17-5.17A2.965 2.965 0 0 1 27.952 0a3.043 3.043 0 0 1 2.17 5.17 2.968 2.968 0 0 1-2.116.877zM27.952 1.5a1.476 1.476 0 0 0-1.053.436 1.543 1.543 0 0 0 1.105 2.61 1.476 1.476 0 0 0 1.053-.435A1.543 1.543 0 0 0 27.95 1.5zm9.065 9.207A3.808 3.808 0 0 1 34.3 4.24a3.707 3.707 0 0 1 2.644-1.095A3.807 3.807 0 0 1 39.66 9.61a3.702 3.702 0 0 1-2.643 1.097zm-.073-6.062a2.216 2.216 0 0 0-1.58.654 2.292 2.292 0 0 0 .025 3.226 2.317 2.317 0 0 0 3.206.026 2.307 2.307 0 0 0-1.652-3.908z"/></symbol><symbol id="c_icon37" viewBox="0 0 40 38"><path d="M38 8v28H2V8h36m1-2H1a1 1 0 0 0-1 1v30a1 1 0 0 0 1 1h38a1 1 0 0 0 1-1V7a1 1 0 0 0-1-1z" fill="#244566"/><path d="M26 2v4H14V2h12m1-2H13a1 1 0 0 0-1 1v6a1 1 0 0 0 1 1h14a1 1 0 0 0 1-1V1a1 1 0 0 0-1-1zm-9 14h4v16h-4z" fill="#244566"/><path fill="#244566" d="M12 24v-4h16v4zM4 7h4v4H4zm28 0h4v4h-4z"/></symbol>
<symbol id="c_icon38" viewBox="0 0 38.75 40"><path fill="#244566" d="M18.525 0h1.5v5.58h-1.5zM7.938 2.347l1.3-.75 2.788 4.834-1.3.75zm25.23 7.463L38 7.02l.75 1.3-4.832 2.79zm-6.446-3.702l2.79-4.832 1.3.75-2.79 4.832zM0 7.998l.75-1.3L5.58 9.49l-.75 1.298z"/><path d="M34.375 20.273a.6.6 0 0 1-.16.394l.008.005-14.318 19.092-.008-.006a.685.685 0 0 1-1.045 0l-.007.006-14.32-19.092.01-.005a.562.562 0 0 1-.015-.77l-.01-.006.044-.04a.588.588 0 0 1 .05-.045l8.09-7.55.008.007a.686.686 0 0 1 .536-.26H25.51a.686.686 0 0 1 .537.26l.01-.005 8.087 7.55a.588.588 0 0 1 .05.046l.044.04-.01.007a.6.6 0 0 1 .147.376zm-15 16.878l5.22-16.24h-10.44zm-1.867-1.382L12.73 20.91H6.365zM13.51 13.273l-6.817 6.363h6.128l3.41-6.363h-2.72zm.828 6.363h10.074l-3.41-6.363h-3.256zm10.9-6.363h-2.72l3.41 6.363h6.128zm.78 7.636l-4.776 14.856L32.385 20.91h-6.367z" fill="#244566" fill-rule="evenodd"/></symbol><symbol id="c_icon39" viewBox="0 0 40 38"><path d="M38 8v28H2V8h36m1-2H1a1 1 0 0 0-1 1v30a1 1 0 0 0 1 1h38a1 1 0 0 0 1-1V7a1 1 0 0 0-1-1z" fill="#244566"/><path d="M26 2v4H14V2h12m1-2H13a1 1 0 0 0-1 1v6a1 1 0 0 0 1 1h14a1 1 0 0 0 1-1V1a1 1 0 0 0-1-1zm-6 18v6h-2v-6h2m1-2h-4a1 1 0 0 0-1 1v8a1 1 0 0 0 1 1h4a1 1 0 0 0 1-1v-8a1 1 0 0 0-1-1z" fill="#244566"/><path fill="#244566" d="M0 20h40v2H0z"/></symbol><symbol id="c_icon40" viewBox="0 0 39.99999 40.00001"><path d="M39.966 13.68a.984.984 0 0 0-1.205-.695l-15.215 4.077a3.008 3.008 0 0 0-.6-.626l4.07-15.197a.984.984 0 1 0-1.9-.51l-4.032 15.047a2.99 2.99 0 0 0-2.968 2.74l-5.63 1.508a5.532 5.532 0 0 0 .996-4.724 6.09 6.09 0 0 0-6.123-4.192 7.95 7.95 0 0 0-2.056.273c-3.674.985-5.97 4.336-5.124 7.486A6.09 6.09 0 0 0 6.3 23.06a7.95 7.95 0 0 0 2.055-.273c.138-.037.27-.083.403-.126l.1.376 9.728-2.607a3.002 3.002 0 0 0 1 .93l-2.62 9.783.386.103c-.044.135-.102.26-.14.4-.984 3.674.77 7.336 3.92 8.18A5.118 5.118 0 0 0 22.46 40c2.713 0 5.31-2.14 6.157-5.3.985-3.674-.77-7.336-3.92-8.18a5.118 5.118 0 0 0-1.326-.175 5.767 5.767 0 0 0-3.4 1.193l1.555-5.805a2.984 2.984 0 0 0 2.546-2.774l15.2-4.075a.984.984 0 0 0 .697-1.205zM6.3 21.094a4.127 4.127 0 0 1-4.225-2.735 3.54 3.54 0 0 1 .592-2.934 5.493 5.493 0 0 1 3.142-2.142 5.987 5.987 0 0 1 1.546-.206 4.127 4.127 0 0 1 4.222 2.735 3.54 3.54 0 0 1-.592 2.933 5.494 5.494 0 0 1-3.142 2.142 5.986 5.986 0 0 1-1.547.206zm17.07 7.22a3.16 3.16 0 0 1 .818.108 3.54 3.54 0 0 1 2.245 1.98 5.494 5.494 0 0 1 .284 3.79c-.597 2.227-2.387 3.842-4.258 3.842a3.158 3.158 0 0 1-.82-.107c-2.095-.562-3.23-3.15-2.53-5.77.6-2.227 2.39-3.842 4.26-3.842z" fill="#244566"/></symbol><symbol id="c_icon41" viewBox="0 0 28 40"><path d="M14 29s-2.25 2.452-2.25 3.714a2.25 2.25 0 1 0 4.5 0C16.25 31.452 14 29 14 29zm0-14s-2.25 2.452-2.25 3.714a2.25 2.25 0 1 0 4.5 0C16.25 17.452 14 15 14 15zm0-13c7.444 0 12 2.59 12 4s-4.556 4-12 4S2 7.41 2 6s4.556-4 12-4m0-2C6.268 0 0 2.686 0 6s6.268 6 14 6 14-2.686 14-6-6.268-6-14-6z" fill="#244566"/><rect y="5" width="2" height="30" rx="1" ry="1" fill="#244566"/><rect x="26" y="5" width="2" height="30" rx="1" ry="1" fill="#244566"/><path d="M14 38c-7.444 0-12-2.59-12-4H0c0 3.314 6.268 6 14 6s14-2.686 14-6h-2c0 1.41-4.556 4-12 4zm0-14c-7.444 0-12-2.59-12-4H0c0 3.314 6.268 6 14 6s14-2.686 14-6h-2c0 1.41-4.556 4-12 4z" fill="#244566"/><ellipse cx="18.5" cy="6" rx="2.25" ry="1.35" fill="#244566"/></symbol>

<symbol id="c_icon413" viewBox="0 0 42.00065 42.0001"><path d="M19.47 42a2.047 2.047 0 0 1-1.338-.497 2.025 2.025 0 0 1-.704-1.532l-.014-6.212A16.58 16.58 0 0 1 6.61 31.325 17.817 17.817 0 0 1 .92 25.49q-.372-.616-.7-1.264a2.03 2.03 0 0 1 1.063-2.805c.058-.02 7.536-3.016 9.624-3.852a7.922 7.922 0 0 1 5.96-6.278l.525-5.99a2.04 2.04 0 0 1 1.382-1.75 2.062 2.062 0 0 1 2.16.556l2.64 2.89 1.588-5.522A2.035 2.035 0 0 1 27.054.002a2.01 2.01 0 0 1 1.99 1.337L41.877 36.47a2.033 2.033 0 0 1-1.64 2.71l-20.49 2.8a2.367 2.367 0 0 1-.278.017zm-.06-10.62l.018 8.587L39.965 37.2l-12.8-35.175-2.66 8.957-5.046-5.525-.736 7.557-.79.108a5.932 5.932 0 0 0-5.126 5.262l-.063.6-.56.226-10.16 4.067-.026.025a.024.024 0 0 0 .002.02q.293.58.628 1.13a15.804 15.804 0 0 0 5.044 5.18 14.614 14.614 0 0 0 10.55 1.975zm-2.287-8.84a2.844 2.844 0 1 1 2.836-2.844 2.843 2.843 0 0 1-2.838 2.844zm0-3.687a.844.844 0 1 0 .836.843.84.84 0 0 0-.838-.843z" fill="#244566"/><path d="M1.663 26.442l-.512-2.956a1.206 1.206 0 0 0 .315-1.073l2.964-.465a3.844 3.844 0 0 1-2.766 4.494z" fill="#244566"/></symbol><symbol id="c_icon417" viewBox="0 0 40 38"><path d="M39.124 36.217H25.4l-4.78-19.842 17.81-5.465a.884.884 0 0 0 .58-.575.905.905 0 0 0-.132-.813 21.585 21.585 0 0 0-17.29-8.81 21.148 21.148 0 0 0-4.47.48c-.2.055-.748.175-.928.222l-.23-.78A.874.874 0 0 0 14.866.04a.896.896 0 0 0-.585 1.112l.23.78c-.174.06-.596.21-.892.335A21.477 21.477 0 0 0 4.515 9.22 22.195 22.195 0 0 0 0 21.45a.898.898 0 0 0 .334.753.86.86 0 0 0 .795.154L18.94 16.89l4.625 19.327H11.8a.892.892 0 0 0 0 1.783h27.324a.892.892 0 0 0 0-1.783zM15.852 3.36q.68-.208 1.37-.365a12.862 12.862 0 0 1 8.824 5.293 18.852 18.852 0 0 1 2.275 3.862L10.23 17.702a19.067 19.067 0 0 1-.2-4.498 13.235 13.235 0 0 1 4.48-9.374q.66-.258 1.345-.47zm20.83 6.223l-6.67 2.048a20.448 20.448 0 0 0-2.55-4.39 15.79 15.79 0 0 0-5.67-4.74 19.823 19.823 0 0 1 14.89 7.084zm-26.267-3.57a16.233 16.233 0 0 0-2.138 7.114 20.744 20.744 0 0 0 .26 5.094l-6.672 2.05a20.374 20.374 0 0 1 8.55-14.255zm0 0" fill="#244566"/><path d="M34.238 22.462a5 5 0 1 0 5 5 5.006 5.006 0 0 0-5-5zm3.437 5a3.41 3.41 0 0 1-.482 1.746 5.217 5.217 0 0 1-3.613-5.117 3.43 3.43 0 0 1 4.095 3.373zm-6.874 0a3.438 3.438 0 0 1 1.76-2.995 6.224 6.224 0 0 0 3.917 5.6A3.432 3.432 0 0 1 30.8 27.46zm0 0" fill="#244566"/></symbol><symbol id="c_icon42" viewBox="0 0 40 40"><path d="M38 2v36H24V2h14m2-2H22v40h18V0z" fill="#244566"/><path fill="#244566" d="M22.5 28h17v2h-17zm5.5 5h6v2h-6zm6-19h2v6h-2zm-18 8v16H2V22h14m2-2H0v20h18V20z"/><path fill="#244566" d="M.5 30h17v2H.5zM6 34h6v2H6zm0-9h6v2H6z"/></symbol><symbol id="c_icon43" viewBox="0 0 38 40"><path fill="#244566" d="M4 8h2v10H4zm29 2h2v25h-2zM0 6V4h38v2z"/><path fill="#244566" d="M29 0h2v38h-2z"/><path fill="#244566" d="M37.962 2v6h-8V2zM36 37v3H23.02v-3zM9 22v3H1v-3zm-1-4v2H2v-2zm1 9v3H1v-3z"/></symbol><symbol id="c_icon430" viewBox="0 0 42.00115 42"><path d="M32.527 42c-7 0-9.485-3.86-9.485-7.165h2c0 3.234 2.798 5.165 7.485 5.165A7.196 7.196 0 0 0 40 32.608a6.474 6.474 0 0 0-.67-2.725L31.054 7.77C30.064 4.786 29.138 2 23.268 2c-4.234 0-5.544 1.622-7.204 3.675-2.108 2.61-4.498 5.567-12.737 5.567l-.16-.013a1.405 1.405 0 0 0-1.014.214 1.543 1.543 0 0 0-.063 1.25c.254 1.117 4.074 21.5 4.906 25.94h.068l.12.893a.514.514 0 0 0 .51.472c8.244 0 11.026-4.123 13.48-7.76 2.21-3.288 4.106-6.113 9.44-6.113 6.775 0 8.3 4.8 8.3 6.48a6.084 6.084 0 0 1-6.387 6.313c-4.066 0-6.398-1.488-6.398-4.085 0-2.258 2.67-4.077 4.88-4.077 1.994 0 3.28.694 3.28 1.767a1.414 1.414 0 0 1-1.386 1.364 1.53 1.53 0 0 1-1.596-1.125c-.094-.005-.194-.008-.298-.008-1.293 0-2.883 1.145-2.883 2.077 0 1.815 2.754 2.086 4.397 2.086a4.084 4.084 0 0 0 4.387-4.312c0-1.162-1.157-4.48-6.3-4.48-4.267 0-5.66 2.073-7.766 5.21C20.372 37.008 17 42 7.694 42a2.51 2.51 0 0 1-2.233-1.364h-.1l-.176-.816C3.534 31.008.356 14.09.14 13.142a3.212 3.212 0 0 1 .555-3.066 3.275 3.275 0 0 1 2.7-.834c7.228-.015 9.203-2.46 11.114-4.824C16.262 2.246 18.08 0 23.266 0c7.314 0 8.677 4.106 9.672 7.104l8.23 22a8.306 8.306 0 0 1 .83 3.504A9.132 9.132 0 0 1 32.527 42zm.272-10.107h-.035a.557.557 0 0 0-.445.433l.907-.12a.464.464 0 0 0-.428-.313z" fill="#244566"/><path fill="#244566" d="M13.797 32.518l-1.52.297-3.543-18.33 1.52-.297 3.543 18.33"/></symbol><symbol id="c_icon44" viewBox="0 0 40 32.09837"><path d="M40 23.885c0-1.903-.895-3.69-1.63-5.447l-2.88-6.885c-.808-1.93-1.616-5.15-2.423-7.08a9.582 9.582 0 0 0-.94-1.9A6 6 0 0 0 27.12.053a5.89 5.89 0 0 0-5 2.857c-.868 1.502-.818 3.854-.594 5.854H18.48a12.31 12.31 0 0 0-.292-5.25 5.913 5.913 0 0 0-3.91-3.318 5.996 5.996 0 0 0-5.304 1.17 6.83 6.83 0 0 0-1.916 2.77c-1.706 4.05-3.406 9.4-5.11 13.453-.82 1.957-1.94 4.044-1.948 6.207l.003-.034h.004a7.664 7.664 0 0 0 3.22 6.612 8.48 8.48 0 0 0 7.802 1.198 8.273 8.273 0 0 0 5.15-5.767 34.524 34.524 0 0 0 .533-3.574c.204-1.516.407-3.47.61-4.47h5.36c.333 2 .617 4.903 1.002 7.382A8.205 8.205 0 0 0 40 23.884zM27.285 1.69a4.442 4.442 0 0 1 4.08 2.925c.248.594.498 1.185.747 1.778 1.007 2.4 2.015 6.09 3.022 8.49l.82 1.953a8.266 8.266 0 0 0-11.31 3.052l-.84-6.246c-.275-2.05-.71-5.428-.814-7.494a4.32 4.32 0 0 1 4.295-4.46zM8.645 4.606a4.83 4.83 0 0 1 2.52-2.622 4.29 4.29 0 0 1 5.802 4.686c-.363 2.952-.792 7.187-1.188 10.134l-.416 3.084a8.266 8.266 0 0 0-11.31-3.052zm-3.633 25.04c-2.28-1.238-3.955-3.946-3.348-6.552a7.576 7.576 0 0 1 1.83-3.755 6.55 6.55 0 0 1 10.078 8.304 6.69 6.69 0 0 1-8.56 2.002c-2.046-1.11.93.505 0 0zm12.533-13.883l.715-5h3.488l.716 5h-4.92zM31.797 30.44a6.553 6.553 0 1 1 2.754-12.5 6.76 6.76 0 0 1 3.83 6.63 6.67 6.67 0 0 1-6.582 5.87z" fill="#244566"/><path d="M9.104 20.628a.8.8 0 0 0-.8-.8 4.195 4.195 0 0 0-4.2 4.194.8.8 0 0 0 1.6 0 2.595 2.595 0 0 1 2.6-2.596.8.8 0 0 0 .8-.798zm22.4-.798a4.195 4.195 0 0 0-4.2 4.192.8.8 0 0 0 1.6 0 2.595 2.595 0 0 1 2.6-2.596.8.8 0 1 0 0-1.597z" fill="#244566"/></symbol><symbol id="c_icon45" viewBox="0 0 40 38.40258"><path fill="#244566" d="M34.68 38.302l1.098-1.163-16.2-17.06-1.1 1.164L34.68 38.302m-21.31-16.31l3.61-3.834L.903 1.276 0 2.234l13.37 19.758M3.324 37.24l1.1 1.163L14.92 27.33l-1.1-1.162L3.325 37.24m17.652-25.287l7.7 8.13 1.102-1.162-7.703-8.127-1.1 1.16m4.4-2.32l8.02-8.47L32.297 0l-8.02 8.47 1.1 1.162m3.3 3.483l8.02-8.47-1.1-1.162-8.02 8.47 1.1 1.162m3.303 3.483L40 8.128l-1.1-1.162-8.02 8.47 1.1 1.162"/><path fill="#244566" d="M22.078 15.437l3.3 3.484 1.1-1.16-3.3-3.483-1.1 1.16"/></symbol>

<symbol id="c_icon46" viewBox="0 0 42 40"><path d="M15.002 18.094a1.75 1.75 0 1 0 1.75 1.75 1.752 1.752 0 0 0-1.75-1.75zm0 2.43a.625.625 0 1 1 .62-.625.623.623 0 0 1-.62.623zm4.995-6.986a.456.456 0 0 0-.454.457.392.392 0 1 1-.756 0l-.002-.01.002-.02a1.35 1.35 0 0 0-1.407-1.286 1.226 1.226 0 0 0-.887.515 1.486 1.486 0 0 0-.267 1.005.456.456 0 0 0 .45.417c.015 0 .03 0 .043-.002a.456.456 0 0 0 .41-.497.57.57 0 0 1 .096-.382.337.337 0 0 1 .234-.146.453.453 0 0 1 .423.46l.002.003a1.287 1.287 0 1 0 2.566-.058.456.456 0 0 0-.452-.457zm-2.11 10.13a.454.454 0 1 0-.894-.16 6.94 6.94 0 0 0 1.834 5.74.45.45 0 0 0 .64 0 .46.46 0 0 0 0-.647 6.117 6.117 0 0 1-1.58-4.93zm-.177 9.817a.767.767 0 1 0 .76.766.764.764 0 0 0-.76-.764zm0 1.073a.307.307 0 1 1 .304-.307.306.306 0 0 1-.304.31zm9.292-16.464a1.75 1.75 0 1 0 1.75 1.75 1.752 1.752 0 0 0-1.75-1.75zm0 2.358a.666.666 0 1 1 .66-.666.665.665 0 0 1-.66.666z" fill="#244566"/><path d="M21.04 40a.294.294 0 0 1-.036-.003.29.29 0 0 1-.043.003h-.792a2.703 2.703 0 0 1-2.495-1.622 2.463 2.463 0 0 1-.042-.247.913.913 0 0 1-.09-.06 1.822 1.822 0 0 1-.323-.05 3.9 3.9 0 0 1-3.555-3.924 3.59 3.59 0 0 1 .487-1.79 23.74 23.74 0 0 1-3.973-9.51 19.833 19.833 0 0 1-.32-3.973 7.363 7.363 0 0 1-3.446.855 7.842 7.842 0 0 1-3.784-.974A4.747 4.747 0 0 1 .348 16.55a3.268 3.268 0 0 1-.3-1.985 2.377 2.377 0 0 1 1.68-1.874 8.063 8.063 0 0 1 2.503-.394 10.957 10.957 0 0 1 5.91 1.962c.064-.556.123-.99.16-1.26-3.2-2.643-3.27-7.443-3.27-7.648.09-2.987.517-4.624 1.334-5.16A1.12 1.12 0 0 1 8.977 0a.966.966 0 0 1 .188.018 1.333 1.333 0 0 1 .982 1.33.556.556 0 0 1 .004.062 9.54 9.54 0 0 0 4.056 7.502 9.603 9.603 0 0 1 6.356-2.385c.23 0 .383.01.44.014.058-.002.21-.012.44-.012a9.603 9.603 0 0 1 6.355 2.384 9.58 9.58 0 0 0 4.055-7.508c0-.018.002-.036.004-.054A1.335 1.335 0 0 1 32.86.015.845.845 0 0 1 33.023 0a1.122 1.122 0 0 1 .614.19c.817.536 1.24 2.167 1.334 5.132 0 .214-.066 5.03-3.27 7.674.038.27.096.703.16 1.26a10.96 10.96 0 0 1 5.91-1.96 8.116 8.116 0 0 1 2.525.402 2.383 2.383 0 0 1 1.66 1.888c.184.884-.115 2.916-2.597 4.125a7.828 7.828 0 0 1-3.768.967 7.36 7.36 0 0 1-3.447-.857 19.992 19.992 0 0 1-.324 4 23.486 23.486 0 0 1-3.967 9.476 3.56 3.56 0 0 1 .486 1.782 3.884 3.884 0 0 1-3.556 3.91 2.75 2.75 0 0 1-.322.017c-.028 0-.06 0-.093-.002-.01.04-.024.337-.04.375A2.703 2.703 0 0 1 21.833 40h-.795zm-1.995-2.43a1.464 1.464 0 0 0 1.122.353h.794a.277.277 0 0 1 .04.003.273.273 0 0 1 .04-.003h.796a1.465 1.465 0 0 0 1.12-.353 3.212 3.212 0 0 1-.636-.34 1.73 1.73 0 0 0-1.135-.51l-.143.01a.225.225 0 0 1-.038.003.26.26 0 0 1-.043.006l-.14-.004a1.647 1.647 0 0 0-1.137.493 3.02 3.02 0 0 1-.637.34zm-1.778-5.678a2.19 2.19 0 0 0-2.192 2.187 2.465 2.465 0 0 0 2.192 2.5.697.697 0 0 1 .127.012 1.27 1.27 0 0 0 .153.008 2.13 2.13 0 0 0 1.278-.45 3.174 3.174 0 0 1 1.97-.818l.17.002a.29.29 0 0 1 .033.004.285.285 0 0 1 .042-.004l.164-.002a3.175 3.175 0 0 1 1.973.82 2.13 2.13 0 0 0 1.276.448 1.166 1.166 0 0 0 .164-.01.776.776 0 0 1 .117-.01 2.465 2.465 0 0 0 2.192-2.5 2.193 2.193 0 0 0-3.415-1.816.704.704 0 1 1-.79-1.165 3.58 3.58 0 0 1 4.174.12 23.03 23.03 0 0 0 3.536-8.65c.616-3.02.116-7.523-.094-9.11a4.005 4.005 0 0 1-2.06-.94 3.407 3.407 0 0 1-1.278-2.435 8.16 8.16 0 0 0-5.575-2.15c-.2 0-.316.008-.322.008l-.027.002A.436.436 0 0 1 21 7.94a.43.43 0 0 1-.07.006l-.03-.002c-.018 0-.126-.008-.304-.008a8.194 8.194 0 0 0-5.594 2.15 3.415 3.415 0 0 1-1.28 2.437 4.02 4.02 0 0 1-2.057.937c-.21 1.588-.71 6.086-.098 9.08a22.913 22.913 0 0 0 3.54 8.68 3.58 3.58 0 0 1 4.175-.12.704.704 0 0 1-.792 1.164 2.182 2.182 0 0 0-1.223-.372zM32.1 17.152a6.1 6.1 0 0 0 6.553.342c.023-.014.045-.027.067-.038 2.146-1.037 1.856-2.56 1.843-2.624-.006-.025-.01-.056-.013-.08a.974.974 0 0 0-.675-.712 6.658 6.658 0 0 0-2.074-.328 10.072 10.072 0 0 0-5.782 2.17c.033.426.06.852.082 1.27zM4.193 13.71a6.584 6.584 0 0 0-2.048.322.984.984 0 0 0-.695.715.745.745 0 0 1-.013.087c-.013.064-.306 1.58 1.843 2.62a.766.766 0 0 1 .068.037 6.1 6.1 0 0 0 6.552-.34c.022-.415.05-.84.084-1.268a10.122 10.122 0 0 0-5.79-2.17zm24.233-3.52a2.152 2.152 0 0 0 .783 1.27 2.42 2.42 0 0 0 1.31.594.794.794 0 0 0 .117-.008c2.822-2.158 2.92-6.666 2.92-6.71a15.15 15.15 0 0 0-.344-3.118 10.77 10.77 0 0 1-4.787 7.97zm-17.064 1.856a.785.785 0 0 0 .114.008 2.443 2.443 0 0 0 1.31-.588 2.16 2.16 0 0 0 .786-1.277A10.783 10.783 0 0 1 8.787 2.22a15.32 15.32 0 0 0-.345 3.143c.004.175.13 4.547 2.92 6.682z" fill="#244566"/><path d="M24.622 12.68a1.35 1.35 0 0 0-1.408 1.286l.002.02-.002.01a.392.392 0 1 1-.757 0 .454.454 0 1 0-.907 0 1.287 1.287 0 1 0 2.566.057v-.004a.456.456 0 0 1 .423-.46.34.34 0 0 1 .234.145.57.57 0 0 1 .096.382.456.456 0 0 0 .412.497l.042.002a.455.455 0 0 0 .45-.416 1.48 1.48 0 0 0-.267-1.004 1.225 1.225 0 0 0-.885-.517zm-.14 10.46a.457.457 0 0 0-.37.53 6.078 6.078 0 0 1-1.58 4.93.46.46 0 0 0 0 .648.45.45 0 0 0 .643 0 6.942 6.942 0 0 0 1.833-5.74.454.454 0 0 0-.526-.37zm-.192 11.878a.767.767 0 1 0-.76-.767.765.765 0 0 0 .76.77zm0-1.073a.307.307 0 1 1-.303.306.306.306 0 0 1 .304-.304z" fill="#244566"/></symbol>

<symbol id="c_icon48" viewBox="0 0 40 38"><path d="M36 11v25H4V11h32m2-2H2v29h36V9z" fill="#244566"/><path d="M26 18v2H14v-2h12m1-2H13a1 1 0 0 0-1 1v4a1 1 0 0 0 1 1h14a1 1 0 0 0 1-1v-4a1 1 0 0 0-1-1zM38 2v7H2V2h36m1-2H1a1 1 0 0 0-1 1v9a1 1 0 0 0 1 1h38a1 1 0 0 0 1-1V1a1 1 0 0 0-1-1zM16 29h2v8h-2zm6 0h2v8h-2z" fill="#244566"/></symbol><symbol id="c_icon49" viewBox="0 0 33 40"><path fill="#244566" d="M31 12h2v7h-2zM13 40v-2h7v2zm0-38V0h7v2zM0 12h2v7H0zm28.41 0H20V4h-7v8H4v7h9v17h7V19h9v-7h-.59zm-9 5H18v17h-3V17H6v-3h9V6h3v8h9v3h-7.59z"/></symbol><symbol id="icon_action" viewBox="0 0 12.00635 20"><path d="M2.703 19.9a.352.352 0 0 1-.575-.386c1.367-2.628 4-7.107 3.877-7.383-.174-.383-5.74-1.32-6-2C-.195 9.61 6.348 2.85 9.343.1a.353.353 0 0 1 .576.383c-1.355 2.64-4.015 7.44-3.916 7.648.135.29 5.835 1.284 6 2 .126.553-6.31 7.01-9.302 9.77z" fill="#bccee5"/></symbol><symbol id="icon_add_product" viewBox="0 0 21.81818 20"><path d="M.008 4.084a.536.536 0 0 1 .62-.443l4.772.97.166.55 2.65 8.114a3.208 3.208 0 0 0-.945.333L4.65 5.582l-4.205-.87a.542.542 0 0 1-.437-.628zm11.048 8.545L8.032 3.5l4.4-1.49.99 2.996 1.738-.603-.963-2.992L18.367 0l3.45 10.496-9.163 3.11a3.25 3.25 0 0 0-1.598-.977zm10.507 1.347a.545.545 0 0 1-.34.686l-8.22 2.708a.536.536 0 0 1-.1.024 3.336 3.336 0 0 0-.177-1.074l8.16-2.687a.534.534 0 0 1 .677.345zm-10.29 3.64a2.372 2.372 0 1 1-2.37-2.38 2.376 2.376 0 0 1 2.37 2.38z" fill="#bccee5" fill-rule="evenodd"/></symbol><symbol id="icon_arrow" viewBox="0 0 23 16"><path d="M13.417 0v6H0v4h13.417v6L23 8z" fill="#bccee5"/></symbol><symbol id="icon_ask" viewBox="0 0 12 20"><path d="M9 0H1a1 1 0 0 0-1 1v5h3V3h6v6H5a1 1 0 0 0-1 1v5h3v-3h4a1 1 0 0 0 1-1V1a1 1 0 0 0-1-1H9zM4 17h3v3H4z" fill="#bccee5"/></symbol><symbol id="icon_attach" viewBox="0 0 15 20"><path d="M2.666 19.253a5.712 5.712 0 0 1-1.95-7.612l.76-1.376.762-1.38L5.284 3.37l.762-1.38a3.72 3.72 0 0 1 5.2-1.456A4.08 4.08 0 0 1 12.64 5.97L10.74 9.417l-.77 1.394-2.657 4.81a2.232 2.232 0 0 1-3.12.876 2.448 2.448 0 0 1-.836-3.262L5.64 9.098l.45-.816L7.54 5.65a.744.744 0 0 1 1.042-.29.816.816 0 0 1 .278 1.086l-1.453 2.63-.45.817-2.285 4.136a.816.816 0 0 0 .28 1.086.744.744 0 0 0 1.04-.292L9.8 7.93l.38-.69.31-.56.45-.817.38-.69a2.448 2.448 0 0 0-.836-3.262 2.232 2.232 0 0 0-3.12.876l-1.142 2.07-.38.69-2.666 4.823-.38.69-.762 1.376a4.112 4.112 0 0 0-.268 3.335l.06.17c.048.12.098.24.158.36a3.956 3.956 0 0 0 .255.433c.046.072.1.14.153.208a3.81 3.81 0 0 0 .332.376c.05.05.098.096.15.142a3.68 3.68 0 0 0 5.753-1.043l1.14-2.068 3.047-5.516.38-.69.382-.687a.744.744 0 0 1 1.04-.292.816.816 0 0 1 .278 1.09l-.38.69-.382.687-4.188 7.583a5.207 5.207 0 0 1-7.282 2.04z" fill="#bccee5" fill-rule="evenodd"/></symbol><symbol id="icon_balance" viewBox="0 0 40 36.03973"><path d="M38 8.046h-3v-6a2.536 2.536 0 0 0-.79-1.682A1.26 1.26 0 0 0 33 .046L1.674 7.868A2.256 2.256 0 0 0 0 9.954v23.38a2.894 2.894 0 0 0 3.012 2.706h34.353A2.57 2.57 0 0 0 40 33.333V10.046a2.203 2.203 0 0 0-2-2zM32.94 2.02L33 8.046H10zM38 33.047a1 1 0 0 1-1 1H3a1 1 0 0 1-1-1v-22a1 1 0 0 1 1-1h34a1 1 0 0 1 1 1v22zm-7-13.432a3 3 0 1 0 3 3 3.004 3.004 0 0 0-3-3z" fill="#bccee5"/></symbol><symbol id="icon_download" viewBox="0 0 20 20"><path d="M15 9h-4V0H9v9H5l5 6zM0 18h20v2H0z" fill="#bccee5"/></symbol><symbol id="icon_face" viewBox="0 0 20 20"><path d="M15.66 14.942c-2.623-.998-3.46-1.84-3.46-3.643 0-1.085.8-.73 1.15-2.713.147-.822.855-.013.99-1.89a.967.967 0 0 0-.386-.935s.196-1.107.273-1.96C14.322 2.744 13.64 0 10 0S5.677 2.743 5.773 3.804c.077.852.273 1.96.273 1.96a.967.967 0 0 0-.386.933c.135 1.878.842 1.07.988 1.89C7 10.57 7.8 10.217 7.8 11.3c0 1.802-.837 2.644-3.46 3.642-2.63 1-4.34 2.022-4.34 2.72V20h20v-2.34c0-.696-1.71-1.717-4.34-2.718z" fill="#bccee5"/></symbol><symbol id="icon_features" viewBox="0 0 18 14"><path d="M10 0v2h8V0h-8zM0 2h8V0H0v2zm10 12h8v-2h-8v2zM0 14h8v-2H0v2zm10-8h8V4h-8v2zM0 6h8V4H0v2zm10 4h8V8h-8v2zM0 10h8V8H0v2z" fill="#bccee5" fill-rule="evenodd"/></symbol><symbol id="icon_firm" viewBox="0 0 20 20"><path d="M18.076 10A3.405 3.405 0 0 1 20 7.092a10.514 10.514 0 0 0-.824-1.99 3.22 3.22 0 0 1-3.227-1.05 3.112 3.112 0 0 1-.815-3.228A10.493 10.493 0 0 0 13.145 0a3.534 3.534 0 0 1-6.29 0 10.507 10.507 0 0 0-1.99.823A3.113 3.113 0 0 1 4.05 4.05 3.22 3.22 0 0 1 .825 5.103 10.5 10.5 0 0 0 0 7.093 3.405 3.405 0 0 1 1.924 10 3.77 3.77 0 0 1 0 13.146a10.51 10.51 0 0 0 .824 1.99 3.244 3.244 0 0 1 4.04 4.04 10.484 10.484 0 0 0 1.99.824 3.534 3.534 0 0 1 6.292 0 10.495 10.495 0 0 0 1.99-.824 3.112 3.112 0 0 1 .813-3.227 3.22 3.22 0 0 1 3.225-1.053 10.51 10.51 0 0 0 .824-1.99A3.404 3.404 0 0 1 18.075 10zM10 14.35A4.35 4.35 0 1 1 14.35 10 4.35 4.35 0 0 1 10 14.35z" fill="#bccee5"/></symbol><symbol id="icon_flag" viewBox="0 0 20 20"><path d="M19.43 3.74C6.752 9.115 11.886-5.346 2.055 2.267L0 3.047 4.073 20h2.243L4.32 11.697c8.772-7.786 5.22 8.483 15.597-7.48.24-.37-.08-.648-.488-.476z" fill="#bccee5"/></symbol><symbol id="icon_hand" viewBox="0 0 20 20"><path d="M19.973 10.154a2.893 2.893 0 0 0-2.113-2.296c-.62-.197-1.99-.137-2.843-.34C16.582 5.27 17.212 2.63 16.63 1.3A2.02 2.02 0 0 0 14.745 0c-1.61 0-1.795 1.513-2.102 2.5-.045.146-.092.297-.144.45-.286.852-2.078 2.55-4.168 3.717-1.564.873-2.94 1.746-3.003 1.796a.882.882 0 0 0-.33.69v8.486a.88.88 0 0 0 .364.713c1.26.91 5.7 1.646 7.93 1.646a3.65 3.65 0 0 0 1.86-.32c1-.568 2.332-3.78 3.306-6.48a3.288 3.288 0 0 0 1.513-3.047z" fill="#bccee5"/><rect y="8" width="3" height="11" rx="1" ry="1" fill="#bccee5"/></symbol><symbol id="icon_home" viewBox="0 0 20 20"><path d="M17 9h3L10 0 0 9h3v9H1v2h18v-2h-2V9zm-9 9v-6h4v6H8z" fill="#bccee5"/></symbol><symbol id="icon_info" viewBox="0 0 10 20"><path d="M8.205 16.443l-2.55.858 1.76-7.036c.202-.74-.813-1.535-1.895-1.06L.636 10.99a.91.91 0 0 0-.473 1.376 1.523 1.523 0 0 0 1.758.37l2.384-.674-1.69 6.72A1.164 1.164 0 0 0 3.896 20a1.564 1.564 0 0 0 .54-.106l4.783-1.6a.928.928 0 0 0 .675-1.322 1.414 1.414 0 0 0-1.69-.53zM6.457 5.967A2.985 2.985 0 1 0 3.57 2.984a2.923 2.923 0 0 0 2.887 2.983zm0 0" fill="#bccee5"/></symbol><symbol id="icon_location" viewBox="0 0 15 20"><path d="M7.5 0a7.5 7.5 0 0 0-6.303 11.566l4.99 7.72a1.563 1.563 0 0 0 2.626 0l4.99-7.72A7.5 7.5 0 0 0 7.5 0zm.052 10.833A3.333 3.333 0 1 1 10.885 7.5a3.333 3.333 0 0 1-3.333 3.333z" fill="#bccee5" fill-rule="evenodd"/></symbol><symbol id="icon_mark" viewBox="0 0 20 20"><path d="M19.167 3.896L16.104.833a2.844 2.844 0 0 0-3.812-.19L.348 10.415a.948.948 0 0 0-.07 1.404l7.902 7.9a.948.948 0 0 0 1.405-.07l9.772-11.944a2.844 2.844 0 0 0-.19-3.812zm-5.18 4.276a2.25 2.25 0 1 1 2.25-2.25 2.25 2.25 0 0 1-2.25 2.25z" fill="#bccee5"/></symbol><symbol id="icon_msg" viewBox="0 0 21 20"><path d="M12.67 17.4a6.885 6.885 0 0 0 3.78 2.306 6.757 6.757 0 0 0 2.565.24c-1.645-1.217-2.377-3.01-1.274-4.82.62-1.017 1.64-1.756 2.245-2.793C23.495 6.287 17.315 0 10.478 0 4.69 0 0 3.895 0 8.7a8.24 8.24 0 0 0 3.628 6.584C6.318 17.216 9.37 17.4 12.67 17.4z" fill="#bccee5"/></symbol><symbol id="icon_news" viewBox="0 0 20 16.00006"><path d="M8 0H0v8h8V0zm2 1v2h10V1H10zm0 6h10V5H10v2zM0 12h20v-2H0v2zm0 4h10v-2H0v2z" fill="#bccee5" fill-rule="evenodd"/></symbol><symbol id="icon_okey" viewBox="0 0 18 20"><path d="M1.316 11.077A2.304 2.304 0 0 0 0 12.38a.71.71 0 0 0 .19.456l5.507 6.853a.766.766 0 0 0 .53.31.604.604 0 0 0 .49-.31L17.744 1.675A1.147 1.147 0 0 0 18 .973 1.908 1.908 0 0 0 16.748 0a.618.618 0 0 0-.552.31L5.696 15 1.74 11.304a.472.472 0 0 0-.423-.227z" fill="#bccee5"/></symbol><symbol id="icon_pen" viewBox="0 0 20 20"><path fill="#bccee5" d="M13.333 2.223L15.556 0 20 4.444l-2.223 2.223zM0 20l6.667-2.222-4.445-4.445L0 20m3.704-8.148l8.148-8.148 4.444 4.444-8.148 8.148z"/></symbol><symbol id="icon_pin" viewBox="0 0 20 20"><path d="M5.025 13.14L.098 19.275a.45.45 0 0 0 0 .56.43.43 0 0 0 .61.064l6.026-5.02c-.308-.28-.604-.565-.88-.847-.29-.294-.565-.594-.83-.895zM17.922 2.118C16.237.4 14.334-.442 13.67.233c-.035.035-3.513 4.87-5.256 7.29A5.795 5.795 0 0 0 5.587 6.21a.76.76 0 0 0-.567.2c-.727.74.63 3.32 3.03 5.766 1.962 2 4.013 3.288 5.093 3.288a.763.763 0 0 0 .567-.2c.495-.504.02-1.867-1.093-3.46 2.378-1.775 7.12-5.32 7.154-5.353.666-.674-.162-2.614-1.847-4.33zm0 0" fill="#bccee5"/></symbol><symbol id="icon_product" viewBox="0 0 20 20"><path fill="#bccee5" fill-rule="evenodd" d="M13 0v7H7V0H0v20h20V0h-7"/></symbol><symbol id="icon_rubler" viewBox="0 0 14 20"><path d="M0 10.48h2.05V.423A14.907 14.907 0 0 1 4.4.085Q5.658 0 6.9 0a13.412 13.412 0 0 1 2.61.254 6.11 6.11 0 0 1 2.282.933 4.944 4.944 0 0 1 1.602 1.836 7.48 7.48 0 0 1-.014 5.932 5.405 5.405 0 0 1-1.646 1.92 6.562 6.562 0 0 1-2.338 1.046 12.674 12.674 0 0 1-2.67.34l-2.28.03v2.005h4.79v1.752h-4.79V20H2.05v-3.954H0v-1.752h2.05V12.26H0v-1.78zm6.957-8.502q-.75 0-1.43.042a7.9 7.9 0 0 0-1.08.127v8.164H6.64a9.04 9.04 0 0 0 1.73-.167 4.08 4.08 0 0 0 1.56-.648 3.54 3.54 0 0 0 1.125-1.31 4.51 4.51 0 0 0 .404-2.18 4.305 4.305 0 0 0-.333-1.93 3.21 3.21 0 0 0-.982-1.238 3.885 3.885 0 0 0-1.443-.66 7.457 7.457 0 0 0-1.746-.198z" fill="#bccee5"/></symbol><symbol id="icon_search" viewBox="0 0 19 20"><path d="M7.545 0a7.705 7.705 0 0 1 7.545 7.84 7.997 7.997 0 0 1-1.535 4.732l5.1 5.335a1.26 1.26 0 0 1 0 1.734 1.148 1.148 0 0 1-1.67 0l-5.133-5.37a7.31 7.31 0 0 1-4.307 1.41 7.845 7.845 0 0 1 0-15.68zm0 13.498a5.663 5.663 0 1 0-5.447-5.66 5.562 5.562 0 0 0 5.447 5.66z" fill="#bccee5"/></symbol><symbol id="icon_star" viewBox="0 0 20 20"><path d="M10.95.707L12.604 6.1a.996.996 0 0 0 .95.706h5.45a1.005 1.005 0 0 1 .604 1.802l-4.492 3.46a1.01 1.01 0 0 0-.347 1.095l1.694 5.532a.997.997 0 0 1-1.555 1.094l-4.305-3.317a.99.99 0 0 0-1.208 0L5.092 19.79a.997.997 0 0 1-1.555-1.095l1.695-5.532a1.01 1.01 0 0 0-.347-1.095L.393 8.608a1.005 1.005 0 0 1 .604-1.802h5.45a.996.996 0 0 0 .95-.707L9.05.705a.993.993 0 0 1 1.9 0z" fill="#bccee5"/></symbol><symbol id="icon_tariff" viewBox="0 0 40 34"><path d="M24 18v2h16v-2H24zm0 7h12v-2H24v2zm0 5h6v-2h-6v2zm6-28.346C30 1.056 29.408 0 28.913 0a1.027 1.027 0 0 0-.92.528L10 28l-8.1-7.783a.783.783 0 0 0-.707-.387A1.273 1.273 0 0 0 0 21.048a1.222 1.222 0 0 0 .318.774l9.177 11.65a1.27 1.27 0 0 0 .885.528 1.004 1.004 0 0 0 .813-.528l18.382-30.62a1.975 1.975 0 0 0 .425-1.2z" fill="#bccee5"/></symbol><symbol id="icon_trash" viewBox="0 0 16 20"><path fill="#bccee5" d="M11 2V0H5v2H0v2h16V2h-5M2 6v14h12V6H2zm5 12H5V8h2v10zm4 0H9V8h2v10z"/></symbol><symbol id="icon_txt" viewBox="0 0 20 14"><path d="M0 0v2h20V0H0zm15 4H0v2h15V4zM0 10h20V8H0v2zm0 4h10v-2H0v2z" fill="#bccee5" fill-rule="evenodd"/></symbol><symbol id="icon_view" viewBox="0 0 23 20"><path d="M11.5 20C5.427 20 1.03 14.175.07 10.534a2.09 2.09 0 0 1 0-1.068C1.03 5.826 5.426 0 11.5 0s10.47 5.825 11.43 9.466a2.09 2.09 0 0 1 0 1.068C21.97 14.174 17.574 20 11.5 20zm0-17.857c-3.14 0-5.778 1.926-7.51 4.08a6.095 6.095 0 0 0 0 7.555c1.732 2.153 4.37 4.08 7.51 4.08s5.778-1.927 7.51-4.08a6.095 6.095 0 0 0 0-7.556c-1.732-2.153-4.37-4.08-7.51-4.08z" fill="#bccee5" fill-rule="evenodd"/><ellipse cx="11.62" cy="10.25" rx="4.091" ry="4.25" fill="#bccee5"/></symbol><symbol id="icon_x" viewBox="0 0 17.55635 17.55635"><rect x="376" y="416" width="2" height="24" rx="1" ry="1" transform="rotate(45 698.935 -226.094)" fill="#bccee5"/><rect x="376" y="416" width="2" height="24" rx="1" ry="1" transform="rotate(-45 -313.156 662.872)" fill="#bccee5"/></symbol>
<symbol id="icon_instagram" viewBox="0 0 20 20">
<path d="M14.042 0H5.958A5.965 5.965 0 0 0 0 5.958v8.084A5.965 5.965 0 0 0 5.958 20h8.084A5.965 5.965 0 0 0 20 14.042V5.958A5.965 5.965 0 0 0 14.042 0zm3.946 14.042a3.946 3.946 0 0 1-3.946 3.946H5.958a3.946 3.946 0 0 1-3.946-3.946V5.958a3.946 3.946 0 0 1 3.946-3.946h8.084a3.946 3.946 0 0 1 3.946 3.946v8.084z" fill="url(#paint0_linear)"/><path d="M5.173 0A5.179 5.179 0 0 0 0 5.173a5.179 5.179 0 0 0 5.173 5.172 5.179 5.179 0 0 0 5.172-5.172A5.179 5.179 0 0 0 5.173 0zm0 8.333a3.16 3.16 0 1 1 0-6.321 3.16 3.16 0 0 1 0 6.321z" transform="translate(4.827 4.827)" fill="url(#paint1_linear)"/><path d="M1.24 2.479A1.24 1.24 0 1 0 1.24 0a1.24 1.24 0 0 0 0 2.479z" transform="translate(13.943 3.627)" fill="url(#paint2_linear)"/>
</symbol>
<symbol id="icon_delivery" viewBox="0 0 26 18"><path d="M19.637 11.455a3.273 3.273 0 1 0 3.277 3.272 3.279 3.279 0 0 0-3.277-3.272zm0 4.909a1.636 1.636 0 1 1 1.638-1.637 1.64 1.64 0 0 1-1.638 1.637zM8.44 11.455a3.273 3.273 0 1 0 3.276 3.272 3.279 3.279 0 0 0-3.277-3.272zm0 4.909a1.636 1.636 0 1 1 1.638-1.637 1.64 1.64 0 0 1-1.639 1.637zM21.844 2.087a.82.82 0 0 0-.733-.45h-4.315v1.636h3.81l2.231 4.431 1.464-.735z"/><path d="M10.979 13.936h6.2v1.636h-6.2zM5.981 13.936h-2.84a.818.818 0 1 0 0 1.637h2.84a.818.818 0 1 0 0-1.637zM25.828 8.935l-1.612-2.073a.819.819 0 0 0-.647-.317h-5.953V.818a.819.819 0 0 0-.82-.818H3.141a.818.818 0 1 0 0 1.636h12.836v5.728a.819.819 0 0 0 .82.818h6.371l1.193 1.535v4.22h-2.266a.818.818 0 1 0 0 1.636h3.086a.819.819 0 0 0 .819-.819V9.436a.819.819 0 0 0-.172-.501zM5.926 9.79H2.158a.818.818 0 1 0 0 1.637h3.768a.818.818 0 1 0 0-1.636zM7.81 6.573H.82a.818.818 0 1 0 0 1.636h6.99a.818.818 0 1 0 0-1.636z"/><path d="M9.15 3.355H2.157a.818.818 0 1 0 0 1.636h6.991a.818.818 0 1 0 0-1.636z"/></symbol>
<symbol id="icon_favorite" viewBox="0 0 18 20"><path d="M17.1 0H.9C.4 0 0 .3 0 .7v1.8c0 .2.3.4.6.4h16.8c.3 0 .6-.2.6-.4V.7c0-.4-.4-.7-.9-.7zM17.4 4.4H.6c-.3 0-.6.2-.6.5v14.4c0 .7 1 1 1.6.5L9 13.9l7.4 5.9c.6.4 1.6.2 1.6-.5V4.9c0-.3-.3-.5-.6-.5z"/></symbol>
<symbol id="icon_home_link" viewBox="0 0 16 14"><path d="M13.3 7.6c-.3 0-.5.2-.5.5V13H3.2V8.1c0-.3-.2-.5-.5-.5s-.5.2-.5.5v5.4c0 .3.2.5.5.5h10.6c.3 0 .5-.2.5-.5V8.1c0-.2-.2-.5-.5-.5z"/><path class="st0" d="M15.9 7.8L8.3.1c-.1-.1-.5-.1-.6 0L.1 7.8c-.1.2-.1.5 0 .7.1.1.2.1.3.1.1 0 .2 0 .3-.1L8 1.2l7.2 7.3c.2.2.5.2.7 0 .1-.2.1-.5 0-.7z"/></symbol>
</svg>