<svg xmlns="http://www.w3.org/2000/svg" width="70" height="70" viewBox="0 0 70 70"><path fill="#28333A" d="M0 68.978v-5.09h4.336v5.09h-.994v-4.287H.994v4.287H0zm8.481-5.09a1.8 1.8 0 0 1 1.886 1.728 1.82 1.82 0 0 1-1.886 1.743H7.46v1.62h-.994v-5.091H8.48zm-1.02.802v1.845h.925a.949.949 0 0 0 .987-.92.938.938 0 0 0-.987-.925H7.46zm9.647 1.743c0 1.477-.885 2.586-2.498 2.586-1.62 0-2.505-1.11-2.505-2.586 0-1.477.885-2.587 2.505-2.587 1.613 0 2.498 1.11 2.498 2.587zm-4.003 0c0 .932.518 1.736 1.505 1.736.98 0 1.497-.804 1.497-1.736s-.517-1.736-1.497-1.736c-.987 0-1.505.803-1.505 1.736zM18.538 70v-1.825h.53c.436-1.191.532-2.13.606-4.287h3.193v4.287h.565V70h-.85v-1.022h-3.193V70h-.85zm1.504-1.825h1.83V64.69h-1.278a11.87 11.87 0 0 1-.551 3.485zm9.37-4.287l-2.56 5.09h-1.069l.783-1.463-1.905-3.627h1.02l1.382 2.708 1.284-2.708h1.065zm2.664 2.178h.544l1.273-2.18 1.082.002-1.565 2.565 1.851 2.525h-1.116l-1.525-2.137h-.544v2.138h-.994v-5.09h.994v2.177zm8.567-1.376H39.12v4.288h-.994v-4.287H36.6v-.803h4.043v.802zm5.42 5.31v-1.022h-3.69v-5.09h.995v4.287h1.98v-4.287h.994v4.287h.572V70h-.852zm3.644-5.31v1.26h1.994v.775h-1.994v1.45h2.62v.803h-3.614v-5.09h3.614v.803h-2.62zm4.548 4.288v-5.09h.994v2.062h2.347v-2.062h.994v5.09h-.994v-2.252H55.25v2.253h-.994v-.001zm10.112-4.287h-1.525v4.287h-.994v-4.287h-1.524v-.803h4.042v.802h.001zm3.748-.803A1.799 1.799 0 0 1 70 65.616a1.82 1.82 0 0 1-1.885 1.743h-1.021v1.62H66.1v-5.091h2.015zm-1.021.802v1.845h.925a.948.948 0 0 0 .987-.92.938.938 0 0 0-.987-.925h-.925z"/><path fill="#E01111" d="M54.6 0H70v58.8H54.6V0z"/><path fill="#1177E0" d="M27.3 21h15.4v37.8H27.3V21z"/><path fill="#E5EAF0" d="M0 37.8h15.4v21H0v-21z"/></svg>