<?xml version="1.0" encoding="UTF-8"?>
<svg xmlns="http://www.w3.org/2000/svg" style="position: absolute;">

<symbol id="svg_eat" viewBox="0 0 24 22">
<path d="M23.8 2.605c-.954-.763-3.352 3.336-3.728 3.848l-3.142 4.284a7.045 7.045 0 0 0-8.832-.845l.51.9a5.886 5.886 0 0 1 7.262.313 7.122 7.122 0 0 1 1.346 1.62 6.13 6.13 0 0 1 .635 1.654c.2.942.428 1.068-.408 1.166a63.34 63.34 0 0 1-9.515.14 11.608 11.608 0 0 1-1.847-.11c-.276-.254.155-1.43.294-1.782a6.958 6.958 0 0 1 .415-1.012 1.7 1.7 0 0 0 .34-.55 3.567 3.567 0 0 0-.55-.885 10.41 10.41 0 0 0-.77 1.168c-.41.374-1.73.353-2.333.48A6.936 6.936 0 0 0 .31 14.16c-.95.893.383 2.2 1.023 2.89 3.228 3.51 8.22 5.725 13 4.733a15.532 15.532 0 0 0 6.55-3.22c.956-.777 2.746-2.16 2.973-3.482.29-1.676-3.393-2.084-4.428-2.26-.842-.145-1.186-.093-1.54-.872a1.467 1.467 0 0 1-.28-.473 4 4 0 0 1 .798-.976l3.58-4.46c.37-.47 2.683-2.74 1.814-3.435zM1.424 14.758c0-.93 3.473-1.147 3.96-1.2a6.738 6.738 0 0 0-.36 2.364c-.474-.064-3.6-.29-3.6-1.164zm21 0c0 .846-2.943 1.072-3.415 1.136a6.538 6.538 0 0 0-.354-2.316c.48.06 3.763.28 3.763 1.18zm-12.89-1.27Q6.08 7.36 2.634 1.23a7.023 7.023 0 0 0-.376-.668c-.618-.852-1.8-.774-1.44.46a9.97 9.97 0 0 0 1.288 2.163l4.572 7.352 1.214 1.952c.36.58.707 1.173 1.084 1.744.167.252.79 1.3 1.11.557a2.1 2.1 0 0 0-.552-1.306z"/>
</symbol>

<symbol id="svg_pay" viewBox="0 0 26 20">
<path d="M2 0h22a2 2 0 0 1 2 2v16a2 2 0 0 1-2 2H2a2 2 0 0 1-2-2V2a2 2 0 0 1 2-2zm0 2h22v16H2V2zm0 2h22v4H2V4zm3 7h3a1 1 0 0 1 1 1v2a1 1 0 0 1-1 1H5a1 1 0 0 1-1-1v-2a1 1 0 0 1 1-1zm7 1h9a1 1 0 1 1 0 2h-9a1 1 0 1 1 0-2z"/>
</symbol>

<symbol id="svg_beach_map" viewBox="0 0 22 22">
<path d="M446.812 493.966l-67.499-142.781a12.633 12.633 0 0 0-6.48-6.223l-33.58-14.949 58.185-97.518c.139-.234.27-.471.395-.713 11.568-22.579 17.434-46.978 17.434-72.515 0-42.959-16.846-83.233-47.435-113.402C337.248 15.703 296.73-.588 253.745.016c-41.748.579-81.056 17.348-110.685 47.22-29.626 29.87-46.078 69.313-46.326 111.066-.152 25.515 5.877 50.923 17.431 73.479.124.241.255.479.394.713l58.184 97.517-33.774 15.031a12.626 12.626 0 0 0-6.285 6.142L65.187 493.966a12.635 12.635 0 0 0 16.56 16.941l84.558-37.646 84.558 37.646a12.644 12.644 0 0 0 10.277 0l84.558-37.646 84.558 37.646a12.63 12.63 0 0 0 16.556-16.941zm-310.339-274.06c-9.73-19.132-14.599-39.805-14.47-61.453.428-72.429 59.686-132.17 132.094-133.173 36.166-.486 70.263 13.199 95.993 38.576 25.738 25.383 39.911 59.267 39.911 95.412 0 21.359-4.869 41.757-14.473 60.638L266.85 402.054c-3.318 5.56-8.692 6.16-10.849 6.16-2.158 0-7.532-.6-10.849-6.16L136.473 219.906zm214.361 227.985a12.644 12.644 0 0 0-10.277 0l-84.558 37.646-84.558-37.646a12.644 12.644 0 0 0-10.277 0l-58.578 26.08 50.938-107.749 32.258-14.356 37.668 63.133c6.904 11.572 19.072 18.481 32.547 18.481 13.475 0 25.643-6.909 32.547-18.48l37.668-63.133 32.261 14.361 50.935 107.744-58.574-26.081z"/>
<path d="M256.004 101.607c-31.794 0-57.659 25.865-57.659 57.658s25.865 57.658 57.659 57.658c31.793.001 57.658-25.865 57.658-57.658s-25.865-57.658-57.658-57.658zm0 90.05c-17.861.001-32.393-14.529-32.393-32.392 0-17.861 14.531-32.392 32.393-32.392 17.861 0 32.392 14.531 32.392 32.392s-14.531 32.392-32.392 32.392z"/>
</symbol>

<symbol id="svg_star" viewBox="0 0 32 31">
<path d="M30.608 10.57l-8.813-.85a1.527 1.527 0 0 1-1.263-.954l-3.156-7.8a1.5 1.5 0 0 0-2.803 0l-3.13 7.8a1.49 1.49 0 0 1-1.264.953l-8.813.85A1.56 1.56 0 0 0 .51 13.27l6.64 5.947a1.56 1.56 0 0 1 .48 1.52l-1.995 8.34a1.53 1.53 0 0 0 2.247 1.7l7.347-4.402a1.5 1.5 0 0 1 1.54 0l7.348 4.402a1.526 1.526 0 0 0 2.247-1.7l-1.97-8.34a1.56 1.56 0 0 1 .48-1.52l6.642-5.948a1.58 1.58 0 0 0-.91-2.703zm0 0"/>
</symbol>

<symbol id="svg_calendar" viewBox="0 0 24 22">
 <path fill-rule="evenodd" d="M1 4h22a1 1 0 1 0 0-2h-4V1a1 1 0 1 0-2 0v1H7V1a1 1 0 1 0-2 0v1H1a1 1 0 1 0 0 2zM23 6H1a1 1 0 0 0-1 1v14a1 1 0 0 0 1 1h22a1 1 0 0 0 1-1V7a1 1 0 0 0-1-1zM6 19H3v-3h3v3zm0-6H3v-3h3v3zm5 6H8v-3h3v3zm0-6H8v-3h3v3zm5 6h-3v-3h3v3zm0-6h-3v-3h3v3zm5 6h-3v-3h3v3zm0-6h-3v-3h3v3z"/>
</symbol>

<symbol id="svg_plane" viewBox="0 0 32 18">
<path d="M32 3.07C32 8.763 5.314 15.047 3.293 15.047c-1.133 0-2.418-.27-2.418-1.343a2.738 2.738 0 0 1 1.11-1.503L.11 8.78a.89.89 0 0 1 .428-1.25l.322-.132a2.086 2.086 0 0 1 1.795.098l3.4 1.85c1.325-.806 2.827-1.652 4.41-2.485L3.838 2.44a.893.893 0 0 1 .01-1.483l.543-.35A3.76 3.76 0 0 1 7.42.13l11.025 2.992C21.882 1.718 24.99.762 26.83.762c.49 0 .983.012 1.458.047l-3.33 1.545-.08 1.15 5.14-2.428C31.25 1.38 32 1.943 32 3.07zm-13.412 9.827l4.112 4.805a.84.84 0 0 0 1.003.216l.55-.263a2.654 2.654 0 0 0 1.468-2.7l-.514-4.527a.428.428 0 0 0-.567-.364l-5.873 2.128a.445.445 0 0 0-.18.705zm0 0"/>
</symbol>

<symbol id="svg_error" viewBox="0 0 32 32">
 <path d="M15.996 0A16 16 0 1 0 32 15.996 15.996 15.996 0 0 0 15.996 0zm0 26.21a2.216 2.216 0 0 1 0-4.426 2.216 2.216 0 0 1 0 4.427zm.833-8.45c-.32 1.088-1.323 1.108-1.66 0a40.23 40.23 0 0 1-1.75-9.258c0-4.147 5.188-4.167 5.188 0-.007 3.165-1.445 8.125-1.78 9.26zm0 0"/>
</symbol>

<symbol id="svg_car" viewBox="0 0 32 21">
<path d="M21.83 15.95H10.17L9.135 18.5l-.18.444h2.25a.393.393 0 0 1-.007-.06v-1.11a.382.382 0 1 1 .765 0v1.11a.406.406 0 0 1-.006.06h3.667a.36.36 0 0 1-.006-.06v-1.11a.382.382 0 1 1 .764 0v1.11a.406.406 0 0 1-.006.06h3.668a.405.405 0 0 1-.006-.06v-1.11a.382.382 0 1 1 .764 0v1.11a.36.36 0 0 1-.006.06h2.248l-.18-.443zm0 0"/>
<path d="M31.778 5.988a.65.65 0 0 0-.57-.4h-2.925a.65.65 0 0 0-.57.4 4.14 4.14 0 0 0-.203.82c-1.286-2.515-2.71-5.315-2.71-5.315a1.166 1.166 0 0 0-.887-.763 43.276 43.276 0 0 0-15.826 0 1.166 1.166 0 0 0-.887.763s-1.424 2.8-2.71 5.315a4.15 4.15 0 0 0-.202-.82.65.65 0 0 0-.57-.4H.792a.65.65 0 0 0-.57.4 2.966 2.966 0 0 0 0 2.252.65.65 0 0 0 .57.4H3.71a1.1 1.1 0 0 0 .008.11 1.52 1.52 0 0 0-1.064 1.458v10.06a.726.726 0 0 0 .72.732h3.628a.726.726 0 0 0 .72-.732V18.5h.587l1.25-3.087a.382.382 0 0 1 .354-.24h12.172a.382.382 0 0 1 .354.24l1.25 3.088h.588v1.768a.726.726 0 0 0 .72.732h3.627a.726.726 0 0 0 .72-.732v-10.06a1.52 1.52 0 0 0-1.063-1.457c.004-.036.006-.073.007-.11h2.917a.65.65 0 0 0 .57-.4 2.968 2.968 0 0 0 0-2.252zM8.808 2.355a57.846 57.846 0 0 1 14.384 0l2.556 6.285H6.252zM5.63 13.23v-2.065h4.404l1.308 2.065h-5.71zm20.74 0h-5.712l1.308-2.065h4.403v2.065zm0 0"/>
</symbol>

<symbol id="svg_train" viewBox="0 0 26 32">
<path d="M25.83 29.968L21 21.428a2.806 2.806 0 0 0 2.377-2.733V6.093A6.19 6.19 0 0 0 17.107 0H8.892a6.266 6.266 0 0 0-6.345 6.16v12.535a2.75 2.75 0 0 0 2.38 2.732L.17 29.967a1.358 1.358 0 0 0 .574 1.892 1.1 1.1 0 0 0 .65.14 1.405 1.405 0 0 0 1.226-.698l.433-.7h19.89l.432.7a1.347 1.347 0 0 0 1.226.698 2.117 2.117 0 0 0 .65-.14 1.362 1.362 0 0 0 .577-1.892zm-6.778-6.3H6.947l1.224-2.172h9.658zm-.214-4.692a2.032 2.032 0 1 1 2.09-2.03 2.11 2.11 0 0 1-2.09 2.03zM5.07 6.934a3.957 3.957 0 0 1 3.967-3.922h7.855a4.02 4.02 0 0 1 4.036 3.922v3.36a1.368 1.368 0 0 1-1.443 1.33H6.513a1.35 1.35 0 0 1-1.368-1.33zm2.09 7.912a2.032 2.032 0 1 1-2.09 2.03 2.062 2.062 0 0 1 2.09-2.03zM4.21 28.5l1.583-2.73h14.414l1.586 2.73H4.21zm0 0"/>
</symbol>

<symbol id="svg_wapp" viewBox="0 0 60 60">
<path fill="#2cb742" d="M0 60l4.138-15a29.84 29.84 0 0 1 25.76-45C46.344 0 60 13.448 60 29.793S46.345 60 29.897 60a30.115 30.115 0 0 1-14.587-4.138z"/>
  <path fill="#fff" d="M21.93 15.93l-1.965-.102a2.35 2.35 0 0 0-1.655.62 8.57 8.57 0 0 0-2.896 4.45c-.724 3.102.414 6.826 3.103 10.55a31.35 31.35 0 0 0 16.966 12.31 8.404 8.404 0 0 0 7.034-.827 6.104 6.104 0 0 0 2.69-3.93l.31-1.448A1.04 1.04 0 0 0 45 36.414l-6.517-3a.987.987 0 0 0-1.242.31l-2.585 3.31a.805.805 0 0 1-.827.207 20.103 20.103 0 0 1-10.862-9.31.78.78 0 0 1 .103-.827l2.482-2.793a1.274 1.274 0 0 0 .207-1.034l-3-6.724a.9.9 0 0 0-.83-.62"/>
</symbol>

<symbol id="svg_insta" viewBox="0 0 32 32">
<path d="M26.12 7.64a1.85 1.85 0 1 1-1.852-1.85 1.85 1.85 0 0 1 1.85 1.85zM32 16v.023l-.106 6.713a9.263 9.263 0 0 1-9.158 9.158L16 32h-.023l-6.713-.105a9.264 9.264 0 0 1-9.16-9.158L0 16v-.023l.105-6.713A9.264 9.264 0 0 1 9.265.106L16 0h.023l6.713.105a9.264 9.264 0 0 1 9.158 9.158zm-2.98 0l-.105-6.69a6.297 6.297 0 0 0-6.226-6.225L16 2.98l-6.69.105A6.298 6.298 0 0 0 3.084 9.31L2.98 16l.104 6.69a6.298 6.298 0 0 0 6.226 6.225l6.69.105 6.69-.105a6.297 6.297 0 0 0 6.225-6.225zm-4.804 0A8.216 8.216 0 1 1 16 7.784 8.226 8.226 0 0 1 24.216 16zm-2.98 0A5.237 5.237 0 1 0 16 21.237 5.243 5.243 0 0 0 21.237 16z"/>
</symbol>

<symbol id="svg_home" viewBox="0 0 24 24">
<path d="M.625 13.054h4.543a.51.51 0 0 1 .526.6l-.256 1.672a.734.734 0 0 1-.71.6H2.317a.61.61 0 0 0-.617.6v1.11a.61.61 0 0 0 .616.6h2.138a.546.546 0 0 1 .562.6c-.05.548-.1 1.07-.146 1.613a.544.544 0 0 0 .562.592 2.073 2.073 0 0 0 1.38-.17 6.294 6.294 0 0 0 .67-1.99.816.816 0 0 1 .765-.585h7.712a.753.753 0 0 1 .72.594c.086.507.168.982.246 1.433a.75.75 0 0 0 .72.595h1a.567.567 0 0 0 .58-.6l-.1-1.534a.565.565 0 0 1 .58-.6h2a.61.61 0 0 0 .616-.6v-1.156a.61.61 0 0 0-.618-.6h-2.38a.7.7 0 0 1-.685-.6c-.06-.546-.12-1.062-.182-1.62a.534.534 0 0 1 .55-.6h4.376a.61.61 0 0 0 .618-.6v-1.154a.556.556 0 0 0-.615-.552A8.9 8.9 0 0 1 16.11 7.88 11.218 11.218 0 0 1 13.17.61a.658.658 0 0 0-.653-.6h-1.04a.66.66 0 0 0-.652.6 11.375 11.375 0 0 1-2.9 7.228 9.118 9.118 0 0 1-7.3 2.9.58.58 0 0 0-.617.572v1.147a.61.61 0 0 0 .617.597zM.617 23.992h22.52a.61.61 0 0 0 .618-.6v-.746a.61.61 0 0 0-.617-.6H.616a.61.61 0 0 0-.617.6v.742a.61.61 0 0 0 .617.603z"/>
</symbol>

<symbol id="svg_photo" viewBox="0 0 32 26">
<path d="M29.867 4.333H24.46L23.172.843a1.28 1.28 0 0 0-1.2-.844H10.027a1.28 1.28 0 0 0-1.2.843L7.54 4.333H2.13A2.15 2.15 0 0 0 0 6.5v17.333A2.15 2.15 0 0 0 2.133 26h27.734A2.15 2.15 0 0 0 32 23.833V6.5a2.15 2.15 0 0 0-2.133-2.167zM16 6.933a8.234 8.234 0 1 1-8.107 8.234A8.18 8.18 0 0 1 16 6.933zm-5.547 8.234A5.548 5.548 0 1 0 16 9.533a5.6 5.6 0 0 0-5.547 5.634z"/>
</symbol>

<symbol id="svg_arrow" viewBox="0 0 35 100">
<path d="M21.724.59a1.272 1.272 0 0 0-2.284 1.04 9.69 9.69 0 0 0 1.313 2.32c.538.89 1.057 1.8 1.568 2.7a84.832 84.832 0 0 1 5.563 11.48A72.237 72.237 0 0 1 31.5 30.56c.376 2.03.67 4.09.845 6.15a57.608 57.608 0 0 1 .062 6.37c-.207 8.05-2.716 15.88-6.246 23.01-3.66 7.39-8.747 13.89-14.185 19.97-1.156 1.3-2.3 2.65-3.537 3.86-1.034 1.02-1.9.06-2.606-.81-.478-.6-1.355-2.05-2.24-1.4a2.518 2.518 0 0 0-.71 1.46c-.182.74-.38 1.47-.6 2.2-.534 1.8-1.1 3.59-1.64 5.39-.295.97-1.5 3.43.462 3.25a15.644 15.644 0 0 0 2.327-.58l2.9-.84c1.666-.47 3.43-.79 5.054-1.39.745-.27 1.216-.76.695-1.51a22.55 22.55 0 0 0-1.925-2.01c-1.054-1.19.127-2.06.975-2.89 1.453-1.43 2.8-2.95 4.156-4.48a101.446 101.446 0 0 0 7.67-9.76 70.732 70.732 0 0 0 10.42-22.25 55.576 55.576 0 0 0 .592-24.44 80.342 80.342 0 0 0-9.073-23.95c-1.02-1.8-2.046-3.6-3.177-5.32-.6-.95 1.028 1.57 0 0-.758-1.21 1.034 1.57.006 0z"/>
</symbol>

<symbol id="svg_zoom" viewBox="0 0 32 32">
<path d="M32 30.5a1.5 1.5 0 0 1-2.56 1.06L19.35 21.47a12.036 12.036 0 1 1 2.12-2.12l10.09 10.09A1.5 1.5 0 0 1 32 30.5zM12 3a9 9 0 1 0 9 9 9.01 9.01 0 0 0-9-9zm4 10h-3v3a1 1 0 0 1-2 0v-3H8a1 1 0 0 1 0-2h3V8a1 1 0 0 1 2 0v3h3a1 1 0 0 1 0 2z"/>
</symbol>

<symbol id="svg_sail" viewBox="0 0 26 24">
<path d="M24.995 20.106l-2.65 2.12a.63.63 0 0 1-.656.018l-2.322-1.657a1.89 1.89 0 0 0-2.1-.01l-2.377 1.67a.767.767 0 0 1-.737 0l-2.47-1.688a1.817 1.817 0 0 0-2.1.093l-1.92 1.564a.624.624 0 0 1-.654.025L4.63 20.574a1.72 1.72 0 0 0-2.1.136l-2.3 2.078a.724.724 0 0 0-.082.963.615.615 0 0 0 .486.247.6.6 0 0 0 .4-.16l2.3-2.077a.544.544 0 0 1 .6-.04l2.377 1.67a1.793 1.793 0 0 0 2.1-.08l1.92-1.565a.643.643 0 0 1 .665-.03l2.48 1.69a1.928 1.928 0 0 0 2.1-.013l2.377-1.67a.725.725 0 0 1 .717 0l2.32 1.656a1.8 1.8 0 0 0 2.1-.06l2.65-2.12a.722.722 0 0 0 .132-.955.6.6 0 0 0-.88-.137zm-9.13-1.974l5.948-4.06a1.7 1.7 0 0 0 .663-1.485C21.523 5.78 14.852 1.177 9.196.017c-.487-.1-.74.25-.558.75l6.143 16.98a.693.693 0 0 0 1.086.384zM4.323 10.59A1.337 1.337 0 1 0 3.09 9.257a1.286 1.286 0 0 0 1.232 1.33zm-.716 2.14l1.3 3.22a1.293 1.293 0 0 0 1.172.818h3.53l2.027 2.112a.77.77 0 0 0 1.145-.045.934.934 0 0 0-.04-1.24l-2.334-2.404a.737.737 0 0 0-.544-.224H7.478L6.4 12.37h1.286a.843.843 0 0 0 .413-.136l2.136-1.042a.7.7 0 0 0 .262-.548.64.64 0 0 0-.612-.662.392.392 0 0 0-.2.042l-1.967.966-3.463.01c-.743 0-1.19.39-1 .866z"/>
</symbol>

<symbol id="svg_okey" viewBox="0 0 13 13">
	<path d="M3.936 8.29L1.724 5.7a.637.637 0 0 0-.97-.03l-.57.62a.75.75 0 0 0-.015.99l3.717 5.28.214.23a.643.643 0 0 0 1.03-.1l7.73-11.02a.767.767 0 0 0-.076-.92l-.507-.54a.635.635 0 0 0-1.03.1L4.98 8.21a.64.64 0 0 1-1.044.08z"/>
</symbol>

<symbol id="svg_marker" viewBox="0 0 26 24">
<path d="M8.707 20.837H6.185a.6.6 0 1 0 0 1.054H6.3a.6.6 0 1 1 0 1.055H.88A.6.6 0 1 0 .88 24H20.71a.6.6 0 1 0 0-1.055h-1.505a.6.6 0 1 1 0-1.054h5.91a.6.6 0 1 0 0-1.053H8.707zM13 0a7.764 7.764 0 0 0-7.578 7.92 8.108 8.108 0 0 0 2 5.352l.123.137c.03.034.06.068.094.1l5.127 5.645a.308.308 0 0 0 .46 0l5.126-5.646.02-.022.1-.106.1-.113a8.1 8.1 0 0 0 2-5.352A7.764 7.764 0 0 0 13 0zm0 12.047a4.134 4.134 0 1 1 3.95-4.13 4.044 4.044 0 0 1-3.95 4.13z"/>
</symbol>

<symbol id="svg_phone" viewBox="0 0 20 20">
<path d="M11.32 14.664a.57.57 0 0 0 .5-.068c.57-.388 2.1-1.413 2.46-1.6a1.222 1.222 0 0 1 1.19-.166c.42.252 3.94 2.467 4.26 2.67a1.026 1.026 0 0 1-.02 1.408c-.46.618-2.47 3.1-3.28 3.082-.81.04-4.56.435-10.71-5.665C-.42 8.172-.03 4.415.01 3.6S2.47.72 3.09.31A.97.97 0 0 1 4.5.3c.2.315 2.41 3.84 2.66 4.26a1.4 1.4 0 0 1-.17 1.2c-.19.36-1.21 1.882-1.6 2.46a.592.592 0 0 0-.06.518 10.513 10.513 0 0 0 2.44 3.487 10.142 10.142 0 0 0 3.55 2.44z"/>
</symbol>

<symbol id="svg_slide_hand" viewBox="0 0 33 40">
<path d="M28.845 16.38c-1.364 0-1.666 2.97-1.678 3.09l.732.08-.744-.07a30.72 30.72 0 0 1-.466-3.51c0-2.26-1.435-2.43-1.874-2.43a1.866 1.866 0 0 0-1.672.84 1.282 1.282 0 0 0-.192.71l.043 1.9h-.01l-.463-3.14a1.65 1.65 0 0 0-1.65-1.66 2.33 2.33 0 0 0-1.882.93 1.3 1.3 0 0 0-.246.63l-.315 2.81v.01h-.01l-.07-12.38a1.255 1.255 0 0 0-.136-.57 1.9 1.9 0 0 0-1.724-1.13 1.98 1.98 0 0 0-1.7 1.47 1.32 1.32 0 0 0-.1.47l-.5 18.81a2.374 2.374 0 0 1-.408-1.42 14.567 14.567 0 0 0-.266-1.57 8.66 8.66 0 0 0-2.188-3.73 1.16 1.16 0 0 0-.71-.25 2.253 2.253 0 0 0-1.556.65 1.563 1.563 0 0 0-.268 1.74 18.446 18.446 0 0 1 .75 2.97 35.812 35.812 0 0 0 1.323 5.14 16.964 16.964 0 0 0 3.407 5.29 34.22 34.22 0 0 0 2.5 2.57v1.53a3.73 3.73 0 0 0 3.637 3.81h4.8a3.73 3.73 0 0 0 3.637-3.81v-1.77a.525.525 0 0 1 .092-.31 16.2 16.2 0 0 0 1.89-4.74 1.315 1.315 0 0 0 .04-.31V18.56a1.948 1.948 0 0 0-2.025-2.18zM21.32 4.82h9.156l-1.88 1.97a.806.806 0 0 0 0 1.1.712.712 0 0 0 1.048 0l3.144-3.3a.78.78 0 0 0 .217-.55.817.817 0 0 0-.217-.55L29.644.2a.707.707 0 0 0-1.048 0 .806.806 0 0 0 0 1.1l1.88 1.97h-9.157a.753.753 0 0 0-.742.77.762.762 0 0 0 .74.78zm0 0L4.41 6.79 2.53 4.82h9.156a.762.762 0 0 0 .74-.78.753.753 0 0 0-.74-.77H2.53L4.41 1.3a.806.806 0 0 0 0-1.1.707.707 0 0 0-1.05 0L.218 3.49A.817.817 0 0 0 0 4.04a.78.78 0 0 0 .217.55l3.144 3.3a.712.712 0 0 0 1.05 0 .806.806 0 0 0 0-1.1zm0 0"/>
</symbol>

<symbol id="svg_sea" viewBox="0 0 26 22">
<path d="M25.86 15.394a.89.89 0 0 1-1.248.293 9.2 9.2 0 0 0-1.095-.646 1.767 1.767 0 0 0-1.682 0 9.2 9.2 0 0 0-1.1.646 10.618 10.618 0 0 1-1.323.772 3.516 3.516 0 0 1-3.156 0 10.694 10.694 0 0 1-1.32-.77 9.237 9.237 0 0 0-1.1-.647 2.225 2.225 0 0 0-.61-.18h-.464a2.225 2.225 0 0 0-.61.18 9.244 9.244 0 0 0-1.1.647 10.726 10.726 0 0 1-1.322.772 3.49 3.49 0 0 1-3.156 0 10.606 10.606 0 0 1-1.322-.772 9.336 9.336 0 0 0-1.1-.646 1.772 1.772 0 0 0-1.682 0 9.324 9.324 0 0 0-1.1.646.89.89 0 0 1-1.248-.293.952.952 0 0 1 .284-1.288 10.593 10.593 0 0 1 1.324-.77 3.483 3.483 0 0 1 3.155 0 8.232 8.232 0 0 1 .944.527 7.194 7.194 0 0 1 14.307 0 8.19 8.19 0 0 1 .944-.528 3.485 3.485 0 0 1 3.157 0 10.73 10.73 0 0 1 1.323.77.95.95 0 0 1 .3 1.288zm-5.4-7.735a.942.942 0 0 1-1.355 0 1 1 0 0 1 0-1.393l2.128-2.185a.94.94 0 0 1 1.355 0 1 1 0 0 1 0 1.392zM13 5.064a.96.96 0 0 1-.958-.984V.98a.96.96 0 1 1 1.917 0v3.1a.96.96 0 0 1-.96.985zm-6.78 2.88a.924.924 0 0 1-.677-.287L3.416 5.473a1 1 0 0 1 0-1.392.942.942 0 0 1 1.356 0L6.9 6.267a1 1 0 0 1 0 1.392.924.924 0 0 1-.68.29zM3.63 18.8a3.06 3.06 0 0 1 2.737 0 8.936 8.936 0 0 1 1.115.65 7.486 7.486 0 0 0 .886.522 1.315 1.315 0 0 0 1.263 0 7.58 7.58 0 0 0 .888-.524 8.926 8.926 0 0 1 1.114-.65 3.062 3.062 0 0 1 2.737 0 8.96 8.96 0 0 1 1.113.65 7.607 7.607 0 0 0 .886.523 1.315 1.315 0 0 0 1.263 0 7.525 7.525 0 0 0 .886-.522 9 9 0 0 1 1.113-.65 3.062 3.062 0 0 1 2.737 0 9.05 9.05 0 0 1 1.115.65.95.95 0 0 1 .283 1.288.888.888 0 0 1-1.248.292 7.584 7.584 0 0 0-.886-.523 1.31 1.31 0 0 0-1.264 0 7.464 7.464 0 0 0-.886.523 8.86 8.86 0 0 1-1.114.65 3.055 3.055 0 0 1-2.737 0 8.8 8.8 0 0 1-1.115-.65 7.464 7.464 0 0 0-.886-.523 1.313 1.313 0 0 0-1.264 0 7.627 7.627 0 0 0-.886.523 8.9 8.9 0 0 1-1.114.65 3.055 3.055 0 0 1-2.737 0 8.9 8.9 0 0 1-1.113-.65 7.542 7.542 0 0 0-.886-.523 1.31 1.31 0 0 0-1.263 0 7.383 7.383 0 0 0-.886.523.89.89 0 0 1-1.248-.292.952.952 0 0 1 .284-1.288A9 9 0 0 1 3.63 18.8z"/>
</symbol>

<symbol id="svg_calendar" viewBox="0 0 24 22">
<path d="M23 22H1a1 1 0 0 1-1-1V7a1 1 0 0 1 1-1h22a1 1 0 0 1 1 1v14a1 1 0 0 1-1 1zm0-18H1a1 1 0 0 1 0-2h4V1a1 1 0 0 1 2 0v1h10V1a1 1 0 0 1 2 0v1h4a1 1 0 0 1 0 2zM3 10h3v3H3v-3zm5 0h3v3H8v-3zm5 0h3v3h-3v-3zm5 0h3v3h-3v-3zM3 16h3v3H3v-3zm5 0h3v3H8v-3zm5 0h3v3h-3v-3zm5 0h3v3h-3v-3z"/>
</symbol>

</svg>