<?xml version="1.0" encoding="UTF-8"?>
<svg xmlns="http://www.w3.org/2000/svg" style="position: absolute;">

<symbol id="svg_whatsapp" viewBox="0 0 28 28">
<path d="M0 28l1.931-7C.676 18.828 0 16.414 0 13.903 0 6.276 6.276 0 13.952 0S28 6.276 28 13.903C28 21.531 21.628 28 13.952 28c-2.414 0-4.731-.772-6.807-1.931L0 28z" fill="#fff"/><path d="M7.531 23.559l.434.241c1.787 1.11 3.863 1.786 6.035 1.786 6.324 0 11.586-5.262 11.586-11.683 0-6.42-5.262-11.49-11.634-11.49-6.373 0-11.538 5.118-11.538 11.49 0 2.221.627 4.394 1.786 6.228l.29.435-1.11 4.055 4.151-1.062z" fill="#2CB742"/><path d="M10.234 7.434l-.917-.048c-.29 0-.579.097-.772.29-.435.386-1.159 1.11-1.352 2.076-.338 1.448.193 3.186 1.448 4.924 1.256 1.738 3.67 4.538 7.918 5.745 1.351.386 2.413.145 3.282-.386a2.848 2.848 0 0 0 1.256-1.835l.144-.676a.485.485 0 0 0-.241-.53l-3.041-1.4a.46.46 0 0 0-.58.144l-1.207 1.545c-.096.096-.241.145-.386.096-.82-.29-3.572-1.448-5.069-4.345-.048-.144-.048-.29.049-.386l1.158-1.303c.097-.145.145-.338.097-.483l-1.4-3.138a.42.42 0 0 0-.387-.29z" fill="#fff"/>
</symbol>

<symbol id="svg_question" viewBox="0 0 32 32">
<path d="M16 0C7.163 0 0 7.163 0 16s7.163 16 16 16 16-7.163 16-16S24.837 0 16 0zm0 29.104C8.763 29.104 2.896 23.237 2.896 16 2.896 8.763 8.763 2.896 16 2.896c7.233.009 13.095 5.87 13.104 13.104 0 7.237-5.867 13.104-13.104 13.104z" fill="#fff"/><path d="M17.498 21.338h-3V24h3v-2.662zM21.832 12.086c-.772-2.86-4.009-4.623-7.23-3.938-2.709.575-4.615 2.73-4.602 5.203h3c.14-1.47 1.597-2.561 3.253-2.436 1.657.125 2.885 1.418 2.745 2.888-.307 1.323-1.644 2.257-3.164 2.21-.738 0-1.335.53-1.335 1.185v2.808h3V18.49c3.17-.726 5.1-3.576 4.333-6.403z"/>
</symbol>

<symbol id="svg_play" viewBox="0 0 22 22">
<path d="M19.733 9.24c1.401.755 1.401 2.765 0 3.52L3.449 21.536C2.116 22.253.5 21.288.5 19.775V2.225C.5.712 2.116-.253 3.449.465l16.284 8.774z" fill="#C55DEC"/>
</symbol>

<symbol id="svg_more" viewBox="0 0 32 32">
<path d="M16 18.492a2.479 2.479 0 1 0 0-4.958 2.479 2.479 0 0 0 0 4.958zM23.436 18.492a2.479 2.479 0 1 0 0-4.958 2.479 2.479 0 0 0 0 4.958zM8.564 18.492a2.479 2.479 0 1 0 0-4.958 2.479 2.479 0 0 0 0 4.958z" fill="#fff"/><path d="M16 0C7.177 0 0 7.177 0 16s7.177 16 16 16 16-7.178 16-16S24.823 0 16 0zm0 29.521C8.545 29.521 2.479 23.456 2.479 16S8.545 2.479 16 2.479c7.456 0 13.521 6.065 13.521 13.521S23.455 29.521 16 29.521z"/>
</symbol>

<symbol id="svg_phone" viewBox="0 0 18 18">
<path d="M10.198 13.194c.15.052.312.027.444-.061.517-.35 1.89-1.272 2.214-1.445.4-.213.843-.332 1.078-.15.38.227 3.546 2.221 3.83 2.403.283.18.355.715-.012 1.268-.416.556-2.226 2.788-2.956 2.774-.732.035-4.108.392-9.64-5.099-5.53-5.538-5.174-8.92-5.14-9.653C.05 2.497 2.233.638 2.786.27c.556-.417 1.085-.297 1.267-.012.181.283 2.173 3.456 2.398 3.834.135.238.065.68-.149 1.08-.171.322-1.089 1.693-1.439 2.214a.512.512 0 0 0-.054.466c.18.488.715 1.622 2.19 3.138 1.54 1.505 2.713 2.034 3.2 2.203z"/>
</symbol>

<symbol id="svg_okay" viewBox="0 0 28 28">
<path d="M.248 17.596c2.672 2.836 6.037 6.314 8.517 9.975.408.603 1.351.56 1.718-.066 5.63-9.633 11.01-16.337 17.283-23.39a.9.9 0 0 0 .197-.86L27.193.69c-.214-.713-1.178-.93-1.708-.38-4.967 5.149-10.948 12.658-15.335 19.117-.373.55-1.197.58-1.634.073-1.772-2.051-3.74-3.876-5.839-5.905-.524-.507-1.435-.309-1.67.362L.05 16.681a.89.89 0 0 0 .197.915z"/>
</symbol>

<symbol id="svg_instagram" viewBox="0 0 20 20">
<path d="M14.042 0H5.958A5.965 5.965 0 0 0 0 5.958v8.084A5.965 5.965 0 0 0 5.958 20h8.084A5.965 5.965 0 0 0 20 14.042V5.958A5.965 5.965 0 0 0 14.042 0zm3.946 14.042a3.946 3.946 0 0 1-3.946 3.946H5.958a3.946 3.946 0 0 1-3.946-3.946V5.958a3.946 3.946 0 0 1 3.946-3.946h8.084a3.946 3.946 0 0 1 3.946 3.946v8.084z" fill="url(#paint0_linear)"/><path d="M5.173 0A5.179 5.179 0 0 0 0 5.173a5.179 5.179 0 0 0 5.173 5.172 5.179 5.179 0 0 0 5.172-5.172A5.179 5.179 0 0 0 5.173 0zm0 8.333a3.16 3.16 0 1 1 0-6.321 3.16 3.16 0 0 1 0 6.321z" transform="translate(4.827 4.827)" fill="url(#paint1_linear)"/><path d="M1.24 2.479A1.24 1.24 0 1 0 1.24 0a1.24 1.24 0 0 0 0 2.479z" transform="translate(13.943 3.627)" fill="url(#paint2_linear)"/><defs><linearGradient id="paint0_linear" x2="1" gradientUnits="userSpaceOnUse" gradientTransform="matrix(0 -19.7864 -19.7864 0 19.893 19.942)"><stop stop-color="#E09B3D"/><stop offset=".3" stop-color="#C74C4D"/><stop offset=".6" stop-color="#C21975"/><stop offset="1" stop-color="#7024C4"/></linearGradient><linearGradient id="paint1_linear" x2="1" gradientUnits="userSpaceOnUse" gradientTransform="matrix(0 -19.7864 -19.7864 0 15.066 15.114)"><stop stop-color="#E09B3D"/><stop offset=".3" stop-color="#C74C4D"/><stop offset=".6" stop-color="#C21975"/><stop offset="1" stop-color="#7024C4"/></linearGradient><linearGradient id="paint2_linear" x2="1" gradientUnits="userSpaceOnUse" gradientTransform="matrix(0 -19.7864 -19.7864 0 11.133 16.315)"><stop stop-color="#E09B3D"/><stop offset=".3" stop-color="#C74C4D"/><stop offset=".6" stop-color="#C21975"/><stop offset="1" stop-color="#7024C4"/></linearGradient></defs>
</symbol>

<symbol id="svg_facebook" viewBox="0 0 10 18">
<path d="M.32 9.587h2.17v8.123c0 .16.142.29.319.29h3.679c.176 0 .32-.13.32-.29V9.625h2.494c.162 0 .298-.11.317-.257l.379-2.99a.274.274 0 0 0-.079-.226.334.334 0 0 0-.238-.098H6.807V4.18c0-.565.335-.851.995-.851H9.68c.176 0 .319-.13.319-.29V.292c0-.16-.143-.29-.32-.29H7.093C7.073.001 7.032 0 6.972 0c-.448 0-2.01.08-3.243 1.112-1.367 1.144-1.177 2.513-1.132 2.75v2.192H.32c-.176 0-.319.13-.319.29v2.952c0 .16.143.29.32.29z" fill="#3A559F"/>
</symbol>

<symbol id="svg_email" viewBox="0 0 32 24">
<path d="M29.188 0H2.813C1.262 0 0 1.243 0 2.77v18.46C0 22.753 1.258 24 2.813 24h26.375C30.733 24 32 22.761 32 21.23V2.77C32 1.247 30.742 0 29.187 0zm-.389 1.846L16.06 14.39 3.21 1.846H28.8zM1.875 20.85V3.143l9.03 8.814-9.03 8.892zm1.326 1.305l9.035-8.897 3.166 3.09a.948.948 0 0 0 1.323-.002l3.087-3.04 8.987 8.849H3.201zm26.924-1.306L21.138 12l8.987-8.848v17.696z"/>
</symbol>

<symbol id="svg_decor_left" viewBox="0 0 200 16">
<path d="M.088 7.881c.442-.01.863-.011 1.283-.033.739-.038 1.477-.133 2.215-.123 1.692.027 3.358.197 4.913.99.621-.011 1.253-.132 1.928-.246-.718-.497-1.315-.901-1.904-1.319-1.535-1.09-2.157-2.714-2.32-4.584-.032-.362-.116-.804.311-1.039.376.25.729.493 1.092.72.638.398 1.305.747 1.918 1.186 1.7 1.22 3.274 2.577 4.126 4.734 2.157.106 4.317.652 6.754.247-2.442-1.86-4.288-3.86-4.146-7.345.833.525 1.54.907 2.183 1.384 1.931 1.435 3.655 3.047 3.853 5.917.565 0 1.114.016 1.664-.003 1.863-.064 3.727.368 5.592-.029.79-.167 1.596-.252 2.54-.397-4.22-2.307-5.282-4.487-4.879-7.352.86.316 1.65.729 2.356 1.31 1.05.862 2.09 1.738 3.118 2.632.952.827 1.721 1.777 1.625 3.3.861-.045 1.666-.022 2.45-.146 1.143-.18 2.267-.23 3.397.052 1.203.3 2.403.28 3.708-.04-.2-.18-.317-.276-.427-.38-.753-.719-1.563-1.379-2.24-2.17-.751-.881-1.332-1.903-1.242-3.188.023-.322-.009-.681.397-.782 2.362 2.009 5.15 3.553 6.297 6.8 1.085.057 2.1.105 3.113.166.954.056 1.906.15 2.86.182.925.03 1.854.009 2.78-.01.155-.002.308-.109.448-.16-.75-.812-1.515-1.53-2.153-2.358-.62-.805-1.128-1.71-1.647-2.596-.202-.346-.008-.67.365-.642.393.029.809.078 1.167.238 2.293 1.018 3.668 2.964 4.63 5.276h8.082c-.25-.163-.368-.242-.487-.317a6.948 6.948 0 0 1-1.937-1.775c-.753-1.006-1.055-2.204-1.53-3.327a.99.99 0 0 1 .26-1.158c.054-.048.17-.018.325-.027l.058.65c2.139 1.555 4.655 2.682 5.547 5.668 1.596.463 3.205.072 4.798.133 1.572.06 3.145.011 4.717.011-1.59-1.111-2.762-2.579-3.783-4.188-.34-.534-.557-1.16-.791-1.76-.051-.13.067-.336.139-.645 1.271.642 2.48 1.193 3.638 1.851 1.768 1.003 2.99 2.48 3.277 4.801.718 0 1.453.004 2.187-.001 2.717-.018 5.436-.034 8.152-.067.33-.004.704.043 1.017-.256-.11-.058-.161-.092-.218-.113-.058-.019-.122-.021-.181-.039-1.954-.608-3.495-1.797-4.406-3.758-.464-.995-.779-2.07-1.139-3.116-.06-.175-.01-.392-.01-.64.218.052.321.048.387.097 1.155.875 2.302 1.755 3.454 2.63 1.743 1.324 3.163 2.914 3.776 5.256l9.341-.408c-2.349-1.686-3.969-3.668-4.442-6.596l.721-.515c.261.761.832.917 1.414 1.157 1.717.702 3.182 1.77 3.853 3.71.237.687.359 1.419.539 2.15l10.021.253c-.322-.355-.518-.597-.738-.807-1.164-1.11-2.099-2.384-2.68-3.95-.213-.573-.548-1.093-.808-1.646-.202-.43-.236-.859.124-1.306.324.396.576.803.914 1.102a61.607 61.607 0 0 0 2.481 2.049c1.368 1.09 2.342 2.422 2.414 4.33.002.054.061.105.095.159 3.368.258 11.424.21 12.227-.13-1.755-.292-2.793-1.47-3.791-2.76-1.03-1.324-1.729-2.74-1.704-4.598.815.17 1.422.54 1.966.998 2.041 1.712 3.823 3.632 4.354 6.571 2.612-.021 5.175.122 7.758-.276-.476-.484-.907-.903-1.315-1.344-1.317-1.418-1.754-3.37-2.659-5.039-.236-.434-.008-.663.331-.777l3.006 2.928c1.284 1.251 2.843 2.264 3.24 4.374 1.271 0 2.506-.016 3.74.005 1.726.028 3.454.09 5.181.12.207.004.412-.098.617-.15l.024-.204c-1.267-.447-2.058-1.443-2.673-2.596-.605-1.138-1.269-2.286-.976-3.687.747-.003.901.655 1.296.991.915.78 1.838 1.55 2.762 2.316.787.653 1.519 1.359 1.892 2.377.253.693.811.972 1.401 1.001 2.343.11 4.686.153 7.031.208.187.005.375-.079.479-.102-.678-.742-1.351-1.452-1.997-2.191-1.052-1.207-1.819-2.609-2.374-4.142-.078-.213-.036-.477-.059-.861 1.309.47 2.441.943 3.323 1.914 1.175 1.295 1.895 2.798 1.763 4.46l1.116.913c3.345.244 6.765.182 10.328-.048-3.207-1.523-5.804-5.368-4.992-7.377.164.169.302.317.446.46.176.17.337.367.536.495 1.241.792 2.509 1.536 3.732 2.357.938.632 1.624 1.495 1.766 2.736.056.479.131.958.202 1.48 1.834 0 3.677-.029 5.517.009 1.86.037 3.721.163 5.623.06-.066-.178-.071-.254-.109-.29-1.821-1.68-3.155-3.758-4.313-5.978-.146-.28-.213-.61-.293-.924-.073-.29-.136-.657.2-.755.166-.05.421.164.608.302.369.277.704.607 1.078.876.818.584 1.672 1.114 2.469 1.73.415.321.76.757 1.104 1.171.71.858 1.4 1.733 2.096 2.603.326.41.645.825 1.03 1.315.611 0 1.318-.004 2.025.003.678.005 1.356.01 2.032.04.705.032 1.407.091 2.112.14.676.048 1.353.078 2.027.153.666.075 1.37-.197 2.023.249-.196.192-.406.324-.613.32-.863-.009-1.726-.021-2.586-.1-.692-.064-1.194.127-1.712.68-1.282 1.363-2.636 2.654-4.008 3.916-.504.464-1.184.711-1.702 1.163-.255.22-.46.377-.703.19-.259-.199-.47-.437-.397-.902.253-1.646 1.138-2.804 2.376-3.707.632-.461 1.304-.86 1.958-1.289l-.067-.168h-10.057c-.123.206-.246.358-.314.533-.834 2.12-2.244 3.647-4.134 4.731-1.184.68-2.386.943-3.748.569.477-3.233 2.708-4.699 5.173-5.957-1.233-.003-2.434.12-3.629.083-.868-.028-1.769.513-2.61-.122-1.231.054-2.461.113-3.693.16-.354.012-.553.2-.707.526-.178.377-.336.804-.616 1.08-1.779 1.735-3.698 3.261-5.946 4.254-.144.063-.343-.018-.601-.037.017-.413-.023-.78.056-1.114.263-1.109.77-2.085 1.611-2.816.722-.628 1.488-1.199 2.373-1.903-1.035 0-1.9.019-2.762-.004-1.23-.034-2.466-.044-3.688-.172-.81-.085-1.293.368-1.796.888-1.373 1.426-2.795 2.775-4.546 3.682-.659.342-1.254.815-1.895 1.202-.162.098-.382.092-.689.159.201-3.096 1.988-4.764 4.288-6.068-.79-.09-1.532-.075-2.271-.093-.83-.02-1.659-.1-2.489-.1-.737-.002-1.476.138-2.209.086-.627-.044-1.069.252-1.467.644-.879.869-1.7 1.808-2.587 2.665-1.051 1.017-2.181 1.933-3.511 2.506-.288.123-.618.13-1.07.218.172-.81.271-1.451.446-2.069.342-1.204 1.228-1.952 2.14-2.628.711-.524 1.5-.932 2.349-1.447-3.345-.028-6.577-.265-9.804.202-.409 1.84-1.382 3.296-2.723 4.451-1.314 1.13-2.658 2.243-4.54 2.877.336-1.17.507-2.15.891-3.021.864-1.96 2.484-3.165 4.138-4.357-.202-.116-.37-.17-.534-.164-.769.03-1.537.1-2.306.109-1.728.02-3.459.01-5.188.018-.666.002-.907.232-1.106.912-.127.432-.267.886-.511 1.246-1.145 1.697-2.638 2.92-4.494 3.638-.331.128-.617.387-.92.594-.33.222-.638.53-1.158.242.246-1.624 1.098-2.892 2.039-4.094.953-1.214 2.328-1.804 3.587-2.583a17.013 17.013 0 0 0-2.022.033c-.518.036-1.052.032-1.547.175a1.86 1.86 0 0 1-1.073-.003c-.528-.144-1.079-.258-1.623-.277-1.168-.045-2.337-.02-3.506-.023h-.768c.105.298.188.535.263.743-.248.343-.535.616-.675.957-.451 1.092-1.235 1.89-2.055 2.622-1.126 1.005-2.275 2.041-3.954 1.845-.222-.404-.251-.874-.046-1.285.371-.748.735-1.524 1.238-2.167.976-1.246 2.245-2.115 3.772-2.8-.214-.05-.289-.083-.362-.082-1.324.04-2.646.095-3.971.118-.337.007-.465.225-.647.457-.336.434-.653.48-.891.052-.28-.507-.639-.521-1.087-.488-1.075.083-2.15.155-3.228.214-.764.042-1.349.314-1.827 1.031-.99 1.487-2.203 2.752-3.775 3.55-.731.371-1.486.69-2.27 1.053-.3-.215-.23-.553-.157-.924.202-1.04.713-1.892 1.4-2.619.599-.633 1.255-1.204 1.961-1.875-1.16-.064-2.229-.17-3.297-.167-1.415 0-2.831.122-4.248.12-.576 0-.994.192-1.328.655-.112.154-.206.323-.308.484-1.185 1.86-2.463 3.61-4.38 4.714-.466.27-.816.765-1.234 1.141-.149.134-.336.219-.506.326-.846-1.581-.202-3.835.855-4.725.979-.823 2.069-1.42 3.198-1.958.311-.148.616-.312.924-.468-2.83-.156-5.604-.209-8.378-.231-.168-.003-.411.185-.496.355-1.419 2.817-3.646 4.73-6.162 6.332-.428.273-.862.475-1.367.423-.19-.822-.111-1.29.283-2.187.734-1.67 1.926-2.865 3.409-3.753.687-.41 1.401-.771 2.288-1.257-.406 0-.59-.005-.776.002-2.734.106-5.462.373-8.203.21-.603-.034-1.068.313-1.374.915a11.05 11.05 0 0 1-1.007 1.645c-.693.922-1.443 1.794-2.151 2.701-.754.967-1.77 1.486-2.83 1.932-.117.049-.277-.018-.384-.03.201-.583.382-1.118.57-1.65.194-.545.304-1.155.607-1.621.944-1.446 2.108-2.652 3.651-3.386.19-.09.34-.272.632-.512l-9.845.24c-1.557 2.819-3.673 4.91-6.931 5.43-.26-.442-.117-.871.08-1.282a7.676 7.676 0 0 1 2.587-3.027c.561-.389 1.154-.724 1.732-1.084l-.045-.16-7.342-.343c-.339.487-.777.889-.92 1.388-.156.548-.465.92-.814 1.26-1.134 1.112-2.346 2.118-3.764 2.82-.462.227-.87.588-1.272.93-.528.45-.66.425-1.003-.195.268-.5.55-.91.724-1.368.734-1.932 1.989-3.293 3.81-4.06.504-.213 1.012-.42 1.612-.668-1.4-.364-2.692-.501-4.014-.294-.577.09-1.161.178-1.743.188-1.592.027-3.178.116-4.751.38-.337.058-.835.193-.938.443-.343.835-.997 1.325-1.584 1.892-1.812 1.746-3.86 3.086-6.196 3.991-.243-.404-.375-.756.062-1.113.137-.114.245-.288.33-.457.923-1.851 2.355-3.077 4.142-3.878.2-.089.38-.231.746-.456-.449-.1-.683-.19-.919-.197a127.27 127.27 0 0 0-3.056-.044c-.878-.005-1.757-.014-2.635.021-.551.023-1.103.189-1.65.174-.681-.018-1.158.242-1.582.797-1.583 2.07-3.515 3.658-5.84 4.692a1.31 1.31 0 0 0-.517.39c-.203.275-.478.426-.7.211-.163-.154-.224-.525-.197-.784.093-.831.492-1.513.986-2.165 1.114-1.473 2.64-2.22 4.238-2.862.206-.082.397-.207.595-.31-.895-.21-1.756-.33-2.608-.287-1.507.072-3.014.2-4.512.391l-.029.003-.007.01-2.152 1.586-.012.005a9.855 9.855 0 0 0-1.083.477c-.264 0-.528.002-.784 0-1.845-.02-3.199-1.019-4.296-2.49-.212-.285-.509-.606-.271-1.051z" fill="#2FBF5F"/>
</symbol>

<symbol id="svg_decor_right" viewBox="0 0 11 9">
<path d="M199.912 7.881c-.442-.01-.863-.011-1.283-.033-.739-.038-1.477-.133-2.215-.123-1.692.027-3.358.197-4.913.99-.621-.011-1.253-.132-1.929-.246.72-.497 1.316-.901 1.905-1.319 1.535-1.09 2.157-2.714 2.32-4.584.032-.362.116-.804-.311-1.039-.376.25-.729.493-1.092.72-.638.398-1.305.747-1.918 1.186-1.7 1.22-3.274 2.577-4.126 4.734-2.157.106-4.317.652-6.754.247 2.442-1.86 4.288-3.86 4.146-7.345-.833.525-1.54.907-2.183 1.384-1.931 1.435-3.655 3.047-3.853 5.917-.565 0-1.114.016-1.664-.003-1.863-.064-3.727.368-5.592-.029-.79-.167-1.596-.252-2.54-.397 4.22-2.307 5.282-4.487 4.879-7.352-.86.316-1.65.729-2.355 1.31-1.051.862-2.092 1.738-3.12 2.632-.95.827-1.72 1.777-1.624 3.3-.861-.045-1.666-.022-2.45-.146-1.142-.18-2.267-.23-3.397.052-1.203.3-2.403.28-3.708-.04.2-.18.317-.276.427-.38.753-.719 1.563-1.379 2.24-2.17.751-.881 1.332-1.903 1.242-3.188-.023-.322.009-.681-.397-.782-2.362 2.009-5.15 3.553-6.297 6.8-1.085.057-2.1.105-3.113.166-.954.056-1.905.15-2.86.182-.925.03-1.853.009-2.78-.01-.155-.002-.308-.109-.448-.16.75-.812 1.515-1.53 2.153-2.358.62-.805 1.128-1.71 1.647-2.596.202-.346.008-.67-.365-.642-.393.029-.809.078-1.167.238-2.292 1.018-3.668 2.964-4.63 5.276h-8.082c.25-.163.368-.242.487-.317a6.948 6.948 0 0 0 1.937-1.775c.753-1.006 1.055-2.204 1.53-3.327a.99.99 0 0 0-.26-1.158c-.054-.048-.17-.018-.325-.027l-.058.65c-2.139 1.555-4.655 2.682-5.547 5.668-1.596.463-3.205.072-4.798.133-1.572.06-3.145.011-4.717.011 1.59-1.111 2.762-2.579 3.783-4.188.34-.534.557-1.16.791-1.76.052-.13-.067-.336-.139-.645-1.271.642-2.48 1.193-3.638 1.851-1.768 1.003-2.99 2.48-3.277 4.801-.717 0-1.452.004-2.187-.001-2.717-.018-5.436-.034-8.152-.067-.33-.004-.704.043-1.017-.256.11-.058.161-.092.218-.113.058-.019.122-.021.182-.039 1.953-.608 3.494-1.797 4.405-3.758.464-.995.779-2.07 1.139-3.116.06-.175.01-.392.01-.64-.218.052-.321.048-.387.097-1.155.875-2.302 1.755-3.454 2.63-1.743 1.324-3.163 2.914-3.776 5.256l-9.341-.408c2.349-1.686 3.969-3.668 4.443-6.596l-.722-.515c-.261.761-.832.917-1.414 1.157-1.717.702-3.182 1.77-3.853 3.71-.237.687-.359 1.419-.539 2.15l-10.021.253c.322-.355.518-.597.738-.807 1.164-1.11 2.099-2.384 2.68-3.95.213-.573.548-1.093.808-1.646.202-.43.236-.859-.124-1.306-.324.396-.576.803-.914 1.102a61.607 61.607 0 0 1-2.481 2.049c-1.368 1.09-2.342 2.422-2.414 4.33-.002.054-.061.105-.095.159-3.368.258-11.424.21-12.227-.13 1.755-.292 2.793-1.47 3.791-2.76 1.03-1.324 1.729-2.74 1.704-4.598-.815.17-1.422.54-1.966.998-2.041 1.712-3.823 3.632-4.354 6.571-2.612-.021-5.175.122-7.758-.276.476-.484.907-.903 1.315-1.344 1.317-1.418 1.754-3.37 2.659-5.039.236-.434.008-.663-.331-.777l-3.006 2.928c-1.284 1.251-2.843 2.264-3.24 4.374-1.271 0-2.506-.016-3.74.005-1.726.028-3.454.09-5.181.12-.207.004-.412-.098-.617-.15l-.024-.204c1.267-.447 2.058-1.443 2.673-2.596.605-1.138 1.269-2.286.976-3.687-.747-.003-.901.655-1.296.991-.915.78-1.838 1.55-2.762 2.316-.787.653-1.519 1.359-1.892 2.377-.253.693-.811.972-1.401 1.001-2.343.11-4.686.153-7.031.208-.187.005-.375-.079-.479-.102.678-.742 1.351-1.452 1.997-2.191 1.052-1.207 1.819-2.609 2.374-4.142.078-.213.036-.477.059-.861-1.309.47-2.441.943-3.323 1.914-1.175 1.295-1.895 2.798-1.763 4.46l-1.116.913c-3.345.244-6.765.182-10.328-.048 3.207-1.523 5.804-5.368 4.992-7.377-.164.169-.302.317-.446.46-.176.17-.337.367-.536.495-1.241.792-2.509 1.536-3.732 2.357-.938.632-1.624 1.495-1.766 2.736-.056.479-.131.958-.202 1.48-1.834 0-3.677-.029-5.517.009-1.86.037-3.721.163-5.623.06.066-.178.071-.254.109-.29 1.821-1.68 3.155-3.758 4.313-5.978.146-.28.213-.61.293-.924.073-.29.136-.657-.2-.755-.166-.05-.421.164-.608.302-.369.277-.704.607-1.078.876-.818.584-1.672 1.114-2.469 1.73-.415.321-.76.757-1.104 1.171-.71.858-1.4 1.733-2.096 2.603-.326.41-.645.825-1.03 1.315-.611 0-1.318-.004-2.025.003-.678.005-1.356.01-2.032.04-.705.032-1.407.091-2.112.14-.676.048-1.353.078-2.027.153-.666.075-1.37-.197-2.023.249.196.192.406.324.613.32.863-.009 1.726-.021 2.586-.1.692-.064 1.194.127 1.712.68 1.282 1.363 2.636 2.654 4.008 3.916.504.464 1.184.711 1.702 1.163.255.22.46.377.703.19.259-.199.47-.437.397-.902-.253-1.646-1.138-2.804-2.376-3.707-.632-.461-1.304-.86-1.958-1.289l.067-.168h10.057c.123.206.246.358.314.533.834 2.12 2.244 3.647 4.134 4.731 1.184.68 2.386.943 3.748.569-.477-3.233-2.708-4.699-5.173-5.957 1.233-.003 2.434.12 3.629.083.868-.028 1.769.513 2.61-.122 1.231.054 2.461.113 3.693.16.354.012.553.2.707.526.178.377.336.804.616 1.08 1.779 1.735 3.698 3.261 5.946 4.254.144.063.343-.018.601-.037-.017-.413.023-.78-.056-1.114-.263-1.109-.77-2.085-1.611-2.816-.722-.628-1.488-1.199-2.373-1.903 1.035 0 1.9.019 2.762-.004 1.23-.034 2.466-.044 3.688-.172.81-.085 1.293.368 1.796.888 1.373 1.426 2.795 2.775 4.546 3.682.659.342 1.254.815 1.895 1.202.162.098.382.092.689.159-.201-3.096-1.988-4.764-4.288-6.068.79-.09 1.532-.075 2.271-.093.83-.02 1.659-.1 2.489-.1.737-.002 1.476.138 2.209.086.627-.044 1.069.252 1.467.644.879.869 1.7 1.808 2.587 2.665 1.051 1.017 2.181 1.933 3.511 2.506.288.123.618.13 1.07.218-.172-.81-.271-1.451-.446-2.069-.342-1.204-1.228-1.952-2.14-2.628-.711-.524-1.5-.932-2.349-1.447 3.345-.028 6.577-.265 9.804.202.409 1.84 1.382 3.296 2.723 4.451 1.314 1.13 2.658 2.243 4.54 2.877-.336-1.17-.507-2.15-.891-3.021-.864-1.96-2.484-3.165-4.138-4.357.202-.116.37-.17.534-.164.769.03 1.537.1 2.306.109 1.728.02 3.459.01 5.188.018.666.002.907.232 1.106.912.127.432.267.886.511 1.246 1.145 1.697 2.638 2.92 4.494 3.638.331.128.617.387.92.594.33.222.638.53 1.158.242-.246-1.624-1.098-2.892-2.039-4.094-.953-1.214-2.328-1.804-3.587-2.583a17.013 17.013 0 0 1 2.022.033c.518.036 1.052.032 1.547.175.381.108.701.1 1.073-.003.528-.144 1.079-.258 1.623-.277 1.168-.045 2.337-.02 3.506-.023h.768c-.105.298-.188.535-.263.743.248.343.535.616.675.957.451 1.092 1.235 1.89 2.055 2.622 1.126 1.005 2.275 2.041 3.954 1.845.222-.404.251-.874.046-1.285-.371-.748-.735-1.524-1.238-2.167-.976-1.246-2.245-2.115-3.772-2.8.214-.05.289-.083.362-.082 1.324.04 2.646.095 3.971.118.337.007.465.225.647.457.336.434.653.48.891.052.28-.507.639-.521 1.087-.488 1.075.083 2.15.155 3.228.214.764.042 1.349.314 1.827 1.031.99 1.487 2.203 2.752 3.775 3.55.731.371 1.486.69 2.27 1.053.3-.215.23-.553.157-.924-.202-1.04-.712-1.892-1.4-2.619-.599-.633-1.255-1.204-1.961-1.875 1.16-.064 2.229-.17 3.297-.167 1.415 0 2.831.122 4.248.12.576 0 .994.192 1.328.655.112.154.206.323.309.484 1.184 1.86 2.462 3.61 4.378 4.714.467.27.817.765 1.235 1.141.149.134.336.219.506.326.846-1.581.202-3.835-.854-4.725-.98-.823-2.07-1.42-3.199-1.958-.311-.148-.616-.312-.924-.468 2.83-.156 5.604-.209 8.378-.231.168-.003.411.185.496.355 1.419 2.817 3.646 4.73 6.162 6.332.428.273.863.475 1.367.423.19-.822.111-1.29-.283-2.187-.734-1.67-1.926-2.865-3.409-3.753-.687-.41-1.401-.771-2.288-1.257.406 0 .59-.005.776.002 2.734.106 5.462.373 8.203.21.603-.034 1.068.313 1.374.915a11.05 11.05 0 0 0 1.007 1.645c.693.922 1.443 1.794 2.151 2.701.754.967 1.77 1.486 2.83 1.932.117.049.277-.018.384-.03-.201-.583-.382-1.118-.57-1.65-.194-.545-.304-1.155-.607-1.621-.944-1.446-2.108-2.652-3.651-3.386-.19-.09-.34-.272-.632-.512l9.845.24c1.557 2.819 3.673 4.91 6.931 5.43.26-.442.117-.871-.08-1.282a7.676 7.676 0 0 0-2.587-3.027c-.561-.389-1.154-.724-1.732-1.084l.045-.16 7.342-.343c.339.487.777.889.92 1.388.156.548.465.92.814 1.26 1.134 1.112 2.346 2.118 3.764 2.82.462.227.87.588 1.272.93.528.45.66.425 1.003-.195-.268-.5-.55-.91-.724-1.368-.734-1.932-1.989-3.293-3.81-4.06-.504-.213-1.012-.42-1.612-.668 1.4-.364 2.692-.501 4.014-.294.577.09 1.161.178 1.743.188 1.592.027 3.178.116 4.751.38.337.058.835.193.938.443.343.835.997 1.325 1.584 1.892 1.812 1.746 3.86 3.086 6.196 3.991.243-.404.375-.756-.062-1.113-.137-.114-.245-.288-.33-.457-.923-1.851-2.355-3.077-4.142-3.878-.2-.089-.38-.231-.746-.456.449-.1.683-.19.919-.197a127.27 127.27 0 0 1 3.056-.044c.878-.005 1.757-.014 2.635.021.551.023 1.103.189 1.65.174.681-.018 1.158.242 1.582.797 1.583 2.07 3.515 3.658 5.84 4.692.191.084.391.22.517.39.203.275.478.426.7.211.163-.154.224-.525.197-.784-.093-.831-.492-1.513-.986-2.165-1.114-1.473-2.64-2.22-4.238-2.862-.206-.082-.397-.207-.595-.31.895-.21 1.756-.33 2.608-.287 1.507.072 3.014.2 4.512.391l.029.003.007.01 2.152 1.586.012.005c.357.131.725.293 1.083.477.264 0 .528.002.784 0 1.845-.02 3.199-1.019 4.296-2.49.212-.285.509-.606.271-1.051z" fill="#2FBF5F"/>
</symbol>

<symbol id="svg_close" viewBox="0 0 18 18">
<path d="M12.048 9l5.32-5.32A2.155 2.155 0 1 0 14.322.63l-5.32 5.321L3.678.632A2.155 2.155 0 0 0 .631 3.678L5.951 9 .632 14.32A2.155 2.155 0 1 0 3.68 17.37L9 12.048l5.321 5.32c.42.422.973.632 1.524.632s1.103-.21 1.524-.631a2.155 2.155 0 0 0 0-3.048L12.048 9z" fill="red"/>
</symbol>

<symbol id="svg_check" viewBox="0 0 11 9">
<path d="M5.175 8.212a1.106 1.106 0 0 1-1.636.143L.766 5.857A1.311 1.311 0 0 1 .613 4.1a1.106 1.106 0 0 1 1.636-.143L3.9 5.446a.28.28 0 0 0 .413-.036L8.019.665A1.106 1.106 0 0 1 9.655.522c.237.213.387.518.416.848.028.329-.066.655-.262.907L5.175 8.212z"/>
</symbol>

<symbol id="svg_insta" viewBox="0 0 32 32">
<path d="M26.12 7.64a1.85 1.85 0 1 1-1.852-1.85 1.85 1.85 0 0 1 1.85 1.85zM32 16v.023l-.106 6.713a9.263 9.263 0 0 1-9.158 9.158L16 32h-.023l-6.713-.105a9.264 9.264 0 0 1-9.16-9.158L0 16v-.023l.105-6.713A9.264 9.264 0 0 1 9.265.106L16 0h.023l6.713.105a9.264 9.264 0 0 1 9.158 9.158zm-2.98 0l-.105-6.69a6.297 6.297 0 0 0-6.226-6.225L16 2.98l-6.69.105A6.298 6.298 0 0 0 3.084 9.31L2.98 16l.104 6.69a6.298 6.298 0 0 0 6.226 6.225l6.69.105 6.69-.105a6.297 6.297 0 0 0 6.225-6.225zm-4.804 0A8.216 8.216 0 1 1 16 7.784 8.226 8.226 0 0 1 24.216 16zm-2.98 0A5.237 5.237 0 1 0 16 21.237 5.243 5.243 0 0 0 21.237 16z"/>
</symbol>

<symbol id="svg_zoom" viewBox="0 0 32 32">
<path d="M32 30.5a1.5 1.5 0 0 1-2.56 1.06L19.35 21.47a12.036 12.036 0 1 1 2.12-2.12l10.09 10.09A1.5 1.5 0 0 1 32 30.5zM12 3a9 9 0 1 0 9 9 9.01 9.01 0 0 0-9-9zm4 10h-3v3a1 1 0 0 1-2 0v-3H8a1 1 0 0 1 0-2h3V8a1 1 0 0 1 2 0v3h3a1 1 0 0 1 0 2z"/>
</symbol>

<symbol id="svg_calendar" viewBox="0 0 24 22">
<path d="M23 22H1a1 1 0 0 1-1-1V7a1 1 0 0 1 1-1h22a1 1 0 0 1 1 1v14a1 1 0 0 1-1 1zm0-18H1a1 1 0 0 1 0-2h4V1a1 1 0 0 1 2 0v1h10V1a1 1 0 0 1 2 0v1h4a1 1 0 0 1 0 2zM3 10h3v3H3v-3zm5 0h3v3H8v-3zm5 0h3v3h-3v-3zm5 0h3v3h-3v-3zM3 16h3v3H3v-3zm5 0h3v3H8v-3zm5 0h3v3h-3v-3zm5 0h3v3h-3v-3z" fill="red"/>
</symbol>

</svg>