<svg width="200" height="16" viewBox="0 0 200 16" fill="none" xmlns="http://www.w3.org/2000/svg">
<path d="M0.0879509 7.88097C0.530262 7.87058 0.950737 7.86993 1.3707 7.84787C2.10968 7.81012 2.84775 7.7145 3.58592 7.7251C5.27848 7.7515 6.94393 7.92185 8.49857 8.71415C9.12014 8.70387 9.75187 8.58273 10.4275 8.46872C9.70891 7.97236 9.11151 7.56751 8.52264 7.15011C6.9878 6.06091 6.36613 4.43641 6.20211 2.56584C6.17093 2.2036 6.08703 1.76165 6.51442 1.52748C6.8902 1.77625 7.24263 2.02038 7.60572 2.24633C8.24395 2.64469 8.91122 2.99417 9.52396 3.43255C11.2245 4.65241 12.7983 6.01007 13.6504 8.16749C15.8066 8.27273 17.967 8.81906 20.4035 8.41432C17.9618 6.55381 16.1164 4.55431 16.2579 1.06908C17.0913 1.59378 17.7982 1.97581 18.4408 2.45324C20.372 3.88813 22.0959 5.49998 22.2941 8.36986C22.8587 8.36986 23.4085 8.3862 23.958 8.36716C25.8214 8.30269 27.6848 8.7347 29.5499 8.33806C30.3395 8.17106 31.1457 8.08572 32.0905 7.94056C27.8706 5.63432 26.8084 3.45429 27.211 0.589055C28.0713 0.904999 28.8608 1.31786 29.5665 1.89869C30.6173 2.76086 31.6579 3.63676 32.6852 4.53073C33.6368 5.35763 34.4063 6.30774 34.3096 7.83165C35.1712 7.78632 35.9765 7.80893 36.7602 7.68465C37.9025 7.50488 39.0266 7.45405 40.157 7.73722C41.36 8.03769 42.56 8.01768 43.8647 7.69644C43.6652 7.51765 43.5477 7.42138 43.4381 7.31614C42.6851 6.59815 41.8747 5.93836 41.1989 5.14607C40.4469 4.26573 39.8656 3.24381 39.9556 1.95948C39.9794 1.63737 39.9474 1.27784 40.3531 1.17714C42.7151 3.18572 45.5026 4.72953 46.6498 7.97777C47.7346 8.03402 48.7496 8.08215 49.7629 8.14305C50.7173 8.19918 51.6685 8.29263 52.623 8.32454C53.5485 8.3544 54.4765 8.33352 55.403 8.31535C55.558 8.31275 55.7109 8.20643 55.8507 8.15484C55.1011 7.34329 54.3363 6.62541 53.6976 5.79678C53.0776 4.99172 52.5696 4.08694 52.0506 3.20108C51.8491 2.85528 52.0426 2.53047 52.4159 2.55859C52.8091 2.58758 53.225 2.63744 53.5834 2.79731C55.8755 3.81469 57.2513 5.76054 58.2126 8.07317H66.2951C66.0446 7.90974 65.9273 7.83078 65.8076 7.75626C65.0606 7.29072 64.4241 6.72254 63.8706 5.98108C63.1185 4.97549 62.8163 3.77737 62.3416 2.65378C62.1703 2.24362 62.2531 1.80978 62.6003 1.49579C62.6548 1.44776 62.7703 1.47848 62.9259 1.46939C62.9467 1.70357 62.9663 1.91686 62.9843 2.11837C65.1229 3.67397 67.6395 4.80124 68.5313 7.78719C70.1271 8.25002 71.7357 7.8589 73.329 7.91969C74.9008 7.97961 76.4741 7.93148 78.046 7.93148C76.4562 6.81967 75.2839 5.35201 74.2626 3.74298C73.9238 3.2093 73.7056 2.58304 73.4716 1.9823C73.4205 1.8524 73.539 1.64732 73.611 1.33787C74.882 1.98046 76.0918 2.53134 77.2495 3.18929C79.017 4.19218 80.2395 5.66882 80.5258 7.99043C81.2435 7.99043 81.9785 7.99411 82.7131 7.98859C85.4296 7.97053 88.1486 7.95506 90.8651 7.92153C91.1958 7.91796 91.5689 7.96512 91.8817 7.66561C91.7722 7.60753 91.7207 7.574 91.664 7.55302C91.6065 7.53398 91.5422 7.53203 91.4825 7.51397C89.5292 6.90588 87.9884 5.71695 87.0769 3.75574C86.6129 2.76086 86.298 1.68637 85.938 0.639892C85.8775 0.464668 85.9281 0.247801 85.9281 0C86.1459 0.05181 86.2494 0.0481325 86.3146 0.0971303C87.4698 0.97206 88.6174 1.8524 89.7691 2.72733C91.5118 4.05146 92.9317 5.6407 93.5448 7.98318C96.6257 7.84798 99.6762 7.7145 102.886 7.57476C100.537 5.88947 98.9172 3.90717 98.4435 0.979307C98.6688 0.818685 98.8849 0.664445 99.1653 0.463911C99.4264 1.22527 99.997 1.38146 100.579 1.62104C102.296 2.32345 103.761 3.3908 104.432 5.33124C104.669 6.01829 104.791 6.7498 104.971 7.4813C108.219 7.56297 111.531 7.64647 114.992 7.73365C114.67 7.37877 114.474 7.13735 114.254 6.92686C113.09 5.81765 112.155 4.54252 111.574 2.97697C111.361 2.40435 111.026 1.8842 110.766 1.33051C110.564 0.900348 110.53 0.472023 110.89 0.024553C111.214 0.421186 111.466 0.827771 111.804 1.12727C112.609 1.83888 113.446 2.50862 114.285 3.17566C115.653 4.2667 116.627 5.59808 116.699 7.50672C116.701 7.56026 116.76 7.6111 116.794 7.66464C120.162 7.92326 128.218 7.87523 129.021 7.53485C127.266 7.24259 126.228 6.06545 125.23 4.77572C124.2 3.45072 123.501 2.03487 123.526 0.177063C124.341 0.34677 124.948 0.717012 125.492 1.1753C127.533 2.88708 129.315 4.80665 129.846 7.7463C132.458 7.72456 135.021 7.86799 137.604 7.46951C137.128 6.9857 136.697 6.56733 136.289 6.12624C134.972 4.70768 134.535 2.75642 133.63 1.08736C133.394 0.652655 133.622 0.423891 133.961 0.310428C135.015 1.33787 135.992 2.28721 136.967 3.23829C138.251 4.48898 139.81 5.50182 140.207 7.61197C141.478 7.61197 142.713 7.59563 143.947 7.61737C145.673 7.64463 147.401 7.70726 149.128 7.73722C149.335 7.7409 149.54 7.63922 149.745 7.58655C149.754 7.51765 149.761 7.45048 149.769 7.38331C148.502 6.93584 147.711 5.9402 147.096 4.78664C146.491 3.64942 145.827 2.50051 146.12 1.10002C146.867 1.09731 147.021 1.75538 147.416 2.09111C148.331 2.87162 149.254 3.6413 150.178 4.40731C150.965 5.05986 151.697 5.76595 152.07 6.78419C152.323 7.47676 152.881 7.75626 153.471 7.78535C155.814 7.89524 158.157 7.93786 160.502 7.99324C160.689 7.99767 160.877 7.91428 160.981 7.8907C160.303 7.14914 159.63 6.43937 158.984 5.69975C157.932 4.49255 157.165 3.0913 156.61 1.55841C156.532 1.34511 156.574 1.08098 156.551 0.697002C157.86 1.16621 158.992 1.64007 159.874 2.61116C161.049 3.9063 161.769 5.40934 161.637 7.07104C162.089 7.44139 162.421 7.71277 162.753 7.98415C166.098 8.22839 169.518 8.16565 173.081 7.93602C169.874 6.41298 167.277 2.56757 168.089 0.559094C168.253 0.727937 168.391 0.875903 168.535 1.01825C168.711 1.18817 168.872 1.38589 169.071 1.51385C170.312 2.30625 171.58 3.04955 172.803 3.87093C173.741 4.50347 174.427 5.36575 174.569 6.60735C174.625 7.08564 174.7 7.56481 174.771 8.08756C176.605 8.08756 178.448 8.05846 180.288 8.09578C182.148 8.13299 184.009 8.2591 185.911 8.15559C185.845 7.97777 185.84 7.90152 185.802 7.86615C183.981 6.1853 182.647 4.10781 181.489 1.88788C181.343 1.60827 181.276 1.27708 181.196 0.96384C181.123 0.673422 181.06 0.306858 181.396 0.208754C181.562 0.159757 181.817 0.373054 182.004 0.510962C182.373 0.787859 182.708 1.11819 183.082 1.38676C183.9 1.97127 184.754 2.50127 185.551 3.11758C185.966 3.43807 186.311 3.87364 186.655 4.28844C187.365 5.14607 188.055 6.021 188.751 6.89138C189.077 7.30165 189.396 7.71634 189.781 8.20643C190.392 8.20643 191.099 8.20189 191.806 8.20913C192.484 8.21368 193.162 8.21919 193.838 8.24915C194.543 8.28095 195.245 8.34001 195.95 8.3889C196.626 8.43703 197.303 8.46699 197.977 8.54228C198.643 8.61669 199.347 8.34531 200 8.79094C199.804 8.98336 199.594 9.115 199.387 9.11132C198.524 9.10223 197.661 9.08958 196.801 9.01062C196.109 8.94702 195.607 9.13771 195.089 9.69042C193.807 11.0536 192.453 12.3451 191.081 13.6067C190.577 14.0713 189.897 14.3182 189.379 14.7702C189.124 14.9898 188.919 15.1469 188.676 14.9608C188.417 14.7612 188.206 14.5233 188.279 14.0577C188.532 12.4122 189.417 11.2541 190.655 10.3511C191.287 9.88999 191.959 9.49076 192.613 9.06232C192.591 9.00608 192.569 8.94983 192.546 8.89445H182.489C182.366 9.09964 182.243 9.25204 182.175 9.42716C181.341 11.5465 179.931 13.0739 178.041 14.1584C176.857 14.8383 175.655 15.1005 174.293 14.7266C174.77 11.4937 177.001 10.0281 179.466 8.77017C178.233 8.76736 177.032 8.89078 175.837 8.8527C174.969 8.82458 174.068 9.36648 173.227 8.73113C171.996 8.78456 170.766 8.84448 169.534 8.89078C169.18 8.90343 168.981 9.09142 168.827 9.41731C168.649 9.79383 168.491 10.2213 168.211 10.4973C166.432 12.2316 164.513 13.7582 162.265 14.7512C162.121 14.8138 161.922 14.733 161.664 14.7139C161.681 14.301 161.641 13.9343 161.72 13.6003C161.983 12.4912 162.49 11.5146 163.331 10.7841C164.053 10.156 164.819 9.58507 165.704 8.88083C164.669 8.88083 163.804 8.89986 162.942 8.87715C161.712 8.84275 160.476 8.83269 159.254 8.70474C158.444 8.62037 157.961 9.07314 157.458 9.59329C156.085 11.0192 154.663 12.3678 152.912 13.2754C152.253 13.6166 151.658 14.0904 151.017 14.4771C150.855 14.5751 150.635 14.5687 150.328 14.6358C150.529 11.54 152.316 9.87192 154.616 8.56769C153.826 8.47878 153.084 8.49328 152.345 8.47511C151.515 8.45423 150.686 8.37538 149.856 8.37441C149.119 8.37257 148.38 8.51329 147.647 8.46072C147.02 8.41713 146.578 8.71285 146.18 9.10505C145.301 9.97359 144.48 10.9129 143.593 11.7697C142.542 12.787 141.412 13.7028 140.082 14.2756C139.794 14.399 139.464 14.4062 139.012 14.4942C139.184 13.6847 139.283 13.043 139.458 12.425C139.8 11.2206 140.686 10.4727 141.598 9.7974C142.309 9.27291 143.098 8.86536 143.947 8.34985C140.602 8.32173 137.37 8.08485 134.143 8.55223C133.734 10.392 132.761 11.8477 131.42 13.003C130.106 14.1331 128.762 15.2457 126.88 15.8803C127.216 14.7094 127.387 13.7301 127.771 12.8588C128.635 10.8994 130.255 9.69399 131.909 8.5015C131.707 8.3862 131.539 8.33265 131.375 8.33806C130.606 8.36716 129.838 8.4379 129.069 8.44698C127.341 8.46699 125.61 8.45791 123.881 8.46515C123.215 8.46699 122.974 8.69662 122.775 9.37729C122.648 9.80929 122.508 10.263 122.264 10.6234C121.119 12.3198 119.626 13.5432 117.77 14.2611C117.439 14.389 117.153 14.6477 116.85 14.8546C116.52 15.0769 116.212 15.3846 115.692 15.0969C115.938 13.4732 116.79 12.2053 117.731 11.0028C118.684 9.78929 120.059 9.19936 121.318 8.41973C120.625 8.3862 119.96 8.40707 119.296 8.45326C118.778 8.48873 118.244 8.48516 117.749 8.62751C117.368 8.73567 117.048 8.72745 116.676 8.62491C116.148 8.48149 115.597 8.36716 115.053 8.34812C113.885 8.30269 112.716 8.32714 111.547 8.32454C111.309 8.32357 111.072 8.32454 110.779 8.32454C110.884 8.62307 110.967 8.85984 111.042 9.06784C110.794 9.41082 110.507 9.68415 110.367 10.0253C109.916 11.1172 109.132 11.9149 108.312 12.6473C107.186 13.652 106.037 14.6885 104.358 14.4925C104.136 14.0877 104.107 13.6185 104.312 13.2073C104.683 12.4595 105.047 11.6826 105.55 11.04C106.526 9.79383 107.795 8.92539 109.322 8.2392C109.108 8.1901 109.033 8.15657 108.96 8.1584C107.636 8.19745 106.314 8.25272 104.989 8.27641C104.652 8.28268 104.524 8.50052 104.342 8.73286C104.006 9.1667 103.689 9.21386 103.451 8.78456C103.171 8.27825 102.812 8.26365 102.364 8.29729C101.289 8.37981 100.214 8.45153 99.1363 8.51145C98.3719 8.5532 97.7872 8.82458 97.3088 9.54246C96.3199 11.029 95.1062 12.2943 93.5338 13.0929C92.8026 13.4633 92.0477 13.7828 91.2635 14.1449C90.9632 13.9298 91.0342 13.5921 91.1071 13.2209C91.3087 12.1817 91.8195 11.3287 92.5078 10.6025C93.1056 9.96905 93.7617 9.39817 94.4683 8.72745C93.3076 8.66298 92.2393 8.55688 91.1711 8.56045C89.7556 8.56045 88.34 8.68202 86.9227 8.68018C86.3466 8.67932 85.929 8.87174 85.5946 9.33457C85.483 9.48892 85.3892 9.65765 85.2865 9.81925C84.1024 11.6799 82.8244 13.4288 80.9078 14.5333C80.4412 14.8037 80.0909 15.2983 79.6733 15.6742C79.5242 15.8084 79.3371 15.8928 79.1671 16C78.3214 14.419 78.9647 12.1645 80.0215 11.275C81.0007 10.4518 82.091 9.85472 83.2198 9.31651C83.5313 9.16854 83.836 9.00521 84.144 8.84902C81.3135 8.69305 78.5403 8.64027 75.7663 8.61766C75.5984 8.61496 75.3547 8.80273 75.2699 8.97341C73.8513 11.7896 71.624 13.7038 69.1076 15.3047C68.6805 15.5779 68.2455 15.7795 67.7409 15.7276C67.5517 14.9064 67.6297 14.4389 68.0243 13.5413C68.7577 11.8713 69.9504 10.676 71.4328 9.78842C72.1197 9.37729 72.8343 9.01689 73.7206 8.53135C73.3146 8.53135 73.1304 8.52594 72.9451 8.53319C70.2111 8.63941 67.4832 8.90624 64.7421 8.74378C64.1391 8.70928 63.6742 9.05605 63.3678 9.65765C63.0763 10.2322 62.7436 10.795 62.3609 11.3031C61.6684 12.2252 60.9177 13.0966 60.2099 14.0042C59.4562 14.9707 58.4407 15.4899 57.3797 15.9364C57.2634 15.9846 57.1035 15.9183 56.9957 15.9065C57.1973 15.3229 57.378 14.7883 57.5668 14.2555C57.7597 13.7111 57.8701 13.1011 58.1731 12.6346C59.1169 11.1888 60.2811 9.98257 61.824 9.24934C62.0132 9.15945 62.1649 8.97698 62.4564 8.7374C59.0637 8.81906 55.8611 8.89813 52.611 8.97698C51.0541 11.796 48.9384 13.8871 45.6796 14.4062C45.4196 13.9651 45.5633 13.5359 45.7605 13.1247C46.3643 11.8686 47.2409 10.864 48.347 10.098C48.9082 9.70946 49.501 9.37372 50.0792 9.0143C50.0642 8.96065 50.0489 8.90711 50.0336 8.85357C47.5834 8.73924 45.1308 8.62491 42.692 8.51145C42.3533 8.99797 41.9152 9.40001 41.7725 9.89918C41.6157 10.4473 41.3068 10.8186 40.9582 11.159C39.8243 12.2715 38.6125 13.2772 37.1944 13.9788C36.7325 14.2057 36.3238 14.5668 35.922 14.9099C35.3941 15.3592 35.262 15.3338 34.9186 14.7139C35.1869 14.2148 35.4692 13.8046 35.6429 13.3462C36.3772 11.4139 37.6316 10.0526 39.4523 9.28557C39.9573 9.07314 40.4648 8.86536 41.0647 8.61766C39.6654 8.2537 38.3726 8.11655 37.0513 8.32357C36.4738 8.41345 35.8896 8.5015 35.308 8.51231C33.7157 8.5386 32.1296 8.62751 30.5569 8.89175C30.2198 8.94983 29.7218 9.08504 29.6191 9.33457C29.2756 10.1696 28.6223 10.6605 28.0348 11.227C26.2226 12.9732 24.1751 14.3128 21.8387 15.2184C21.5957 14.8138 21.4641 14.4616 21.9008 14.105C22.0377 13.9914 22.1463 13.8172 22.2303 13.6484C23.1541 11.7969 24.5863 10.5708 26.3729 9.77025C26.5736 9.68134 26.753 9.53878 27.1186 9.31369C26.6703 9.21386 26.4364 9.12311 26.2003 9.11684C25.1819 9.08774 24.164 9.07779 23.1443 9.07314C22.2656 9.06784 21.3866 9.05864 20.5092 9.09412C19.9579 9.11684 19.4056 9.28287 18.8585 9.26837C18.1779 9.2502 17.7006 9.50979 17.2772 10.0652C15.6941 12.1346 13.7621 13.7228 11.4369 14.7566C11.2456 14.8409 11.0458 14.9762 10.92 15.1469C10.7168 15.4219 10.442 15.5734 10.2191 15.3583C10.0571 15.204 9.99568 14.8328 10.0235 14.5741C10.1164 13.7427 10.5152 13.0611 11.0087 12.4095C12.1228 10.9365 13.6484 10.1886 15.2472 9.547C15.4534 9.46534 15.6439 9.33998 15.8424 9.23755C14.9472 9.02609 14.0865 8.90624 13.2343 8.94983C11.727 9.02154 10.2199 9.15037 8.72217 9.34095C8.71277 9.34214 8.70292 9.34311 8.69347 9.3443C8.69103 9.34787 8.6886 9.35133 8.68616 9.3549C8.05991 9.81611 7.15985 10.479 6.53371 10.9404C6.52975 10.9418 6.52589 10.9432 6.52194 10.9446C6.16483 11.0763 5.79656 11.2383 5.43865 11.4222C5.17468 11.4229 4.91143 11.4237 4.65468 11.4212C2.81038 11.4022 1.45622 10.4034 0.359127 8.93231C0.147163 8.64698 -0.149912 8.32573 0.0879509 7.88097Z" fill="#2FBF5F"/>
</svg>
