<svg xmlns="http://www.w3.org/2000/svg" viewBox="0 0 18 20"><title>icon_okey</title><path d="M587.76759,595.57656a2.30352,2.30352,0,0,0-1.31611,1.30443,0.71076,0.71076,0,0,0,.191.45547l5.50623,6.853a0.76605,0.76605,0,0,0,.53063.31053,0.60391,0.60391,0,0,0,.48818-0.31053L604.19668,586.177a1.1475,1.1475,0,0,0,.2548-0.70391,1.90812,1.90812,0,0,0-1.25242-.9731,0.61838,0.61838,0,0,0-.55184.31055L592.14874,599.5l-3.95664-3.69558a0.47209,0.47209,0,0,0-.42451-0.22787h0Z" transform="translate(-586.45148 -584.5)" fill="#bccee5"/></svg>