<svg xmlns="http://www.w3.org/2000/svg" viewBox="0 0 19 20"><title>icon_search</title><path d="M492.99651,535.5a7.70489,7.70489,0,0,1,7.54516,7.839,7.99654,7.99654,0,0,1-1.53543,4.7326l5.09932,5.33534a1.25914,1.25914,0,0,1,0,1.73374,1.14823,1.14823,0,0,1-1.66869,0l-5.13364-5.37047a7.31064,7.31064,0,0,1-4.30671,1.40787A7.84474,7.84474,0,0,1,492.99651,535.5Zm0,13.498a5.66316,5.66316,0,1,0-5.44691-5.65909A5.56239,5.56239,0,0,0,492.99651,548.998Z" transform="translate(-485.45148 -535.5)" fill="#bccee5"/></svg>