<svg xmlns="http://www.w3.org/2000/svg" viewBox="0 0 15 20"><title>icon_attach</title><path d="M139.7104,604.67529a5.71151,5.71151,0,0,1-1.95116-7.61137l0.76152-1.37871,0.76152-1.37855,3.04607-5.51469,0.76152-1.37879a3.71907,3.71907,0,0,1,5.20124-1.45664,4.07947,4.07947,0,0,1,1.39365,5.4366L147.781,594.8398l-0.7702,1.39431-2.65663,4.80977a2.23163,2.23163,0,0,1-3.12078.87406,2.44787,2.44787,0,0,1-.83622-3.26207l2.28455-4.136,0.45067-.816,1.45313-2.63078a0.7438,0.7438,0,0,1,1.04023-.29133,0.816,0.816,0,0,1,.27879,1.0873L144.45146,594.5l-0.45074.81588-2.28455,4.13606a0.816,0.816,0,0,0,.27872,1.0873,0.744,0.744,0,0,0,1.04031-.29133l3.80759-6.8934,0.38076-.6894,0.31085-.56268,0.45067-.816,0.38076-.68932a2.44777,2.44777,0,0,0-.83622-3.262,2.23157,2.23157,0,0,0-3.12078.87406l-1.14228,2.068-0.38076.68932-2.66531,4.82537-0.38076.68932L139.07826,597.86a4.11236,4.11236,0,0,0-.268,3.33483c0.01911,0.05667.03869,0.11287,0.06031,0.16875,0.04805,0.12194.09747,0.24174,0.15718,0.35867a3.95607,3.95607,0,0,0,.255.43484c0.04881,0.07156.10182,0.139,0.15535,0.20735a3.8099,3.8099,0,0,0,.33233.3757c0.04912,0.04832.09816,0.09568,0.1501,0.14145a3.67853,3.67853,0,0,0,5.75258-1.0417l1.14228-2.06811,3.04607-5.51469,0.38076-.68924,0.38076-.68932a0.74385,0.74385,0,0,1,1.04023-.29149,0.81606,0.81606,0,0,1,.27879,1.08738l-0.38084.68932-0.38068.6894-4.18842,7.58272A5.20676,5.20676,0,0,1,139.7104,604.67529Z" transform="translate(-137.04417 -585.42266)" fill="#bccee5" fill-rule="evenodd"/></svg>