<svg xmlns="http://www.w3.org/2000/svg" viewBox="0 0 20 20"><title>icon_okey_hand</title><path d="M154.42448,544.6536a2.893,2.893,0,0,0-2.11313-2.29533c-0.61864-.19725-1.98971-0.13765-2.84317-0.34157,1.565-2.24459,2.19491-4.88645,1.61275-6.21448A2.01887,2.01887,0,0,0,149.1977,534.5c-1.61166,0-1.7948,1.5127-2.10217,2.5-0.04552.14645-.09251,0.29746-0.144,0.45127-0.28551.85068-2.07692,2.54742-4.16667,3.7154-1.56424.87375-2.93984,1.7463-3.00294,1.79667a0.882,0.882,0,0,0-.33039.6883v8.48742a0.88123,0.88123,0,0,0,.36535.715c1.25878,0.90862,5.69837,1.646,7.92894,1.646a3.64925,3.64925,0,0,0,1.85957-.3201c1.0012-.5674,2.33317-3.77882,3.30707-6.48092A3.28758,3.28758,0,0,0,154.42448,544.6536Z" transform="translate(-134.45148 -534.5)" fill="#bccee5"/><rect y="8" width="3" height="11" rx="1" ry="1" fill="#bccee5"/></svg>